<?xml version="1.0" standalone="no"?>
<!DOCTYPE svg PUBLIC "-//W3C//DTD SVG 1.1//EN" "http://www.w3.org/Graphics/SVG/1.1/DTD/svg11.dtd" >
<svg xmlns="http://www.w3.org/2000/svg">
<metadata></metadata>
<defs>
<font id="tyninesansmono_regregular" horiz-adv-x="600" >
<font-face units-per-em="1000" ascent="780" descent="-220" />
<missing-glyph horiz-adv-x="500" />
<glyph unicode=" " />
<glyph unicode="!" d="M260 650h76v-226l-8 -224h-59l-9 225v225zM247 39q0 23 14 35.5t38 12.5q23 0 38 -12t15 -36t-14.5 -36.5t-38.5 -12.5q-52 0 -52 49z" />
<glyph unicode="&#x22;" d="M254 650l-16 -296h-52l-17 296h85zM431 650l-17 -296h-51l-18 296h86z" />
<glyph unicode="#" d="M326 0l27 155h-155l-27 -155h-62l27 155h-97l9 50h97l27 151h-105l9 50h104l27 150h63l-27 -150h154l27 150h63l-27 -150h101l-9 -50h-100l-27 -151h108l-9 -50h-108l-27 -155h-63zM234 356l-27 -151h155l27 151h-155z" />
<glyph unicode="$" d="M276 674h48v-57q89 -3 150 -34l-23 -66q-46 35 -127 40v-203q34 -15 51.5 -23t45.5 -25.5t42 -34t25 -42t11 -56.5q0 -62 -49.5 -104t-125.5 -51v-55h-48v53q-107 1 -176 44l25 65q27 -20 69 -35t82 -16v228q-32 13 -49 21t-42.5 24t-39 31t-23.5 38t-10 50 q0 60 45.5 100.5t118.5 48.5v59zM424 166q0 40 -26 66t-74 49v-204q44 7 72 30t28 59zM187 472q0 -33 23 -55t66 -42v179q-42 -6 -65.5 -27t-23.5 -55z" />
<glyph unicode="%" d="M168 659q75 0 111.5 -41.5t36.5 -115.5q0 -65 -37 -111.5t-112 -46.5q-147 0 -147 158q0 68 38 112.5t110 44.5zM514 563l-398 -506l-39 25l399 509zM168 400q49 0 68 26t19 76q0 102 -87 102q-88 0 -88 -102q0 -50 19 -76t69 -26zM432 304q75 0 111.5 -41.5t36.5 -116.5 q0 -64 -37.5 -110.5t-111.5 -46.5q-146 0 -146 157q0 69 37.5 113.5t109.5 44.5zM431 44q49 0 68.5 26.5t19.5 75.5q0 44 -20 73.5t-68 29.5q-87 0 -87 -103q0 -49 18.5 -75.5t68.5 -26.5z" />
<glyph unicode="&#x26;" d="M22 154q0 71 41 122t111 70q-20 87 -20 149q0 76 37.5 120t97.5 44q51 0 90 -33t39 -106q0 -79 -47.5 -130.5t-119.5 -74.5q34 -115 89 -175q46 68 57 187h176v-59h-126q-19 -89 -74 -164q50 -50 104 -50t82 46l31 -57q-44 -53 -118 -53q-78 0 -147 63q-63 -63 -147 -63 q-71 0 -113.5 46t-42.5 118zM186 298q-50 -20 -71 -51t-21 -78q0 -58 26.5 -87.5t70.5 -29.5q55 0 98 44q-67 79 -103 202zM345 513q0 89 -61 89q-63 0 -63 -92q0 -68 17 -144q50 17 78.5 50.5t28.5 96.5z" />
<glyph unicode="'" d="M342 650l-18 -296h-49l-18 296h85z" />
<glyph unicode="(" d="M162 255q0 281 235 457l41 -44q-97 -82 -149.5 -177.5t-52.5 -232.5q0 -139 52 -233.5t150 -179.5l-37 -42q-239 170 -239 452z" />
<glyph unicode=")" d="M438 255q0 -280 -239 -452l-37 42q63 55 104 107t69 131t28 175q0 137 -52.5 232t-148.5 178l41 44q235 -176 235 -457z" />
<glyph unicode="*" d="M334 337h-71l20 123q4 -3 15 -3q8 0 12 2zM334 634l-23 -115q-5 3 -12 3q-5 0 -13 -2l-24 114h72zM266 482q1 -10 13 -20l-97 -86l-40 61zM142 534l40 62l96 -81q-13 -6 -13 -24zM417 377l-102 85q11 6 14 19l128 -45zM457 535l-126 -43q-4 16 -13 23l99 80z" />
<glyph unicode="+" d="M267 101v164h-173v58h173v160h65v-160h173v-58h-173v-164h-65z" />
<glyph unicode="," d="M292 78h71q-4 -108 -75 -217l-52 15q53 102 56 202z" />
<glyph unicode="-" d="M428 222h-256v70h256v-70z" />
<glyph unicode="." d="M247 39q0 23 14 35.5t38 12.5t38.5 -12t14.5 -36q0 -49 -53 -49q-52 0 -52 49z" />
<glyph unicode="/" d="M423 685h65l-310 -737h-66z" />
<glyph unicode="0" d="M302 659q246 0 246 -317q0 -52 -6 -98t-23 -94t-44 -82t-73 -56t-107 -22q-244 0 -244 322q0 347 251 347zM302 57q165 0 165 274q0 151 -50 210l-194 -467q32 -17 79 -17zM132 334q0 -162 48 -224l193 465q-34 16 -77 16q-164 0 -164 -257z" />
<glyph unicode="1" d="M83 0v69h183v496l-166 -33v65l245 61v-589h192v-69h-454z" />
<glyph unicode="2" d="M80 56q67 48 139 118.5t130 156.5t58 146q0 54 -32.5 84t-83.5 30q-36 0 -73.5 -19.5t-64.5 -49.5l-42 52q30 33 82 59t114 26q79 0 130.5 -45.5t51.5 -127.5q0 -91 -96 -211t-211 -206h338v-69h-440v56z" />
<glyph unicode="3" d="M481 512q0 -62 -42 -104t-112 -59q87 -14 135.5 -59.5t48.5 -116.5q0 -75 -57.5 -129t-176.5 -54q-60 0 -114 20.5t-75 39.5l43 64q67 -56 154 -56q59 0 102 30.5t43 83.5q0 66 -64 99.5t-169 39.5v54q83 7 142.5 42t59.5 92q0 43 -31.5 67t-81.5 24q-74 0 -133 -47 l-35 56q8 7 23.5 17t63.5 26.5t97 16.5q77 0 128 -42t51 -105z" />
<glyph unicode="4" d="M446 164v-163h-78v163h-313v54l309 432h82v-420h98v-66h-98zM134 231h234v324z" />
<glyph unicode="5" d="M213 580v-177q293 -4 293 -213q0 -84 -59 -142t-176 -58q-103 0 -177 62l40 64q62 -59 148 -59q59 0 100.5 33.5t41.5 94.5q0 85 -72 119.5t-215 34.5v311h351v-70h-275z" />
<glyph unicode="6" d="M441 198q0 67 -33.5 97.5t-104.5 30.5q-80 0 -145 -53q1 -47 8 -83t23.5 -67.5t47.5 -48.5t76 -17q64 0 96 41t32 100zM522 211q0 -101 -57.5 -161t-159.5 -60q-228 0 -228 310q0 168 92.5 263t253.5 95q37 0 69 -4v-72q-36 6 -70 6q-110 0 -183 -62.5t-79 -184.5 q79 52 169 52q85 0 139 -47t54 -135z" />
<glyph unicode="7" d="M517 650v-48l-281 -601h-79l272 579h-347v70h435z" />
<glyph unicode="8" d="M499 509q0 -84 -148 -161q39 -21 61 -34.5t52.5 -37.5t45 -51t14.5 -59q0 -77 -66.5 -126.5t-159.5 -49.5q-90 0 -156 43.5t-66 118.5q0 64 44 107.5t118 80.5q-80 48 -103 71q-38 39 -38 94q0 68 60.5 111t145.5 43q88 0 142 -41t54 -109zM443 161q0 22 -12 42.5t-37 39 t-42.5 29.5t-49.5 28l-3 1.5t-2.5 1.5t-3 1.5t-2.5 1.5q-134 -67 -134 -147q0 -51 41.5 -79t107.5 -28q61 0 99 30t38 79zM176 510q0 -37 23 -59.5t102 -71.5q60 38 88 67t28 60q0 46 -33.5 68t-82.5 22q-57 0 -91 -23.5t-34 -62.5z" />
<glyph unicode="9" d="M159 451q0 -67 33 -97.5t104 -30.5q80 0 145 53q-2 100 -35.5 158t-118.5 58q-65 0 -96.5 -40.5t-31.5 -100.5zM77 438q0 101 57.5 161t160.5 60q227 0 227 -310q0 -168 -92.5 -263t-253.5 -95q-37 0 -69 4v72q36 -6 70 -6q111 0 184 62.5t79 184.5q-79 -52 -170 -52 q-84 0 -138.5 47t-54.5 135z" />
<glyph unicode=":" d="M247 39q0 23 14 35.5t38 12.5t38.5 -12t14.5 -36q0 -49 -53 -49q-52 0 -52 49zM247 392q0 23 14 35.5t38 12.5t38.5 -12t14.5 -36q0 -50 -53 -50q-52 0 -52 50z" />
<glyph unicode=";" d="M268 392q0 23 14 35.5t38 12.5t38.5 -12t14.5 -36q0 -50 -53 -50q-52 0 -52 50zM283 78h71q-6 -111 -75 -217l-53 15q53 98 57 202z" />
<glyph unicode="&#x3c;" d="M441 23l-322 238v52l323 230l38 -53l-284 -202l283 -211z" />
<glyph unicode="=" d="M513 368h-427v59h427v-59zM513 169h-427v59h427v-59z" />
<glyph unicode="&#x3e;" d="M480 261l-322 -238l-38 54l283 211l-284 202l38 53l323 -230v-52z" />
<glyph unicode="?" d="M487 520q0 -39 -21 -71.5t-50.5 -54t-59.5 -41.5t-51 -44t-21 -52q0 -26 20 -57l-80 -20q-18 37 -18 78q0 32 20 61t49 50.5l58 43t49 48t20 55.5q0 37 -32 57t-82 20q-83 0 -139 -56l-36 57q75 65 185 65q84 0 136.5 -37.5t52.5 -101.5zM223 39q0 48 52 48q23 0 38 -12 t15 -36q0 -49 -53 -49q-52 0 -52 49z" />
<glyph unicode="@" d="M318 538q-120 0 -186.5 -86t-66.5 -252q0 -151 64 -234.5t185 -83.5q118 0 223 73l22 -39q-111 -79 -254 -79q-132 0 -211 93t-79 273q0 179 81 279.5t224 100.5q75 0 128.5 -26t82.5 -72.5t41.5 -100t12.5 -118.5q0 -49 -5.5 -91t-18 -80t-36 -60t-56.5 -22 q-67 0 -85 59q-51 -59 -122 -59q-52 0 -83 30.5t-31 81.5q0 119 174 119q22 0 56 -4l1 56q1 81 -75 81q-27 0 -50.5 -11.5t-23.5 -38.5q0 -9 3 -21l-55 -8q-5 18 -5 32q0 45 40 73t97 28q56 0 92.5 -29.5t36.5 -98.5l-2 -203q0 -22 12.5 -33.5t26.5 -11.5q34 0 46.5 50.5 t12.5 155.5q0 126 -51.5 201.5t-165.5 75.5zM378 118v77q-20 5 -59 5q-108 0 -108 -68q0 -32 18.5 -49t50.5 -17q54 0 98 52z" />
<glyph unicode="A" d="M110 0h-81l227 650h86l228 -650h-85l-58 172h-261zM405 239l-109 326l-108 -326h217z" />
<glyph unicode="B" d="M543 184q0 -89 -55.5 -136.5t-166.5 -47.5h-237v650h216q195 0 195 -161q0 -46 -24 -83.5t-74 -56.5v-2q146 -24 146 -163zM301 304h-136v-233h147q77 0 111.5 27t34.5 88q0 118 -157 118zM411 480q0 100 -121 100h-125v-210h119q57 0 92 29.5t35 80.5z" />
<glyph unicode="C" d="M524 98l20 -68q-76 -40 -189 -40q-141 0 -220.5 81t-79.5 250q0 161 84 249.5t225 88.5q108 0 171 -39l-27 -75q-54 44 -146 44q-110 0 -165.5 -68.5t-55.5 -197.5q0 -264 220 -264q47 0 92.5 11.5t70.5 27.5z" />
<glyph unicode="D" d="M64 0v650h216q67 0 118.5 -17.5t84.5 -46.5t54 -70.5t29.5 -87t8.5 -98.5q0 -72 -13 -127t-44.5 -103t-93 -74t-149.5 -26h-211zM280 580h-135v-509h139q65 0 107.5 19t63 56.5t27.5 78.5t7 100q0 255 -209 255z" />
<glyph unicode="E" d="M85 650h441v-70h-360v-212h326v-69h-326v-228h360v-71h-441v650z" />
<glyph unicode="F" d="M87 650h445v-70h-364v-239h332v-69h-332v-272h-81v650z" />
<glyph unicode="G" d="M461 322h80v-269q-91 -63 -199 -63q-135 0 -213.5 78t-78.5 253q0 168 83 253t222 85q101 0 174 -40l-28 -78q-62 48 -147 48q-111 0 -164.5 -64t-53.5 -202q0 -141 55 -202.5t162 -61.5q54 0 108 24v239z" />
<glyph unicode="H" d="M455 650h81v-650h-81v298h-310v-298h-81v650h81v-280h310v280z" />
<glyph unicode="I" d="M79 0v71h180v508h-180v71h448v-71h-187v-508h187v-71h-448z" />
<glyph unicode="J" d="M94 579v71h381v-385q0 -269 -354 -303l-13 70q116 16 171 43q115 57 115 197v307h-300z" />
<glyph unicode="K" d="M79 650h81v-298l66 14l209 284h95l-242 -316l267 -334h-101l-236 294l-58 -10v-284h-81v650z" />
<glyph unicode="L" d="M100 650h81v-579h349v-71h-430v650z" />
<glyph unicode="M" d="M492 0v532l-156 -300h-66l-164 295v-527h-69v650h77l190 -342l179 342h79v-650h-70z" />
<glyph unicode="N" d="M136 531v-531h-77v650h89l317 -521v521h76v-650h-83z" />
<glyph unicode="O" d="M301 659q140 0 205.5 -84t65.5 -251q0 -150 -71.5 -242t-203.5 -92q-269 0 -269 333q0 156 69 246t204 90zM297 60q189 0 189 264q0 135 -41 200t-144 65q-104 0 -145.5 -64t-41.5 -202q0 -133 39.5 -198t143.5 -65z" />
<glyph unicode="P" d="M87 0v650h223q227 0 227 -211q0 -98 -60 -153t-160 -55h-150v-231h-80zM312 299q139 0 139 135q0 73 -33.5 109.5t-109.5 36.5h-141v-281h145z" />
<glyph unicode="Q" d="M301 659q140 0 205.5 -84t65.5 -251q0 -107 -37.5 -186.5t-108.5 -117.5l167 -175l-69 -48l-164 200q-35 -7 -63 -7q-269 0 -269 333q0 156 69 246t204 90zM297 60q189 0 189 264q0 135 -41 200t-144 65q-104 0 -145.5 -64t-41.5 -202q0 -133 39.5 -198t143.5 -65z" />
<glyph unicode="R" d="M81 0v650h210q120 0 173.5 -49.5t53.5 -149.5q0 -67 -32 -114t-89 -68l154 -269h-96l-140 253h-153v-253h-81zM293 322q140 0 140 126q0 71 -34 101.5t-111 30.5h-126v-258h131z" />
<glyph unicode="S" d="M438 161q0 37 -19 63.5t-49.5 43t-67.5 30t-74 28.5t-67.5 34t-49.5 52t-19 77q0 75 63.5 122.5t161.5 47.5q110 0 185 -44l-25 -79q-66 53 -157 53q-143 0 -143 -94q0 -41 35.5 -68.5t86.5 -45t102.5 -38.5t87 -64t35.5 -108q0 -88 -67 -134.5t-169 -46.5 q-117 0 -210 56l28 79q80 -67 190 -67q64 0 103 25.5t39 77.5z" />
<glyph unicode="T" d="M565 650v-70h-224v-580h-81v580h-225v70h530z" />
<glyph unicode="U" d="M458 251v399h79v-407q0 -121 -55 -187t-184 -66t-182.5 60.5t-53.5 184.5v415h80v-406q0 -104 36 -145t123 -41q88 0 122.5 44t34.5 149z" />
<glyph unicode="V" d="M114 650l195 -564l180 564h80l-218 -650h-89l-232 650h84z" />
<glyph unicode="W" d="M340 476l114 -382l56 556h77l-87 -650h-82l-115 382l-102 -382h-83l-105 650h82l71 -557l103 383h71z" />
<glyph unicode="X" d="M59 650h90l153 -250l154 250h81l-195 -308l218 -342h-91l-172 279l-174 -279h-83l215 338z" />
<glyph unicode="Y" d="M132 650l178 -329l163 329h80l-205 -397v-253h-81v251l-221 399h86z" />
<glyph unicode="Z" d="M86 580v70h445v-62l-368 -518h377v-70h-473v56l370 524h-351z" />
<glyph unicode="[" d="M201 -183v903h198v-58h-126v-790h126v-55h-198z" />
<glyph unicode="\" d="M112 685h65l311 -737h-66z" />
<glyph unicode="]" d="M399 720v-903h-198v55h127v790h-127v58h198z" />
<glyph unicode="^" d="M297 589l-151 -233h-70l195 295h57l195 -295h-72z" />
<glyph unicode="_" d="M30 -102v56h539v-56h-539z" />
<glyph unicode="`" d="M355 549l-144 115l49 53l128 -134z" />
<glyph unicode="a" d="M394 114v94q-42 6 -77 6q-146 0 -146 -81q0 -39 25 -59.5t69 -20.5q37 0 71.5 18t57.5 43zM394 264l1 64q0 54 -25 75.5t-78 21.5q-100 0 -100 -63q0 -10 3 -22l-71 -9q-6 18 -6 35q0 55 51.5 89t129.5 34q79 0 126.5 -35t46.5 -117l-1 -231q0 -53 36 -53q9 0 17 3l7 -59 q-25 -7 -47 -7q-73 0 -86 68q-64 -68 -159 -68q-65 0 -107 36t-42 98q0 55 37.5 89t86.5 44.5t111 10.5q27 0 69 -4z" />
<glyph unicode="b" d="M168 685v-254q72 58 158 58q95 0 149.5 -65.5t54.5 -174.5q0 -118 -71.5 -188.5t-184.5 -70.5q-98 0 -185 39v656h79zM168 365v-289q45 -21 102 -21q81 0 129 49.5t48 137.5q0 86 -39.5 132t-101.5 46q-70 0 -138 -55z" />
<glyph unicode="c" d="M195 233q0 -87 44.5 -132t122.5 -45q79 0 135 47l22 -65q-73 -48 -173 -48q-102 0 -168 61t-66 181q0 128 69 192.5t176 64.5q95 0 163 -41l-24 -72q-67 47 -138 47q-76 0 -119.5 -47.5t-43.5 -142.5z" />
<glyph unicode="d" d="M317 489q59 0 117 -16v212h79v-685h-74l-1 59q-33 -30 -80 -49.5t-89 -19.5q-94 0 -145.5 65t-51.5 175q0 119 67 189t178 70zM434 121v274q-47 28 -114 28q-79 0 -122 -49t-43 -137q0 -87 36.5 -132.5t97.5 -45.5q33 0 73.5 17t71.5 45z" />
<glyph unicode="e" d="M350 55q37 0 79.5 15.5t63.5 33.5l21 -66q-77 -48 -183 -48q-105 0 -170 63t-65 187q0 118 64.5 183.5t158.5 65.5q93 0 148 -57.5t55 -173.5q0 -27 -1 -30h-344q4 -86 50 -129.5t123 -43.5zM179 283h263q1 65 -33 105t-90 40q-126 0 -140 -145z" />
<glyph unicode="f" d="M76 0v65h137v346h-101v55l101 5v35q0 94 50.5 141.5t137.5 47.5q75 0 121 -24l-16 -71q-40 30 -104 30q-53 0 -82 -30.5t-29 -89.5v-39h180v-60h-180v-346h198v-65h-413z" />
<glyph unicode="g" d="M511 452v-440q0 -238 -239 -238q-97 0 -177 47l31 74q77 -55 154 -55q73 0 112.5 37.5t39.5 135.5v56q-34 -29 -79 -47t-86 -18q-92 0 -144.5 60.5t-52.5 166.5q0 119 68.5 188.5t181.5 69.5q105 0 191 -37zM432 135v268q-44 20 -114 20q-79 0 -121.5 -48.5t-42.5 -136.5 q0 -83 36.5 -123.5t96.5 -40.5q33 0 74 16.5t71 44.5z" />
<glyph unicode="h" d="M177 361v-361h-79v685h79v-260q77 64 167 64q70 0 120.5 -37.5t50.5 -128.5v-323h-78v294q0 68 -28 96t-83 28q-76 0 -149 -57z" />
<glyph unicode="i" d="M81 0v65h177v347h-177v65h257v-65h-1v-347h182v-65h-438zM250 640q0 21 14 35.5t35 14.5t35.5 -14.5t14.5 -35.5t-14.5 -35t-35.5 -14t-35 14t-14 35z" />
<glyph unicode="j" d="M87 412v65h336v-449q0 -252 -335 -252l-3 69q32 0 55 1.5t57 7t57 18.5t45.5 34t34 55.5t11.5 79.5v371h-258zM336 640q0 21 14.5 35.5t35.5 14.5q20 0 35 -14.5t15 -35.5t-14.5 -35t-35.5 -14t-35.5 14t-14.5 35z" />
<glyph unicode="k" d="M307 254l215 -254h-99l-177 214l-66 -11v-203h-78v685h78v-419l64 12l160 199h88z" />
<glyph unicode="l" d="M76 0v65h184v555h-176v65h255v-620h175v-65h-438z" />
<glyph unicode="m" d="M123 361v-361h-71v477h66l1 -63q59 75 118 75q74 0 92 -75q56 75 120 75q56 0 78.5 -36t22.5 -118v-335h-71v318q0 66 -10.5 86t-39.5 20q-44 0 -93 -63q1 -8 1 -26v-335h-72v318q0 60 -10 83t-36 23q-22 0 -48.5 -17t-47.5 -46z" />
<glyph unicode="n" d="M177 361v-361h-79v477h74l1 -55q77 67 171 67q70 0 120.5 -37.5t50.5 -128.5v-323h-78v294q0 68 -28 96t-83 28q-76 0 -149 -57z" />
<glyph unicode="o" d="M63 240q0 113 65.5 181t171.5 68q111 0 174.5 -64.5t63.5 -184.5q0 -107 -64.5 -178.5t-173.5 -71.5t-173 65t-64 185zM146 241q0 -186 152 -186q157 0 157 186q0 85 -38.5 134t-118.5 49q-76 0 -114 -49.5t-38 -133.5z" />
<glyph unicode="p" d="M278 -10q-48 0 -110 16v-226h-79v697h74l1 -57q78 69 165 69q94 0 147.5 -65.5t53.5 -174.5q0 -118 -70 -188.5t-182 -70.5zM168 358v-277q43 -26 108 -26q79 0 125 49.5t46 137.5q0 87 -38.5 132.5t-99.5 45.5q-72 0 -141 -62z" />
<glyph unicode="q" d="M434 -220v275q-75 -65 -160 -65q-95 0 -148.5 65.5t-53.5 174.5q0 118 71 188.5t184 70.5q98 0 186 -41v-668h-79zM434 121v279q-45 23 -109 23q-79 0 -124 -49.5t-45 -136.5t38.5 -132t99.5 -45q73 0 140 61z" />
<glyph unicode="r" d="M47 0v65h167v347h-155v65h228l2 -92q32 45 81 72t96 27q13 0 28 -3l-6 -80q-18 6 -39 6q-38 0 -84.5 -25.5t-72.5 -57.5v-259h211v-65h-456z" />
<glyph unicode="s" d="M414 125q0 35 -30.5 56t-74 32t-87.5 24.5t-74.5 42.5t-30.5 76q0 66 57 99.5t137 33.5q110 0 171 -36l-22 -72q-16 16 -59.5 30t-85.5 14q-118 0 -118 -64q0 -27 30.5 -44.5t74.5 -29t88 -26.5t74.5 -47.5t30.5 -82.5t-33 -83t-78 -45.5t-100 -12.5q-116 0 -177 40 l22 72q62 -48 157 -48q53 0 90.5 17.5t37.5 53.5z" />
<glyph unicode="t" d="M261 411v-252q0 -58 24.5 -80.5t73.5 -22.5q56 0 114 38l17 -66q-67 -38 -149 -38q-159 0 -159 159v262h-113v56l114 5l10 129h68v-130h206v-60h-206z" />
<glyph unicode="u" d="M421 117v360h79v-477h-73l-2 56q-77 -67 -167 -67q-32 0 -59.5 7t-55 24t-43 51.5t-15.5 83.5v322h79v-296q0 -68 28 -96.5t82 -28.5q70 0 147 61z" />
<glyph unicode="v" d="M347 0h-98l-178 477h83l148 -414l147 414h80z" />
<glyph unicode="w" d="M202 0h-84l-100 477h78l69 -411l104 346h66l106 -346l68 411h75l-103 -477h-84l-98 324z" />
<glyph unicode="x" d="M302 308l113 169h80l-152 -222l171 -255h-85l-131 200l-134 -200h-78l171 251l-150 226h84z" />
<glyph unicode="y" d="M529 477l-270 -697h-76l79 207l-191 490h83l151 -396l146 396h78z" />
<glyph unicode="z" d="M184 65h323v-65h-425v48l298 364h-282v65h390v-48z" />
<glyph unicode="{" d="M404 -187q-93 0 -123 39.5t-30 118.5v209q0 55 -65 60q-6 1 -25 1v54q18 0 23 1q67 5 67 60v210q0 75 31 116.5t123 41.5h34v-51h-31q-59 0 -75.5 -23t-16.5 -83v-154q0 -64 -15.5 -98.5t-58.5 -45.5q42 -9 58 -45t16 -99v-156q0 -61 15.5 -83t74.5 -22h33v-51h-35z" />
<glyph unicode="|" d="M267 685h66v-690h-66v690z" />
<glyph unicode="}" d="M196 -187h-35v51h33q59 0 74.5 22t15.5 83v156q0 63 16 99t58 45q-43 11 -58.5 45.5t-15.5 98.5v154q0 60 -16.5 83t-75.5 23h-31v51h34q92 0 123 -41.5t31 -116.5v-210q0 -58 74 -61h16v-54h-17q-73 -3 -73 -61v-209q0 -79 -30 -118.5t-123 -39.5z" />
<glyph unicode="~" d="M407 221q-43 0 -114.5 44.5t-113.5 44.5q-50 0 -103 -78l-43 32q65 103 153 103q41 0 85.5 -21.5t82.5 -43.5t63 -22q30 0 54 22.5t50 69.5l45 -33q-38 -66 -76 -92t-83 -26z" />
<glyph unicode="&#xa0;" />
<glyph unicode="&#xa1;" d="M339 -200h-76v226l8 224h59l9 -225v-225zM352 411q0 -23 -14 -35.5t-38 -12.5q-23 0 -38 12t-15 36t14.5 36.5t38.5 12.5q52 0 52 -49z" />
<glyph unicode="&#xa2;" d="M309 567h53v-78q66 -3 123 -32l-24 -73q-51 34 -99 37v-365q55 3 100 40l22 -66q-50 -32 -122 -39v-64h-53v65q-90 8 -142.5 70.5t-52.5 169.5q0 110 53.5 176t141.5 78v81zM197 233q0 -146 112 -172v357q-112 -25 -112 -185z" />
<glyph unicode="&#xa3;" d="M139 295h-88v57h88v78q0 114 61 171.5t155 57.5q90 0 155 -58l-42 -59q-49 52 -114 52q-66 0 -100.5 -37.5t-34.5 -124.5v-80h233v-57h-233v-66q0 -56 -16 -94t-58 -68h238q56 0 85.5 16.5t50.5 47.5l41 -52q-16 -30 -54 -54.5t-94 -24.5h-373v53q45 6 72.5 46.5 t27.5 87.5v108z" />
<glyph unicode="&#xa4;" d="M108 39l-35 29l104 105q-30 43 -30 89q0 49 30 87q-1 1 -27 27.5t-50 50.5l-27 27l33 35l105 -106q43 28 87 28q46 0 89 -28l107 105l33 -34l-107 -105q30 -36 30 -87t-30 -88l107 -106l-36 -29l-104 103q-38 -29 -88 -29q-45 0 -88 28zM299 167q39 0 64.5 27.5 t25.5 67.5q0 42 -25 67.5t-65 25.5q-39 0 -64 -25.5t-25 -67.5q0 -41 25.5 -68t63.5 -27z" />
<glyph unicode="&#xa5;" d="M132 650l178 -329l163 329h80l-183 -354h138v-57h-160v-90h160v-57h-160v-92h-81v92h-160v57h160v90h-160v57h135l-196 354h86z" />
<glyph unicode="&#xa6;" d="M267 685h66v-281h-66v281zM267 291h66v-296h-66v296z" />
<glyph unicode="&#xa7;" d="M291 -68q0 37 -27.5 109t-61 140t-61 140t-27.5 109q0 71 53 125.5t122 79t135 24.5q61 0 117 -14l-3 -76q-68 42 -131 42q-40 0 -61 -23.5t-21 -64.5q0 -50 88 -249t88 -250q0 -56 -36.5 -103t-91 -74t-110.5 -42t-102 -15q-57 0 -102 12l3 76q53 -35 105 -35 q53 0 88.5 21t35.5 68zM442 17q0 39 -27 109.5t-59.5 136.5t-59 140t-26.5 118q0 39 23 67q-56 -24 -87.5 -64.5t-31.5 -78.5q0 -39 27.5 -109t60 -135t60 -137.5t27.5 -115.5q0 -38 -18 -62q58 25 84.5 56.5t26.5 74.5z" />
<glyph unicode="&#xa8;" d="M166 626q0 20 13.5 33.5t32.5 13.5q20 0 33.5 -13.5t13.5 -33.5q0 -19 -13.5 -32.5t-33.5 -13.5t-33 13t-13 33zM340 626q0 20 14 33.5t33 13.5t32.5 -14t13.5 -33t-13.5 -32.5t-32.5 -13.5q-20 0 -33.5 13.5t-13.5 32.5z" />
<glyph unicode="&#xa9;" d="M298 -7q-126 0 -209 93t-83 227q0 135 82.5 228t209.5 93q130 0 213.5 -92.5t83.5 -228.5q0 -135 -83 -227.5t-214 -92.5zM298 30q114 0 184 79.5t70 203.5q0 119 -70.5 201t-183.5 82q-111 0 -180 -79.5t-69 -203.5t70 -203.5t179 -79.5zM315 111q-207 0 -207 200 q0 99 57.5 152t155.5 53q70 0 115 -24l-20 -53q-39 30 -96 30q-73 0 -111 -40t-38 -117q0 -154 148 -154q66 0 108 26l14 -49q-53 -24 -126 -24z" />
<glyph unicode="&#xaa;" d="M242 269q-55 0 -88.5 28.5t-33.5 75.5q0 32 16 55.5t44.5 35t59.5 17t68 5.5q15 0 41 -2q13 0 17 -1v50q0 73 -78 73q-27 0 -51.5 -11t-25.5 -35q0 -8 3 -18l-61 -8q-6 13 -6 30q-1 42 42.5 68.5t104.5 26.5q60 0 100.5 -28t40.5 -91l-1 -182q0 -38 24 -40q9 0 16 3 l5 -47q-25 -5 -40 -5q-57 0 -69 50q-55 -50 -128 -50zM263 321q58 0 103 45v76q-40 5 -64 5q-109 -2 -109 -65q0 -61 70 -61z" />
<glyph unicode="&#xab;" d="M104 234l125 231h69l-111 -227l111 -235h-69zM301 234l125 231h69l-111 -227l111 -235h-69z" />
<glyph unicode="&#xac;" d="M499 60v210h-467v55h529v-265h-62z" />
<glyph unicode="&#xae;" d="M298 168q-98 0 -168.5 72t-70.5 173q0 102 70.5 174t168.5 72q100 0 171 -72t71 -174q0 -103 -70.5 -174t-171.5 -71zM298 201q88 0 146 59.5t58 152.5q0 88 -58.5 150t-145.5 62q-86 0 -143.5 -59.5t-57.5 -152.5t58.5 -152.5t142.5 -59.5zM200 255v324h101 q118 0 118 -103q0 -75 -68 -97l67 -124h-55l-59 117h-55v-117h-49zM249 409h50q68 0 68 65q0 37 -15.5 51.5t-54.5 14.5h-48v-131z" />
<glyph unicode="&#xaf;" d="M177 598v57h246v-57h-246z" />
<glyph unicode="&#xb0;" d="M301 393q-65 0 -103.5 36.5t-38.5 97.5q0 59 39.5 95.5t102.5 36.5q64 0 101.5 -35.5t37.5 -96.5t-37.5 -97.5t-101.5 -36.5zM301 436q41 0 63 25t22 66q0 39 -22.5 63.5t-62.5 24.5q-42 0 -65.5 -24t-23.5 -64t24 -65.5t65 -25.5z" />
<glyph unicode="&#xb1;" d="M267 122v150h-173v58h173v153h65v-153h173v-58h-173v-150h-65zM94 4v57h411v-57h-411z" />
<glyph unicode="&#xb4;" d="M388 664l-144 -115l-33 34l129 134z" />
<glyph unicode="&#xb5;" d="M421 117v361h79v-478h-73l-2 56q-77 -67 -159 -67q-71 0 -104 32q16 -47 16 -111v-130h-79v698h79v-297q0 -69 25 -96.5t78 -27.5q64 0 140 60z" />
<glyph unicode="&#xb6;" d="M370 650v-870h-69v379q-104 27 -162.5 90.5t-58.5 153.5q0 102 75 174.5t215 72.5zM451 -220v870h69v-870h-69z" />
<glyph unicode="&#xb7;" d="M248 294q0 22 14.5 35.5t36.5 13.5t37 -13.5t15 -35.5q0 -23 -14.5 -36.5t-37.5 -13.5q-22 0 -36.5 13.5t-14.5 36.5z" />
<glyph unicode="&#xb8;" d="M200 -204l21 52q23 -27 66 -27q24 0 37.5 10.5t13.5 26.5q0 22 -22 36t-65 16l29 102h48l-19 -69q44 -7 67.5 -31t23.5 -55q0 -36 -32 -60.5t-81 -24.5t-87 24z" />
<glyph unicode="&#xba;" d="M300 269q-91 0 -141.5 51t-50.5 145q0 86 52 140t140 54q92 0 142 -51t50 -143q0 -83 -50.5 -139.5t-141.5 -56.5zM299 324q66 0 92.5 36.5t26.5 104.5q0 140 -119 140q-117 0 -117 -140q0 -69 26.5 -105t90.5 -36z" />
<glyph unicode="&#xbb;" d="M173 465l125 -231l-125 -231h-69l111 235l-111 227h69zM370 465l125 -231l-125 -231h-69l111 235l-111 227h69z" />
<glyph unicode="&#xbf;" d="M113 -69q0 39 21 71.5t50.5 54t59.5 41.5t51 44t21 52q0 26 -20 57l80 20q18 -37 18 -78q0 -32 -20 -61t-49 -50.5l-58 -43t-49 -48t-20 -55.5q0 -37 32 -57t82 -20q83 0 139 56l36 -57q-75 -65 -185 -65q-84 0 -136.5 37.5t-52.5 101.5zM377 412q0 -48 -52 -48 q-23 0 -38 12t-15 36q0 49 53 49q52 0 52 -49z" />
<glyph unicode="&#xc0;" d="M110 0h-81l227 650h86l228 -650h-85l-58 172h-261zM405 239l-109 326l-108 -326h217zM335 695l-175 82l34 65l164 -106z" />
<glyph unicode="&#xc1;" d="M110 0h-81l227 650h86l228 -650h-85l-58 172h-261zM405 239l-109 326l-108 -326h217zM433 777l-175 -82l-23 41l164 106z" />
<glyph unicode="&#xc2;" d="M110 0h-81l227 650h86l228 -650h-85l-58 172h-261zM405 239l-109 326l-108 -326h217zM323 845l119 -97l-35 -44l-108 82l-107 -82l-33 42l121 99h43z" />
<glyph unicode="&#xc3;" d="M110 0h-81l227 650h86l228 -650h-85l-58 172h-261zM405 239l-109 326l-108 -326h217zM166 726l-28 29q46 62 97 62q27 0 67.5 -14.5t59.5 -14.5q39 0 65 31l27 -30q-43 -61 -96 -61q-21 0 -62.5 15.5t-61.5 15.5q-40 0 -68 -33z" />
<glyph unicode="&#xc4;" d="M110 0h-81l227 650h86l228 -650h-85l-58 172h-261zM405 239l-109 326l-108 -326h217zM160 774q0 20 13.5 33.5t32.5 13.5q20 0 33.5 -13.5t13.5 -33.5q0 -19 -13.5 -32.5t-33.5 -13.5t-33 13t-13 33zM340 774q0 20 13.5 33.5t32.5 13.5q20 0 33.5 -13.5t13.5 -33.5 q0 -19 -13.5 -32.5t-33.5 -13.5t-33 13t-13 33z" />
<glyph unicode="&#xc5;" d="M110 0h-81l227 650h86l228 -650h-85l-58 172h-261zM405 239l-109 326l-108 -326h217zM299 686q-46 0 -74.5 27t-28.5 71t30.5 70.5t74.5 26.5q45 0 73.5 -26t28.5 -71q0 -41 -29 -69.5t-75 -28.5zM299 727q53 0 53 57t-53 57t-53 -57t53 -57z" />
<glyph unicode="&#xc6;" d="M268 650h320v-70h-211v-212h178v-69h-178v-228h211v-71h-286v164h-153l-63 -164h-81zM174 229h128v332z" />
<glyph unicode="&#xc7;" d="M248 -204l21 52q23 -27 66 -27q24 0 37.5 10.5t13.5 26.5q0 22 -22 36t-65 16l23 81q-126 9 -196.5 90t-70.5 240q0 161 84 249.5t225 88.5q108 0 171 -39l-27 -75q-54 44 -146 44q-110 0 -165.5 -68.5t-55.5 -197.5q0 -264 220 -264q47 0 92.5 11.5t70.5 27.5l20 -68 q-71 -37 -174 -40l-13 -47q44 -7 67.5 -31t23.5 -55q0 -36 -32 -60.5t-81 -24.5t-87 24z" />
<glyph unicode="&#xc8;" d="M352 695l-175 82l34 65l164 -106zM85 650h441v-70h-360v-212h326v-69h-326v-228h360v-71h-441v650z" />
<glyph unicode="&#xc9;" d="M432 777l-175 -82l-23 41l164 106zM85 650h441v-70h-360v-212h326v-69h-326v-228h360v-71h-441v650z" />
<glyph unicode="&#xca;" d="M85 650h441v-70h-360v-212h326v-69h-326v-228h360v-71h-441v650zM337 845l119 -97l-35 -44l-108 82l-107 -82l-33 42l121 99h43z" />
<glyph unicode="&#xcb;" d="M177 774q0 20 13.5 33.5t32.5 13.5t33 -13.5t14 -33.5q0 -19 -13.5 -32.5t-33.5 -13.5q-19 0 -32.5 13t-13.5 33zM357 774q0 20 13.5 33.5t32.5 13.5t33 -13.5t14 -33.5q0 -19 -13.5 -32.5t-33.5 -13.5q-19 0 -32.5 13t-13.5 33zM85 650h441v-70h-360v-212h326v-69h-326 v-228h360v-71h-441v650z" />
<glyph unicode="&#xcc;" d="M79 0v71h180v508h-180v71h448v-71h-187v-508h187v-71h-448zM335 695l-175 82l34 65l164 -106z" />
<glyph unicode="&#xcd;" d="M79 0v71h180v508h-180v71h448v-71h-187v-508h187v-71h-448zM424 777l-175 -82l-23 41l164 106z" />
<glyph unicode="&#xce;" d="M79 0v71h180v508h-180v71h448v-71h-187v-508h187v-71h-448zM320 845l119 -97l-35 -44l-108 82l-107 -82l-33 42l121 99h43z" />
<glyph unicode="&#xcf;" d="M79 0v71h180v508h-180v71h448v-71h-187v-508h187v-71h-448zM342 774q0 20 13.5 33.5t32.5 13.5q20 0 33.5 -13.5t13.5 -33.5q0 -19 -13.5 -32.5t-33.5 -13.5t-33 13t-13 33zM162 774q0 20 13.5 33.5t32.5 13.5q20 0 33.5 -13.5t13.5 -33.5q0 -19 -13.5 -32.5t-33.5 -13.5 t-33 13t-13 33z" />
<glyph unicode="&#xd0;" d="M64 0v299h-65v64h65v287h216q67 0 118.5 -17.5t84.5 -46.5t54 -70.5t29.5 -87t8.5 -98.5q0 -72 -13 -127t-44.5 -103t-93 -74t-149.5 -26h-211zM280 580h-135v-217h121v-64h-121v-228h139q65 0 107.5 19t63 56.5t27.5 78.5t7 100q0 255 -209 255z" />
<glyph unicode="&#xd1;" d="M185 726l-28 29q46 62 97 62q27 0 67.5 -14.5t59.5 -14.5q39 0 65 31l27 -30q-43 -61 -96 -61q-21 0 -62.5 15.5t-61.5 15.5q-40 0 -68 -33zM136 531v-531h-77v650h89l317 -521v521h76v-650h-83z" />
<glyph unicode="&#xd2;" d="M338 695l-175 82l34 65l164 -106zM301 659q140 0 205.5 -84t65.5 -251q0 -150 -71.5 -242t-203.5 -92q-269 0 -269 333q0 156 69 246t204 90zM297 60q189 0 189 264q0 135 -41 200t-144 65q-104 0 -145.5 -64t-41.5 -202q0 -133 39.5 -198t143.5 -65z" />
<glyph unicode="&#xd3;" d="M426 777l-175 -82l-23 41l164 106zM301 659q140 0 205.5 -84t65.5 -251q0 -150 -71.5 -242t-203.5 -92q-269 0 -269 333q0 156 69 246t204 90zM297 60q189 0 189 264q0 135 -41 200t-144 65q-104 0 -145.5 -64t-41.5 -202q0 -133 39.5 -198t143.5 -65z" />
<glyph unicode="&#xd4;" d="M301 659q140 0 205.5 -84t65.5 -251q0 -150 -71.5 -242t-203.5 -92q-269 0 -269 333q0 156 69 246t204 90zM297 60q189 0 189 264q0 135 -41 200t-144 65q-104 0 -145.5 -64t-41.5 -202q0 -133 39.5 -198t143.5 -65zM330 845l119 -97l-35 -44l-108 82l-107 -82l-33 42 l121 99h43z" />
<glyph unicode="&#xd5;" d="M173 726l-28 29q46 62 97 62q27 0 67.5 -14.5t59.5 -14.5q39 0 65 31l27 -30q-43 -61 -96 -61q-21 0 -62.5 15.5t-61.5 15.5q-40 0 -68 -33zM301 659q140 0 205.5 -84t65.5 -251q0 -150 -71.5 -242t-203.5 -92q-269 0 -269 333q0 156 69 246t204 90zM297 60 q189 0 189 264q0 135 -41 200t-144 65q-104 0 -145.5 -64t-41.5 -202q0 -133 39.5 -198t143.5 -65z" />
<glyph unicode="&#xd6;" d="M161 774q0 20 13.5 33.5t32.5 13.5t33 -13.5t14 -33.5q0 -19 -13.5 -32.5t-33.5 -13.5q-19 0 -32.5 13t-13.5 33zM341 774q0 20 13.5 33.5t32.5 13.5t33 -13.5t14 -33.5q0 -19 -13.5 -32.5t-33.5 -13.5q-19 0 -32.5 13t-13.5 33zM301 659q140 0 205.5 -84t65.5 -251 q0 -150 -71.5 -242t-203.5 -92q-269 0 -269 333q0 156 69 246t204 90zM297 60q189 0 189 264q0 135 -41 200t-144 65q-104 0 -145.5 -64t-41.5 -202q0 -133 39.5 -198t143.5 -65z" />
<glyph unicode="&#xd7;" d="M421 130l-124 115l-120 -114l-43 39l122 114l-121 113l45 42l121 -113l121 114l43 -40l-123 -112l124 -117z" />
<glyph unicode="&#xd8;" d="M301 659q115 0 183 -60l41 53h58l-69 -89q58 -83 58 -239q0 -150 -71.5 -242t-203.5 -92q-113 0 -180 59l-40 -52h-60l69 89q-58 83 -58 237q0 156 69 246t204 90zM114 323q0 -111 24 -170l297 383q-44 53 -134 53q-104 0 -145.5 -64t-41.5 -202zM297 60q189 0 189 264 q0 110 -25 170l-297 -384q42 -50 133 -50z" />
<glyph unicode="&#xd9;" d="M351 695l-175 82l34 65l164 -106zM458 251v399h79v-407q0 -121 -55 -187t-184 -66t-182.5 60.5t-53.5 184.5v415h80v-406q0 -104 36 -145t123 -41q88 0 122.5 44t34.5 149z" />
<glyph unicode="&#xda;" d="M427 777l-175 -82l-23 41l164 106zM458 251v399h79v-407q0 -121 -55 -187t-184 -66t-182.5 60.5t-53.5 184.5v415h80v-406q0 -104 36 -145t123 -41q88 0 122.5 44t34.5 149z" />
<glyph unicode="&#xdb;" d="M458 251v399h79v-407q0 -121 -55 -187t-184 -66t-182.5 60.5t-53.5 184.5v415h80v-406q0 -104 36 -145t123 -41q88 0 122.5 44t34.5 149zM323 845l119 -97l-35 -44l-108 82l-107 -82l-33 42l121 99h43z" />
<glyph unicode="&#xdc;" d="M163 774q0 20 13.5 33.5t32.5 13.5t33 -13.5t14 -33.5q0 -19 -13.5 -32.5t-33.5 -13.5q-19 0 -32.5 13t-13.5 33zM343 774q0 20 13.5 33.5t32.5 13.5t33 -13.5t14 -33.5q0 -19 -13.5 -32.5t-33.5 -13.5q-19 0 -32.5 13t-13.5 33zM458 251v399h79v-407q0 -121 -55 -187 t-184 -66t-182.5 60.5t-53.5 184.5v415h80v-406q0 -104 36 -145t123 -41q88 0 122.5 44t34.5 149z" />
<glyph unicode="&#xdd;" d="M132 650l178 -329l163 329h80l-205 -397v-253h-81v251l-221 399h86zM429 777l-175 -82l-23 41l164 106z" />
<glyph unicode="&#xde;" d="M90 650h81v-90h111q119 0 173 -53t54 -154q0 -99 -60 -155.5t-160 -56.5h-118v-141h-81v650zM284 211q139 0 139 138q0 73 -33.5 107t-109.5 34h-109v-279h113z" />
<glyph unicode="&#xdf;" d="M348 356q0 -25 23.5 -42.5t57 -30.5t67 -29.5t57 -47.5t23.5 -75q0 -74 -51 -107.5t-127 -33.5q-81 0 -147 40l22 72q18 -18 52.5 -33.5t70.5 -15.5q102 0 102 73q0 30 -23.5 50t-57 33t-66.5 27.5t-56.5 42.5t-23.5 69q0 30 13.5 56t32.5 43.5t37.5 33t32 33t13.5 35.5 q0 37 -26 59t-78 22q-124 0 -124 -143v-487h-77v411h-71v55l71 5v21q0 100 58.5 151.5t145.5 51.5q89 0 135.5 -38.5t46.5 -103.5q0 -29 -21 -56t-45.5 -45t-45.5 -43.5t-21 -52.5z" />
<glyph unicode="&#xe0;" d="M394 114v94q-42 6 -77 6q-146 0 -146 -81q0 -39 25 -59.5t69 -20.5q37 0 71.5 18t57.5 43zM394 264l1 64q0 54 -25 75.5t-78 21.5q-100 0 -100 -63q0 -10 3 -22l-71 -9q-6 18 -6 35q0 55 51.5 89t129.5 34q79 0 126.5 -35t46.5 -117l-1 -231q0 -53 36 -53q9 0 17 3l7 -59 q-25 -7 -47 -7q-73 0 -86 68q-64 -68 -159 -68q-65 0 -107 36t-42 98q0 55 37.5 89t86.5 44.5t111 10.5q27 0 69 -4zM303 549l-144 115l49 53l128 -134z" />
<glyph unicode="&#xe1;" d="M394 114v94q-42 6 -77 6q-146 0 -146 -81q0 -39 25 -59.5t69 -20.5q37 0 71.5 18t57.5 43zM394 264l1 64q0 54 -25 75.5t-78 21.5q-100 0 -100 -63q0 -10 3 -22l-71 -9q-6 18 -6 35q0 55 51.5 89t129.5 34q79 0 126.5 -35t46.5 -117l-1 -231q0 -53 36 -53q9 0 17 3l7 -59 q-25 -7 -47 -7q-73 0 -86 68q-64 -68 -159 -68q-65 0 -107 36t-42 98q0 55 37.5 89t86.5 44.5t111 10.5q27 0 69 -4zM414 664l-144 -115l-33 34l129 134z" />
<glyph unicode="&#xe2;" d="M394 114v94q-42 6 -77 6q-146 0 -146 -81q0 -39 25 -59.5t69 -20.5q37 0 71.5 18t57.5 43zM394 264l1 64q0 54 -25 75.5t-78 21.5q-100 0 -100 -63q0 -10 3 -22l-71 -9q-6 18 -6 35q0 55 51.5 89t129.5 34q79 0 126.5 -35t46.5 -117l-1 -231q0 -53 36 -53q9 0 17 3l7 -59 q-25 -7 -47 -7q-73 0 -86 68q-64 -68 -159 -68q-65 0 -107 36t-42 98q0 55 37.5 89t86.5 44.5t111 10.5q27 0 69 -4zM309 697l123 -117l-42 -40l-104 97l-104 -98l-40 39l124 119h43z" />
<glyph unicode="&#xe3;" d="M394 114v94q-42 6 -77 6q-146 0 -146 -81q0 -39 25 -59.5t69 -20.5q37 0 71.5 18t57.5 43zM394 264l1 64q0 54 -25 75.5t-78 21.5q-100 0 -100 -63q0 -10 3 -22l-71 -9q-6 18 -6 35q0 55 51.5 89t129.5 34q79 0 126.5 -35t46.5 -117l-1 -231q0 -53 36 -53q9 0 17 3l7 -59 q-25 -7 -47 -7q-73 0 -86 68q-64 -68 -159 -68q-65 0 -107 36t-42 98q0 55 37.5 89t86.5 44.5t111 10.5q27 0 69 -4zM162 580l-28 30q48 62 97 62q27 0 60.5 -14.5t52.5 -14.5q40 0 65 31l27 -30q-42 -61 -96 -61q-21 0 -55 15t-54 15q-43 0 -69 -33z" />
<glyph unicode="&#xe4;" d="M394 114v94q-42 6 -77 6q-146 0 -146 -81q0 -39 25 -59.5t69 -20.5q37 0 71.5 18t57.5 43zM394 264l1 64q0 54 -25 75.5t-78 21.5q-100 0 -100 -63q0 -10 3 -22l-71 -9q-6 18 -6 35q0 55 51.5 89t129.5 34q79 0 126.5 -35t46.5 -117l-1 -231q0 -53 36 -53q9 0 17 3l7 -59 q-25 -7 -47 -7q-73 0 -86 68q-64 -68 -159 -68q-65 0 -107 36t-42 98q0 55 37.5 89t86.5 44.5t111 10.5q27 0 69 -4zM151 626q0 20 13.5 33.5t32.5 13.5t33 -13.5t14 -33.5q0 -19 -13.5 -32.5t-33.5 -13.5q-19 0 -32.5 13t-13.5 33zM325 626q0 20 13.5 33.5t33.5 13.5 q19 0 32.5 -14t13.5 -33t-13.5 -32.5t-32.5 -13.5q-20 0 -33.5 13.5t-13.5 32.5z" />
<glyph unicode="&#xe5;" d="M394 114v94q-42 6 -77 6q-146 0 -146 -81q0 -39 25 -59.5t69 -20.5q37 0 71.5 18t57.5 43zM394 264l1 64q0 54 -25 75.5t-78 21.5q-100 0 -100 -63q0 -10 3 -22l-71 -9q-6 18 -6 35q0 55 51.5 89t129.5 34q79 0 126.5 -35t46.5 -117l-1 -231q0 -53 36 -53q9 0 17 3l7 -59 q-25 -7 -47 -7q-73 0 -86 68q-64 -68 -159 -68q-65 0 -107 36t-42 98q0 55 37.5 89t86.5 44.5t111 10.5q27 0 69 -4zM284 542q-46 0 -74.5 27t-28.5 71t30.5 70t74.5 26q46 0 74 -25.5t28 -70.5q0 -41 -29 -69.5t-75 -28.5zM284 583q53 0 53 57q0 56 -53 56t-53 -56 q0 -57 53 -57z" />
<glyph unicode="&#xe6;" d="M178 426q-74 0 -74 -61q0 -10 5 -25l-64 -9q-7 18 -7 38q0 54 41 87t106 33q94 0 119 -70q46 70 127 70q79 0 115 -59t37 -178v-24h-261q1 -82 35.5 -127.5t88.5 -45.5q64 0 111 41l19 -65q-61 -41 -136 -41q-105 0 -153 87q-52 -87 -145 -87q-61 0 -97 35t-36 98 q0 39 17 68t46.5 44t62 21.5t69.5 6.5q30 0 45 -2q0 24 5 47v23q0 53 -17.5 74t-58.5 21zM81 131q0 -39 20 -59.5t55 -20.5t63.5 20t45.5 51q-14 43 -17 86q-17 4 -46 4q-121 0 -121 -81zM322 283h190v12q1 59 -20 96.5t-62 37.5q-50 0 -75.5 -36t-32.5 -110z" />
<glyph unicode="&#xe7;" d="M247 -205l21 52q23 -27 66 -27q24 0 37.5 10.5t13.5 26.5q0 22 -22 36t-65 16l23 82q-93 7 -151 67.5t-58 173.5q0 128 69 192.5t176 64.5q95 0 163 -41l-24 -72q-67 47 -138 47q-76 0 -119.5 -47.5t-43.5 -142.5q0 -87 44.5 -132t122.5 -45q79 0 135 47l22 -65 q-61 -41 -150 -47l-13 -49q44 -7 67.5 -31t23.5 -55q0 -36 -32 -60.5t-81 -24.5t-87 24z" />
<glyph unicode="&#xe8;" d="M350 55q37 0 79.5 15.5t63.5 33.5l21 -66q-77 -48 -183 -48q-105 0 -170 63t-65 187q0 118 64.5 183.5t158.5 65.5q93 0 148 -57.5t55 -173.5q0 -27 -1 -30h-344q4 -86 50 -129.5t123 -43.5zM179 283h263q1 65 -33 105t-90 40q-126 0 -140 -145zM347 549l-144 115l49 53 l128 -134z" />
<glyph unicode="&#xe9;" d="M350 55q37 0 79.5 15.5t63.5 33.5l21 -66q-77 -48 -183 -48q-105 0 -170 63t-65 187q0 118 64.5 183.5t158.5 65.5q93 0 148 -57.5t55 -173.5q0 -27 -1 -30h-344q4 -86 50 -129.5t123 -43.5zM179 283h263q1 65 -33 105t-90 40q-126 0 -140 -145zM433 664l-144 -115 l-33 34l129 134z" />
<glyph unicode="&#xea;" d="M350 55q37 0 79.5 15.5t63.5 33.5l21 -66q-77 -48 -183 -48q-105 0 -170 63t-65 187q0 118 64.5 183.5t158.5 65.5q93 0 148 -57.5t55 -173.5q0 -27 -1 -30h-344q4 -86 50 -129.5t123 -43.5zM179 283h263q1 65 -33 105t-90 40q-126 0 -140 -145zM343 697l123 -117 l-42 -40l-104 97l-104 -98l-40 39l124 119h43z" />
<glyph unicode="&#xeb;" d="M350 55q37 0 79.5 15.5t63.5 33.5l21 -66q-77 -48 -183 -48q-105 0 -170 63t-65 187q0 118 64.5 183.5t158.5 65.5q93 0 148 -57.5t55 -173.5q0 -27 -1 -30h-344q4 -86 50 -129.5t123 -43.5zM179 283h263q1 65 -33 105t-90 40q-126 0 -140 -145zM190 626q0 20 13.5 33.5 t32.5 13.5q20 0 33.5 -13.5t13.5 -33.5q0 -19 -13.5 -32.5t-33.5 -13.5t-33 13t-13 33zM364 626q0 20 14 33.5t33 13.5t32.5 -14t13.5 -33t-13.5 -32.5t-32.5 -13.5q-20 0 -33.5 13.5t-13.5 32.5z" />
<glyph unicode="&#xec;" d="M81 0v65h177v347h-177v65h257v-65h-1v-347h182v-65h-438zM320 549l-144 115l49 53l128 -134z" />
<glyph unicode="&#xed;" d="M81 0v65h177v347h-177v65h257v-65h-1v-347h182v-65h-438zM409 664l-144 -115l-33 34l129 134z" />
<glyph unicode="&#xee;" d="M81 0v65h177v347h-177v65h257v-65h-1v-347h182v-65h-438zM320 697l123 -117l-42 -40l-104 97l-104 -98l-40 39l124 119h43z" />
<glyph unicode="&#xef;" d="M81 0v65h177v347h-177v65h257v-65h-1v-347h182v-65h-438zM166 626q0 20 13.5 33.5t32.5 13.5q20 0 33.5 -13.5t13.5 -33.5q0 -19 -13.5 -32.5t-33.5 -13.5t-33 13t-13 33zM340 626q0 20 14 33.5t33 13.5t32.5 -14t13.5 -33t-13.5 -32.5t-32.5 -13.5q-20 0 -33.5 13.5 t-13.5 32.5z" />
<glyph unicode="&#xf0;" d="M74 240q0 108 59 175t158 67q62 0 103 -28q-43 71 -103 122l-56 -62l-40 31l54 61q-32 22 -58 35l37 50q33 -16 65 -35l51 57l40 -33l-48 -53q186 -137 190 -377v-10q0 -106 -59.5 -178t-166.5 -72t-166.5 65t-59.5 185zM157 240q0 -185 141 -185q143 0 145 179 q0 84 -20 146q-48 41 -122 41q-144 0 -144 -181z" />
<glyph unicode="&#xf1;" d="M177 361v-361h-79v477h74l1 -55q77 67 171 67q70 0 120.5 -37.5t50.5 -128.5v-323h-78v294q0 68 -28 96t-83 28q-76 0 -149 -57zM177 580l-28 30q48 62 97 62q27 0 60.5 -14.5t52.5 -14.5q40 0 65 31l27 -30q-42 -61 -96 -61q-21 0 -55 15t-54 15q-43 0 -69 -33z" />
<glyph unicode="&#xf2;" d="M63 240q0 113 65.5 181t171.5 68q111 0 174.5 -64.5t63.5 -184.5q0 -107 -64.5 -178.5t-173.5 -71.5t-173 65t-64 185zM146 241q0 -186 152 -186q157 0 157 186q0 85 -38.5 134t-118.5 49q-76 0 -114 -49.5t-38 -133.5zM307 549l-144 115l49 53l128 -134z" />
<glyph unicode="&#xf3;" d="M407 664l-144 -115l-33 34l129 134zM63 240q0 113 65.5 181t171.5 68q111 0 174.5 -64.5t63.5 -184.5q0 -107 -64.5 -178.5t-173.5 -71.5t-173 65t-64 185zM146 241q0 -186 152 -186q157 0 157 186q0 85 -38.5 134t-118.5 49q-76 0 -114 -49.5t-38 -133.5z" />
<glyph unicode="&#xf4;" d="M321 697l123 -117l-42 -40l-104 97l-104 -98l-40 39l124 119h43zM63 240q0 113 65.5 181t171.5 68q111 0 174.5 -64.5t63.5 -184.5q0 -107 -64.5 -178.5t-173.5 -71.5t-173 65t-64 185zM146 241q0 -186 152 -186q157 0 157 186q0 85 -38.5 134t-118.5 49 q-76 0 -114 -49.5t-38 -133.5z" />
<glyph unicode="&#xf5;" d="M63 240q0 113 65.5 181t171.5 68q111 0 174.5 -64.5t63.5 -184.5q0 -107 -64.5 -178.5t-173.5 -71.5t-173 65t-64 185zM146 241q0 -186 152 -186q157 0 157 186q0 85 -38.5 134t-118.5 49q-76 0 -114 -49.5t-38 -133.5zM175 580l-28 30q48 62 97 62q27 0 60.5 -14.5 t52.5 -14.5q40 0 65 31l27 -30q-42 -61 -96 -61q-21 0 -55 15t-54 15q-43 0 -69 -33z" />
<glyph unicode="&#xf6;" d="M163 626q0 20 13.5 33.5t32.5 13.5t33 -13.5t14 -33.5q0 -19 -13.5 -32.5t-33.5 -13.5q-19 0 -32.5 13t-13.5 33zM337 626q0 20 13.5 33.5t33.5 13.5q19 0 32.5 -14t13.5 -33t-13.5 -32.5t-32.5 -13.5q-20 0 -33.5 13.5t-13.5 32.5zM63 240q0 113 65.5 181t171.5 68 q111 0 174.5 -64.5t63.5 -184.5q0 -107 -64.5 -178.5t-173.5 -71.5t-173 65t-64 185zM146 241q0 -186 152 -186q157 0 157 186q0 85 -38.5 134t-118.5 49q-76 0 -114 -49.5t-38 -133.5z" />
<glyph unicode="&#xf7;" d="M482 265h-365v58h365v-58zM253 424q0 20 13.5 33.5t32.5 13.5t33 -13.5t14 -33.5q0 -19 -13.5 -32.5t-33.5 -13.5q-19 0 -32.5 13t-13.5 33zM253 161q0 20 13.5 33.5t32.5 13.5t33 -14t14 -33t-13.5 -32.5t-33.5 -13.5q-19 0 -32.5 13.5t-13.5 32.5z" />
<glyph unicode="&#xf8;" d="M63 240q0 113 65.5 181t171.5 68q83 0 140 -36l22 28h59l-46 -58q63 -66 63 -183q0 -107 -64.5 -178.5t-173.5 -71.5q-82 0 -139 36l-23 -29h-58l46 58q-63 66 -63 185zM146 241q0 -79 28 -125l221 280q-37 28 -97 28q-76 0 -114 -49.5t-38 -133.5zM298 55q157 0 157 186 q0 75 -29 120l-221 -279q36 -27 93 -27z" />
<glyph unicode="&#xf9;" d="M421 117v360h79v-477h-73l-2 56q-77 -67 -167 -67q-32 0 -59.5 7t-55 24t-43 51.5t-15.5 83.5v322h79v-296q0 -68 28 -96.5t82 -28.5q70 0 147 61zM324 549l-144 115l49 53l128 -134z" />
<glyph unicode="&#xfa;" d="M422 664l-144 -115l-33 34l129 134zM421 117v360h79v-477h-73l-2 56q-77 -67 -167 -67q-32 0 -59.5 7t-55 24t-43 51.5t-15.5 83.5v322h79v-296q0 -68 28 -96.5t82 -28.5q70 0 147 61z" />
<glyph unicode="&#xfb;" d="M321 697l123 -117l-42 -40l-104 97l-104 -98l-40 39l124 119h43zM421 117v360h79v-477h-73l-2 56q-77 -67 -167 -67q-32 0 -59.5 7t-55 24t-43 51.5t-15.5 83.5v322h79v-296q0 -68 28 -96.5t82 -28.5q70 0 147 61z" />
<glyph unicode="&#xfc;" d="M172 626q0 20 13.5 33.5t32.5 13.5q20 0 33.5 -13.5t13.5 -33.5q0 -19 -13.5 -32.5t-33.5 -13.5t-33 13t-13 33zM346 626q0 20 14 33.5t33 13.5t32.5 -14t13.5 -33t-13.5 -32.5t-32.5 -13.5q-20 0 -33.5 13.5t-13.5 32.5zM421 117v360h79v-477h-73l-2 56 q-77 -67 -167 -67q-32 0 -59.5 7t-55 24t-43 51.5t-15.5 83.5v322h79v-296q0 -68 28 -96.5t82 -28.5q70 0 147 61z" />
<glyph unicode="&#xfd;" d="M529 477l-270 -697h-76l79 207l-191 490h83l151 -396l146 396h78zM424 664l-144 -115l-33 34l129 134z" />
<glyph unicode="&#xfe;" d="M265 -10q-49 0 -100 15v-225h-78v905h78v-265q74 69 151 69q94 0 145.5 -65t51.5 -175q0 -118 -68 -188.5t-180 -70.5zM165 358v-277q43 -26 98 -26q79 0 122.5 49t43.5 138q0 87 -36 132t-97 45q-64 0 -131 -61z" />
<glyph unicode="&#xff;" d="M529 477l-270 -697h-76l79 207l-191 490h83l151 -396l146 396h78zM171 626q0 20 13.5 33.5t32.5 13.5t33 -13.5t14 -33.5q0 -19 -13.5 -32.5t-33.5 -13.5q-19 0 -32.5 13t-13.5 33zM345 626q0 20 13.5 33.5t33.5 13.5q19 0 32.5 -14t13.5 -33t-13.5 -32.5t-32.5 -13.5 q-20 0 -33.5 13.5t-13.5 32.5z" />
<glyph unicode="&#x100;" d="M110 0h-81l227 650h86l228 -650h-85l-58 172h-261zM405 239l-109 326l-108 -326h217zM160 743v57h275v-57h-275z" />
<glyph unicode="&#x101;" d="M394 114v94q-42 6 -77 6q-146 0 -146 -81q0 -39 25 -59.5t69 -20.5q37 0 71.5 18t57.5 43zM394 264l1 64q0 54 -25 75.5t-78 21.5q-100 0 -100 -63q0 -10 3 -22l-71 -9q-6 18 -6 35q0 55 51.5 89t129.5 34q79 0 126.5 -35t46.5 -117l-1 -231q0 -53 36 -53q9 0 17 3l7 -59 q-25 -7 -47 -7q-73 0 -86 68q-64 -68 -159 -68q-65 0 -107 36t-42 98q0 55 37.5 89t86.5 44.5t111 10.5q27 0 69 -4zM173 598v57h246v-57h-246z" />
<glyph unicode="&#x102;" d="M110 0h-81l227 650h86l228 -650h-85l-58 172h-261zM405 239l-109 326l-108 -326h217zM369 836h52q0 -56 -32 -87.5t-91 -31.5q-61 0 -93 31.5t-32 87.5h54q0 -31 17.5 -50t53.5 -19q71 0 71 69z" />
<glyph unicode="&#x103;" d="M394 114v94q-42 6 -77 6q-146 0 -146 -81q0 -39 25 -59.5t69 -20.5q37 0 71.5 18t57.5 43zM394 264l1 64q0 54 -25 75.5t-78 21.5q-100 0 -100 -63q0 -10 3 -22l-71 -9q-6 18 -6 35q0 55 51.5 89t129.5 34q79 0 126.5 -35t46.5 -117l-1 -231q0 -53 36 -53q9 0 17 3l7 -59 q-25 -7 -47 -7q-73 0 -86 68q-64 -68 -159 -68q-65 0 -107 36t-42 98q0 55 37.5 89t86.5 44.5t111 10.5q27 0 69 -4zM359 689h52q0 -56 -32 -87.5t-91 -31.5q-61 0 -93 31.5t-32 87.5h54q0 -31 17.5 -50t53.5 -19q71 0 71 69z" />
<glyph unicode="&#x104;" d="M110 0h-81l227 650h86l228 -650h-40q-61 -49 -61 -109q0 -32 20 -49.5t48 -17.5q33 0 58 21l12 -47q-36 -25 -87 -25q-55 0 -85.5 30.5t-30.5 77.5q0 38 22 71t57 54l-56 166h-261zM405 239l-109 326l-108 -326h217z" />
<glyph unicode="&#x105;" d="M394 264l1 64q0 54 -25 75.5t-78 21.5q-100 0 -100 -63q0 -10 3 -22l-71 -9q-6 18 -6 35q0 55 51.5 89t129.5 34q79 0 126.5 -35t46.5 -117l-1 -231q0 -53 36 -53q9 0 17 3l7 -59q-25 -7 -47 -7q-7 0 -19 2q-51 -49 -51 -101q0 -32 20 -49.5t48 -17.5q32 0 58 21l12 -47 q-36 -25 -87 -25q-55 0 -85.5 30.5t-30.5 77.5q0 37 22 70.5t57 54.5q-24 18 -30 52q-64 -68 -159 -68q-65 0 -107 36t-42 98q0 55 37.5 89t86.5 44.5t111 10.5q27 0 69 -4zM394 114v94q-42 6 -77 6q-146 0 -146 -81q0 -39 25 -59.5t69 -20.5q37 0 71.5 18t57.5 43z" />
<glyph unicode="&#x106;" d="M524 98l20 -68q-76 -40 -189 -40q-141 0 -220.5 81t-79.5 250q0 161 84 249.5t225 88.5q108 0 171 -39l-27 -75q-54 44 -146 44q-110 0 -165.5 -68.5t-55.5 -197.5q0 -264 220 -264q47 0 92.5 11.5t70.5 27.5zM477 777l-175 -82l-23 41l164 106z" />
<glyph unicode="&#x107;" d="M454 664l-144 -115l-33 34l129 134zM195 233q0 -87 44.5 -132t122.5 -45q79 0 135 47l22 -65q-73 -48 -173 -48q-102 0 -168 61t-66 181q0 128 69 192.5t176 64.5q95 0 163 -41l-24 -72q-67 47 -138 47q-76 0 -119.5 -47.5t-43.5 -142.5z" />
<glyph unicode="&#x108;" d="M524 98l20 -68q-76 -40 -189 -40q-141 0 -220.5 81t-79.5 250q0 161 84 249.5t225 88.5q108 0 171 -39l-27 -75q-54 44 -146 44q-110 0 -165.5 -68.5t-55.5 -197.5q0 -264 220 -264q47 0 92.5 11.5t70.5 27.5zM382 845l119 -97l-35 -44l-108 82l-107 -82l-33 42l121 99 h43z" />
<glyph unicode="&#x109;" d="M369 697l123 -117l-42 -40l-104 97l-104 -98l-40 39l124 119h43zM195 233q0 -87 44.5 -132t122.5 -45q79 0 135 47l22 -65q-73 -48 -173 -48q-102 0 -168 61t-66 181q0 128 69 192.5t176 64.5q95 0 163 -41l-24 -72q-67 47 -138 47q-76 0 -119.5 -47.5t-43.5 -142.5z" />
<glyph unicode="&#x10a;" d="M300 780q0 20 14 34.5t34 14.5t34.5 -14.5t14.5 -34.5t-14.5 -34t-34.5 -14t-34 14t-14 34zM524 98l20 -68q-76 -40 -189 -40q-141 0 -220.5 81t-79.5 250q0 161 84 249.5t225 88.5q108 0 171 -39l-27 -75q-54 44 -146 44q-110 0 -165.5 -68.5t-55.5 -197.5 q0 -264 220 -264q47 0 92.5 11.5t70.5 27.5z" />
<glyph unicode="&#x10b;" d="M195 233q0 -87 44.5 -132t122.5 -45q79 0 135 47l22 -65q-73 -48 -173 -48q-102 0 -168 61t-66 181q0 128 69 192.5t176 64.5q95 0 163 -41l-24 -72q-67 47 -138 47q-76 0 -119.5 -47.5t-43.5 -142.5zM288 637q0 20 14 34t34 14t34.5 -14t14.5 -34t-14.5 -34t-34.5 -14 t-34 14t-14 34z" />
<glyph unicode="&#x10c;" d="M524 98l20 -68q-76 -40 -189 -40q-141 0 -220.5 81t-79.5 250q0 161 84 249.5t225 88.5q108 0 171 -39l-27 -75q-54 44 -146 44q-110 0 -165.5 -68.5t-55.5 -197.5q0 -264 220 -264q47 0 92.5 11.5t70.5 27.5zM333 705l-119 97l35 44l107 -82l107 82l34 -42l-121 -99h-43 z" />
<glyph unicode="&#x10d;" d="M323 539l-125 117l42 41l105 -99l103 99l40 -39l-122 -119h-43zM195 233q0 -87 44.5 -132t122.5 -45q79 0 135 47l22 -65q-73 -48 -173 -48q-102 0 -168 61t-66 181q0 128 69 192.5t176 64.5q95 0 163 -41l-24 -72q-67 47 -138 47q-76 0 -119.5 -47.5t-43.5 -142.5z" />
<glyph unicode="&#x10e;" d="M241 705l-119 97l35 44l107 -82l107 82l34 -42l-121 -99h-43zM64 0v650h216q67 0 118.5 -17.5t84.5 -46.5t54 -70.5t29.5 -87t8.5 -98.5q0 -72 -13 -127t-44.5 -103t-93 -74t-149.5 -26h-211zM280 580h-135v-509h139q65 0 107.5 19t63 56.5t27.5 78.5t7 100 q0 255 -209 255z" />
<glyph unicode="&#x10f;" d="M285 489q59 0 117 -16v212h79v-685h-74l-1 59q-33 -30 -80 -49.5t-89 -19.5q-94 0 -145.5 65t-51.5 175q0 119 67 189t178 70zM402 121v274q-47 28 -114 28q-79 0 -122 -49t-43 -137q0 -87 36.5 -132.5t97.5 -45.5q33 0 73.5 17t71.5 45zM523 506l26 179h68l-43 -179h-51 z" />
<glyph unicode="&#x110;" d="M64 0v299h-65v64h65v287h216q67 0 118.5 -17.5t84.5 -46.5t54 -70.5t29.5 -87t8.5 -98.5q0 -72 -13 -127t-44.5 -103t-93 -74t-149.5 -26h-211zM280 580h-135v-217h121v-64h-121v-228h139q65 0 107.5 19t63 56.5t27.5 78.5t7 100q0 255 -209 255z" />
<glyph unicode="&#x111;" d="M567 557h-54v-557h-74l-1 59q-33 -30 -80 -49.5t-89 -19.5q-94 0 -145.5 65t-51.5 175q0 119 67 189t178 70q59 0 117 -16v84h-178v57h178v71h79v-71h54v-57zM434 121v274q-47 28 -114 28q-79 0 -122 -49t-43 -137q0 -87 36.5 -132.5t97.5 -45.5q33 0 73.5 17t71.5 45z " />
<glyph unicode="&#x112;" d="M174 743v57h275v-57h-275zM85 650h441v-70h-360v-212h326v-69h-326v-228h360v-71h-441v650z" />
<glyph unicode="&#x113;" d="M350 55q37 0 79.5 15.5t63.5 33.5l21 -66q-77 -48 -183 -48q-105 0 -170 63t-65 187q0 118 64.5 183.5t158.5 65.5q93 0 148 -57.5t55 -173.5q0 -27 -1 -30h-344q4 -86 50 -129.5t123 -43.5zM179 283h263q1 65 -33 105t-90 40q-126 0 -140 -145zM199 598v57h246v-57h-246 z" />
<glyph unicode="&#x114;" d="M383 836h52q0 -56 -32 -87.5t-91 -31.5q-61 0 -93 31.5t-32 87.5h54q0 -31 17.5 -50t53.5 -19q71 0 71 69zM85 650h441v-70h-360v-212h326v-69h-326v-228h360v-71h-441v650z" />
<glyph unicode="&#x115;" d="M350 55q37 0 79.5 15.5t63.5 33.5l21 -66q-77 -48 -183 -48q-105 0 -170 63t-65 187q0 118 64.5 183.5t158.5 65.5q93 0 148 -57.5t55 -173.5q0 -27 -1 -30h-344q4 -86 50 -129.5t123 -43.5zM179 283h263q1 65 -33 105t-90 40q-126 0 -140 -145zM394 689h52 q0 -56 -32 -87.5t-91 -31.5q-61 0 -93 31.5t-32 87.5h54q0 -31 17.5 -50t53.5 -19q71 0 71 69z" />
<glyph unicode="&#x116;" d="M259 780q0 20 14 34.5t34 14.5t34.5 -14.5t14.5 -34.5t-14.5 -34t-34.5 -14t-34 14t-14 34zM85 650h441v-70h-360v-212h326v-69h-326v-228h360v-71h-441v650z" />
<glyph unicode="&#x117;" d="M350 55q37 0 79.5 15.5t63.5 33.5l21 -66q-77 -48 -183 -48q-105 0 -170 63t-65 187q0 118 64.5 183.5t158.5 65.5q93 0 148 -57.5t55 -173.5q0 -27 -1 -30h-344q4 -86 50 -129.5t123 -43.5zM179 283h263q1 65 -33 105t-90 40q-126 0 -140 -145zM267 637q0 20 14 34 t34 14t34.5 -14t14.5 -34t-14.5 -34t-34.5 -14t-34 14t-14 34z" />
<glyph unicode="&#x118;" d="M85 650h441v-70h-360v-212h326v-69h-326v-228h360v-71h-60q-61 -49 -61 -109q0 -32 20 -49.5t48 -17.5q33 0 58 21l12 -47q-36 -25 -87 -25q-55 0 -85.5 30.5t-30.5 77.5q0 70 70 119h-325v650z" />
<glyph unicode="&#x119;" d="M352 -109q0 -32 20 -49.5t48 -17.5q32 0 58 21l12 -47q-36 -25 -87 -25q-55 0 -85.5 30.5t-30.5 77.5q0 63 56 109h-12q-105 0 -170 63t-65 187q0 118 64.5 183.5t158.5 65.5q93 0 148 -57.5t55 -173.5q0 -27 -1 -30h-344q4 -86 50 -129.5t123 -43.5q37 0 79.5 15.5 t63.5 33.5l21 -66q-43 -28 -103 -39q-59 -51 -59 -108zM179 283h263q1 65 -33 105t-90 40q-126 0 -140 -145z" />
<glyph unicode="&#x11a;" d="M286 705l-119 97l35 44l107 -82l107 82l34 -42l-121 -99h-43zM85 650h441v-70h-360v-212h326v-69h-326v-228h360v-71h-441v650z" />
<glyph unicode="&#x11b;" d="M350 55q37 0 79.5 15.5t63.5 33.5l21 -66q-77 -48 -183 -48q-105 0 -170 63t-65 187q0 118 64.5 183.5t158.5 65.5q93 0 148 -57.5t55 -173.5q0 -27 -1 -30h-344q4 -86 50 -129.5t123 -43.5zM179 283h263q1 65 -33 105t-90 40q-126 0 -140 -145zM297 539l-125 117l42 41 l105 -99l103 99l40 -39l-122 -119h-43z" />
<glyph unicode="&#x11c;" d="M461 322h80v-269q-91 -63 -199 -63q-135 0 -213.5 78t-78.5 253q0 168 83 253t222 85q101 0 174 -40l-28 -78q-62 48 -147 48q-111 0 -164.5 -64t-53.5 -202q0 -141 55 -202.5t162 -61.5q54 0 108 24v239zM368 845l119 -97l-35 -44l-108 82l-107 -82l-33 42l121 99h43z " />
<glyph unicode="&#x11d;" d="M511 452v-440q0 -238 -239 -238q-97 0 -177 47l31 74q77 -55 154 -55q73 0 112.5 37.5t39.5 135.5v56q-34 -29 -79 -47t-86 -18q-92 0 -144.5 60.5t-52.5 166.5q0 119 68.5 188.5t181.5 69.5q105 0 191 -37zM432 135v268q-44 20 -114 20q-79 0 -121.5 -48.5t-42.5 -136.5 q0 -83 36.5 -123.5t96.5 -40.5q33 0 74 16.5t71 44.5zM339 697l123 -117l-42 -40l-104 97l-104 -98l-40 39l124 119h43z" />
<glyph unicode="&#x11e;" d="M461 322h80v-269q-91 -63 -199 -63q-135 0 -213.5 78t-78.5 253q0 168 83 253t222 85q101 0 174 -40l-28 -78q-62 48 -147 48q-111 0 -164.5 -64t-53.5 -202q0 -141 55 -202.5t162 -61.5q54 0 108 24v239zM408 836h52q0 -56 -32 -87.5t-91 -31.5q-61 0 -93 31.5t-32 87.5 h54q0 -31 17.5 -50t53.5 -19q71 0 71 69z" />
<glyph unicode="&#x11f;" d="M511 452v-440q0 -238 -239 -238q-97 0 -177 47l31 74q77 -55 154 -55q73 0 112.5 37.5t39.5 135.5v56q-34 -29 -79 -47t-86 -18q-92 0 -144.5 60.5t-52.5 166.5q0 119 68.5 188.5t181.5 69.5q105 0 191 -37zM432 135v268q-44 20 -114 20q-79 0 -121.5 -48.5t-42.5 -136.5 q0 -83 36.5 -123.5t96.5 -40.5q33 0 74 16.5t71 44.5zM379 689h52q0 -56 -32 -87.5t-91 -31.5q-61 0 -93 31.5t-32 87.5h54q0 -31 17.5 -50t53.5 -19q71 0 71 69z" />
<glyph unicode="&#x120;" d="M461 322h80v-269q-91 -63 -199 -63q-135 0 -213.5 78t-78.5 253q0 168 83 253t222 85q101 0 174 -40l-28 -78q-62 48 -147 48q-111 0 -164.5 -64t-53.5 -202q0 -141 55 -202.5t162 -61.5q54 0 108 24v239zM303 780q0 20 14 34.5t34 14.5t34.5 -14.5t14.5 -34.5t-14.5 -34 t-34.5 -14t-34 14t-14 34z" />
<glyph unicode="&#x121;" d="M511 452v-440q0 -238 -239 -238q-97 0 -177 47l31 74q77 -55 154 -55q73 0 112.5 37.5t39.5 135.5v56q-34 -29 -79 -47t-86 -18q-92 0 -144.5 60.5t-52.5 166.5q0 119 68.5 188.5t181.5 69.5q105 0 191 -37zM432 135v268q-44 20 -114 20q-79 0 -121.5 -48.5t-42.5 -136.5 q0 -83 36.5 -123.5t96.5 -40.5q33 0 74 16.5t71 44.5zM268 637q0 20 14 34t34 14t34.5 -14t14.5 -34t-14.5 -34t-34.5 -14t-34 14t-14 34z" />
<glyph unicode="&#x122;" d="M461 322h80v-269q-91 -63 -199 -63q-135 0 -213.5 78t-78.5 253q0 168 83 253t222 85q101 0 174 -40l-28 -78q-62 48 -147 48q-111 0 -164.5 -64t-53.5 -202q0 -141 55 -202.5t162 -61.5q54 0 108 24v239zM327 -65h65q-4 -91 -57 -176l-49 15q41 78 41 161z" />
<glyph unicode="&#x123;" d="M511 452v-440q0 -238 -239 -238q-97 0 -177 47l31 74q77 -55 154 -55q73 0 112.5 37.5t39.5 135.5v56q-34 -29 -79 -47t-86 -18q-92 0 -144.5 60.5t-52.5 166.5q0 119 68.5 188.5t181.5 69.5q105 0 191 -37zM432 135v268q-44 20 -114 20q-79 0 -121.5 -48.5t-42.5 -136.5 q0 -83 36.5 -123.5t96.5 -40.5q33 0 74 16.5t71 44.5zM334 552h-65q4 91 57 176l49 -15q-41 -78 -41 -161z" />
<glyph unicode="&#x124;" d="M455 650h81v-650h-81v298h-310v-298h-81v650h81v-280h310v280zM329 845l119 -97l-35 -44l-108 82l-107 -82l-33 42l121 99h43z" />
<glyph unicode="&#x125;" d="M161 839l123 -117l-42 -40l-104 97l-104 -98l-40 39l124 119h43zM177 361v-361h-79v685h79v-260q77 64 167 64q70 0 120.5 -37.5t50.5 -128.5v-323h-78v294q0 68 -28 96t-83 28q-76 0 -149 -57z" />
<glyph unicode="&#x126;" d="M455 650h81v-103h48v-61h-48v-486h-81v298h-310v-298h-81v486h-46v61h46v103h81v-103h310v103zM145 370h310v116h-310v-116z" />
<glyph unicode="&#x127;" d="M177 361v-361h-79v552h-69v57h69v76h79v-76h163v-57h-163v-127q77 64 167 64q70 0 120.5 -37.5t50.5 -128.5v-323h-78v294q0 68 -28 96t-83 28q-76 0 -149 -57z" />
<glyph unicode="&#x128;" d="M79 0v71h180v508h-180v71h448v-71h-187v-508h187v-71h-448zM170 726l-28 29q46 62 97 62q27 0 67.5 -14.5t59.5 -14.5q39 0 65 31l27 -30q-43 -61 -96 -61q-21 0 -62.5 15.5t-61.5 15.5q-40 0 -68 -33z" />
<glyph unicode="&#x129;" d="M81 0v65h177v347h-177v65h257v-65h-1v-347h182v-65h-438zM172 580l-28 30q48 62 97 62q27 0 60.5 -14.5t52.5 -14.5q40 0 65 31l27 -30q-42 -61 -96 -61q-21 0 -55 15t-54 15q-43 0 -69 -33z" />
<glyph unicode="&#x12a;" d="M79 0v71h180v508h-180v71h448v-71h-187v-508h187v-71h-448zM163 743v57h275v-57h-275z" />
<glyph unicode="&#x12b;" d="M81 0v65h177v347h-177v65h257v-65h-1v-347h182v-65h-438zM169 598v57h246v-57h-246z" />
<glyph unicode="&#x12c;" d="M79 0v71h180v508h-180v71h448v-71h-187v-508h187v-71h-448zM371 836h52q0 -56 -32 -87.5t-91 -31.5q-61 0 -93 31.5t-32 87.5h54q0 -31 17.5 -50t53.5 -19q71 0 71 69z" />
<glyph unicode="&#x12d;" d="M81 0v65h177v347h-177v65h257v-65h-1v-347h182v-65h-438zM369 689h52q0 -56 -32 -87.5t-91 -31.5q-61 0 -93 31.5t-32 87.5h54q0 -31 17.5 -50t53.5 -19q71 0 71 69z" />
<glyph unicode="&#x12e;" d="M79 0v71h180v508h-180v71h448v-71h-187v-508h187v-71h-215q-61 -49 -61 -109q0 -32 20 -49.5t48 -17.5q33 0 58 21l12 -47q-36 -25 -87 -25q-55 0 -85.5 30.5t-30.5 77.5q0 70 70 119h-177z" />
<glyph unicode="&#x12f;" d="M81 0v65h177v347h-177v65h257v-65h-1v-347h182v-65h-213q-61 -49 -61 -109q0 -32 20 -49.5t48 -17.5q33 0 58 21l12 -47q-36 -25 -87 -25q-55 0 -85.5 30.5t-30.5 77.5q0 70 70 119h-169zM250 640q0 21 14 35.5t35 14.5t35.5 -14.5t14.5 -35.5t-14.5 -35t-35.5 -14 t-35 14t-14 35z" />
<glyph unicode="&#x130;" d="M79 0v71h180v508h-180v71h448v-71h-187v-508h187v-71h-448zM251 780q0 20 14 34.5t34 14.5t34.5 -14.5t14.5 -34.5t-14.5 -34t-34.5 -14t-34 14t-14 34z" />
<glyph unicode="&#x131;" d="M81 0v65h177v347h-177v65h257v-65h-1v-347h182v-65h-438z" />
<glyph unicode="&#x132;" horiz-adv-x="1200" d="M79 0v71h180v508h-180v71h448v-71h-187v-508h187v-71h-448zM694 579v71h381v-385q0 -269 -354 -303l-13 70q116 16 171 43q115 57 115 197v307h-300z" />
<glyph unicode="&#x133;" horiz-adv-x="1200" d="M687 412v65h336v-449q0 -252 -335 -252l-3 69q32 0 55 1.5t57 7t57 18.5t45.5 34t34 55.5t11.5 79.5v371h-258zM81 0v65h177v347h-177v65h257v-65h-1v-347h182v-65h-438zM936 640q0 21 14.5 35.5t35.5 14.5q20 0 35 -14.5t15 -35.5t-14.5 -35t-35.5 -14t-35.5 14 t-14.5 35zM250 640q0 21 14 35.5t35 14.5t35.5 -14.5t14.5 -35.5t-14.5 -35t-35.5 -14t-35 14t-14 35z" />
<glyph unicode="&#x134;" d="M94 579v71h381v-385q0 -269 -354 -303l-13 70q116 16 171 43q115 57 115 197v307h-300zM344 845l119 -97l-35 -44l-108 82l-107 -82l-33 42l121 99h43z" />
<glyph unicode="&#x135;" d="M87 412v65h336v-449q0 -252 -335 -252l-3 69q32 0 55 1.5t57 7t57 18.5t45.5 34t34 55.5t11.5 79.5v371h-258zM386 697l123 -117l-42 -40l-104 97l-104 -98l-40 39l124 119h43z" />
<glyph unicode="&#x136;" d="M79 650h81v-298l66 14l209 284h95l-242 -316l267 -334h-101l-236 294l-58 -10v-284h-81v650zM247 -65h65q-4 -91 -57 -176l-49 15q41 78 41 161z" />
<glyph unicode="&#x137;" d="M307 254l215 -254h-99l-177 214l-66 -11v-203h-78v685h78v-419l64 12l160 199h88zM255 -65h65q-4 -91 -57 -176l-49 15q41 78 41 161z" />
<glyph unicode="&#x139;" d="M289 777l-175 -82l-23 41l164 106zM100 650h81v-579h349v-71h-430v650z" />
<glyph unicode="&#x13a;" d="M76 0v65h184v555h-176v65h255v-620h175v-65h-438zM431 797l-175 -82l-23 41l164 106z" />
<glyph unicode="&#x13b;" d="M289 -65h65q-4 -91 -57 -176l-49 15q41 78 41 161zM100 650h81v-579h349v-71h-430v650z" />
<glyph unicode="&#x13c;" d="M76 0v65h184v555h-176v65h255v-620h175v-65h-438zM270 -65h65q-4 -91 -57 -176l-49 15q41 78 41 161z" />
<glyph unicode="&#x13d;" d="M346 480l26 179h68l-43 -179h-51zM100 650h81v-579h349v-71h-430v650z" />
<glyph unicode="&#x13e;" d="M76 0v65h184v555h-176v65h255v-620h175v-65h-438zM387 507l26 179h68l-43 -179h-51z" />
<glyph unicode="&#x13f;" d="M100 650h81v-579h349v-71h-430v650zM382 346q0 23 14 35.5t38 12.5t38.5 -12t14.5 -36q0 -49 -53 -49q-52 0 -52 49z" />
<glyph unicode="&#x140;" d="M76 0v65h184v555h-176v65h255v-620h175v-65h-438zM408 318q0 23 14 35.5t38 12.5t38.5 -12t14.5 -36q0 -49 -53 -49q-52 0 -52 49z" />
<glyph unicode="&#x141;" d="M100 650h81v-303l108 59l25 -49l-133 -72v-214h349v-71h-430v241l-54 -29l-25 49l79 42v347z" />
<glyph unicode="&#x142;" d="M84 620v65h255v-304l90 51l23 -49l-113 -63v-255h175v-65h-438v65h184v211l-91 -50l-23 47l114 64v283h-176z" />
<glyph unicode="&#x143;" d="M440 777l-175 -82l-23 41l164 106zM136 531v-531h-77v650h89l317 -521v521h76v-650h-83z" />
<glyph unicode="&#x144;" d="M414 664l-144 -115l-33 34l129 134zM177 361v-361h-79v477h74l1 -55q77 67 171 67q70 0 120.5 -37.5t50.5 -128.5v-323h-78v294q0 68 -28 96t-83 28q-76 0 -149 -57z" />
<glyph unicode="&#x145;" d="M272 -65h65q-4 -91 -57 -176l-49 15q41 78 41 161zM136 531v-531h-77v650h89l317 -521v521h76v-650h-83z" />
<glyph unicode="&#x146;" d="M268 -65h65q-4 -91 -57 -176l-49 15q41 78 41 161zM177 361v-361h-79v477h74l1 -55q77 67 171 67q70 0 120.5 -37.5t50.5 -128.5v-323h-78v294q0 68 -28 96t-83 28q-76 0 -149 -57z" />
<glyph unicode="&#x147;" d="M288 705l-119 97l35 44l107 -82l107 82l34 -42l-121 -99h-43zM136 531v-531h-77v650h89l317 -521v521h76v-650h-83z" />
<glyph unicode="&#x148;" d="M282 539l-125 117l42 41l105 -99l103 99l40 -39l-122 -119h-43zM177 361v-361h-79v477h74l1 -55q77 67 171 67q70 0 120.5 -37.5t50.5 -128.5v-323h-78v294q0 68 -28 96t-83 28q-76 0 -149 -57z" />
<glyph unicode="&#x149;" d="M134 749h69q-4 -105 -72 -209l-51 14q51 98 54 195zM177 361v-361h-79v477h74l1 -55q77 67 171 67q70 0 120.5 -37.5t50.5 -128.5v-323h-78v294q0 68 -28 96t-83 28q-76 0 -149 -57z" />
<glyph unicode="&#x14a;" d="M541 650v-612q0 -73 -19 -124.5t-54.5 -79.5t-74.5 -41.5t-91 -18.5l-13 70q83 7 123.5 42t47.5 113l-324 532v-531h-77v650h89l317 -521v521h76z" />
<glyph unicode="&#x14b;" d="M263 -224l-8 68q88 4 135 42.5t47 140.5v267q0 68 -28 96t-83 28q-76 0 -149 -57v-361h-79v477h74l1 -55q77 67 171 67q70 0 120.5 -37.5t50.5 -128.5v-311q0 -68 -22 -116t-60 -73t-79.5 -36t-90.5 -11z" />
<glyph unicode="&#x14c;" d="M168 743v57h275v-57h-275zM301 659q140 0 205.5 -84t65.5 -251q0 -150 -71.5 -242t-203.5 -92q-269 0 -269 333q0 156 69 246t204 90zM297 60q189 0 189 264q0 135 -41 200t-144 65q-104 0 -145.5 -64t-41.5 -202q0 -133 39.5 -198t143.5 -65z" />
<glyph unicode="&#x14d;" d="M176 598v57h246v-57h-246zM63 240q0 113 65.5 181t171.5 68q111 0 174.5 -64.5t63.5 -184.5q0 -107 -64.5 -178.5t-173.5 -71.5t-173 65t-64 185zM146 241q0 -186 152 -186q157 0 157 186q0 85 -38.5 134t-118.5 49q-76 0 -114 -49.5t-38 -133.5z" />
<glyph unicode="&#x14e;" d="M374 836h52q0 -56 -32 -87.5t-91 -31.5q-61 0 -93 31.5t-32 87.5h54q0 -31 17.5 -50t53.5 -19q71 0 71 69zM301 659q140 0 205.5 -84t65.5 -251q0 -150 -71.5 -242t-203.5 -92q-269 0 -269 333q0 156 69 246t204 90zM297 60q189 0 189 264q0 135 -41 200t-144 65 q-104 0 -145.5 -64t-41.5 -202q0 -133 39.5 -198t143.5 -65z" />
<glyph unicode="&#x14f;" d="M63 240q0 113 65.5 181t171.5 68q111 0 174.5 -64.5t63.5 -184.5q0 -107 -64.5 -178.5t-173.5 -71.5t-173 65t-64 185zM146 241q0 -186 152 -186q157 0 157 186q0 85 -38.5 134t-118.5 49q-76 0 -114 -49.5t-38 -133.5zM372 689h52q0 -56 -32 -87.5t-91 -31.5 q-61 0 -93 31.5t-32 87.5h54q0 -31 17.5 -50t53.5 -19q71 0 71 69z" />
<glyph unicode="&#x150;" d="M301 659q140 0 205.5 -84t65.5 -251q0 -150 -71.5 -242t-203.5 -92q-269 0 -269 333q0 156 69 246t204 90zM297 60q189 0 189 264q0 135 -41 200t-144 65q-104 0 -145.5 -64t-41.5 -202q0 -133 39.5 -198t143.5 -65zM369 808l-166 -113l-29 36l151 137zM519 760l-179 -65 l-20 41l170 91z" />
<glyph unicode="&#x151;" d="M340 672l-131 -122l-35 32l115 138zM497 664l-136 -115l-33 34l121 134zM63 240q0 113 65.5 181t171.5 68q111 0 174.5 -64.5t63.5 -184.5q0 -107 -64.5 -178.5t-173.5 -71.5t-173 65t-64 185zM146 241q0 -186 152 -186q157 0 157 186q0 85 -38.5 134t-118.5 49 q-76 0 -114 -49.5t-38 -133.5z" />
<glyph unicode="&#x152;" d="M257 659q39 0 73 -9h250v-70h-184v-212h151v-69h-151v-228h184v-71h-253q-42 -10 -75 -10q-128 0 -180 84t-52 248q0 156 57.5 246.5t179.5 90.5zM252 58q38 0 66 8v515q-28 9 -61 9q-151 0 -151 -268q0 -129 33.5 -196.5t112.5 -67.5z" />
<glyph unicode="&#x153;" d="M6 240q0 114 42.5 181.5t122.5 67.5q106 0 142 -100q35 100 127 100q154 0 154 -231q0 -27 -1 -30h-247q5 -176 122 -176q53 0 99 46l21 -60q-56 -48 -129 -48q-106 0 -149 102q-45 -102 -138 -102q-166 0 -166 250zM74 240q0 -91 22 -139.5t76 -48.5q105 0 105 188 q0 187 -105 187q-98 0 -98 -187zM346 283h183q2 69 -21.5 108t-67.5 39q-45 0 -67 -36t-27 -111z" />
<glyph unicode="&#x154;" d="M81 0v650h210q120 0 173.5 -49.5t53.5 -149.5q0 -67 -32 -114t-89 -68l154 -269h-96l-140 253h-153v-253h-81zM293 322q140 0 140 126q0 71 -34 101.5t-111 30.5h-126v-258h131zM400 777l-175 -82l-23 41l164 106z" />
<glyph unicode="&#x155;" d="M47 0v65h167v347h-155v65h228l2 -92q32 45 81 72t96 27q13 0 28 -3l-6 -80q-18 6 -39 6q-38 0 -84.5 -25.5t-72.5 -57.5v-259h211v-65h-456zM409 664l-144 -115l-33 34l129 134z" />
<glyph unicode="&#x156;" d="M81 0v650h210q120 0 173.5 -49.5t53.5 -149.5q0 -67 -32 -114t-89 -68l154 -269h-96l-140 253h-153v-253h-81zM293 322q140 0 140 126q0 71 -34 101.5t-111 30.5h-126v-258h131zM257 -65h65q-4 -91 -57 -176l-49 15q41 78 41 161z" />
<glyph unicode="&#x157;" d="M47 0v65h167v347h-155v65h228l2 -92q32 45 81 72t96 27q13 0 28 -3l-6 -80q-18 6 -39 6q-38 0 -84.5 -25.5t-72.5 -57.5v-259h211v-65h-456zM224 -65h65q-4 -91 -57 -176l-49 15q41 78 41 161z" />
<glyph unicode="&#x158;" d="M81 0v650h210q120 0 173.5 -49.5t53.5 -149.5q0 -67 -32 -114t-89 -68l154 -269h-96l-140 253h-153v-253h-81zM293 322q140 0 140 126q0 71 -34 101.5t-111 30.5h-126v-258h131zM255 705l-119 97l35 44l107 -82l107 82l34 -42l-121 -99h-43z" />
<glyph unicode="&#x159;" d="M47 0v65h167v347h-155v65h228l2 -92q32 45 81 72t96 27q13 0 28 -3l-6 -80q-18 6 -39 6q-38 0 -84.5 -25.5t-72.5 -57.5v-259h211v-65h-456zM281 539l-125 117l42 41l105 -99l103 99l40 -39l-122 -119h-43z" />
<glyph unicode="&#x15a;" d="M438 161q0 37 -19 63.5t-49.5 43t-67.5 30t-74 28.5t-67.5 34t-49.5 52t-19 77q0 75 63.5 122.5t161.5 47.5q110 0 185 -44l-25 -79q-66 53 -157 53q-143 0 -143 -94q0 -41 35.5 -68.5t86.5 -45t102.5 -38.5t87 -64t35.5 -108q0 -88 -67 -134.5t-169 -46.5 q-117 0 -210 56l28 79q80 -67 190 -67q64 0 103 25.5t39 77.5zM433 777l-175 -82l-23 41l164 106z" />
<glyph unicode="&#x15b;" d="M411 664l-144 -115l-33 34l129 134zM414 125q0 35 -30.5 56t-74 32t-87.5 24.5t-74.5 42.5t-30.5 76q0 66 57 99.5t137 33.5q110 0 171 -36l-22 -72q-16 16 -59.5 30t-85.5 14q-118 0 -118 -64q0 -27 30.5 -44.5t74.5 -29t88 -26.5t74.5 -47.5t30.5 -82.5t-33 -83 t-78 -45.5t-100 -12.5q-116 0 -177 40l22 72q62 -48 157 -48q53 0 90.5 17.5t37.5 53.5z" />
<glyph unicode="&#x15c;" d="M438 161q0 37 -19 63.5t-49.5 43t-67.5 30t-74 28.5t-67.5 34t-49.5 52t-19 77q0 75 63.5 122.5t161.5 47.5q110 0 185 -44l-25 -79q-66 53 -157 53q-143 0 -143 -94q0 -41 35.5 -68.5t86.5 -45t102.5 -38.5t87 -64t35.5 -108q0 -88 -67 -134.5t-169 -46.5 q-117 0 -210 56l28 79q80 -67 190 -67q64 0 103 25.5t39 77.5zM331 845l119 -97l-35 -44l-108 82l-107 -82l-33 42l121 99h43z" />
<glyph unicode="&#x15d;" d="M334 697l123 -117l-42 -40l-104 97l-104 -98l-40 39l124 119h43zM414 125q0 35 -30.5 56t-74 32t-87.5 24.5t-74.5 42.5t-30.5 76q0 66 57 99.5t137 33.5q110 0 171 -36l-22 -72q-16 16 -59.5 30t-85.5 14q-118 0 -118 -64q0 -27 30.5 -44.5t74.5 -29t88 -26.5 t74.5 -47.5t30.5 -82.5t-33 -83t-78 -45.5t-100 -12.5q-116 0 -177 40l22 72q62 -48 157 -48q53 0 90.5 17.5t37.5 53.5z" />
<glyph unicode="&#x15e;" d="M202 -204l21 52q23 -27 66 -27q24 0 37.5 10.5t13.5 26.5q0 22 -22 36t-65 16l22 80q-114 4 -197 56l28 79q80 -67 190 -67q64 0 103 25.5t39 77.5q0 37 -19 63.5t-49.5 43t-67.5 30t-74 28.5t-67.5 34t-49.5 52t-19 77q0 75 63.5 122.5t161.5 47.5q110 0 185 -44 l-25 -79q-66 53 -157 53q-143 0 -143 -94q0 -41 35.5 -68.5t86.5 -45t102.5 -38.5t87 -64t35.5 -108q0 -80 -56 -126t-144 -53l-13 -49q44 -7 67.5 -31t23.5 -55q0 -36 -32 -60.5t-81 -24.5t-87 24z" />
<glyph unicode="&#x15f;" d="M192 -204l21 52q23 -27 66 -27q24 0 37.5 10.5t13.5 26.5q0 22 -22 36t-65 16l23 80q-106 5 -159 40l22 72q62 -48 157 -48q53 0 90.5 17.5t37.5 53.5q0 35 -30.5 56t-74 32t-87.5 24.5t-74.5 42.5t-30.5 76q0 66 57 99.5t137 33.5q110 0 171 -36l-22 -72 q-16 16 -59.5 30t-85.5 14q-118 0 -118 -64q0 -27 30.5 -44.5t74.5 -29t88 -26.5t74.5 -47.5t30.5 -82.5q0 -67 -51.5 -100.5t-129.5 -39.5l-13 -48q44 -7 67.5 -31t23.5 -55q0 -36 -32 -60.5t-81 -24.5t-87 24z" />
<glyph unicode="&#x160;" d="M438 161q0 37 -19 63.5t-49.5 43t-67.5 30t-74 28.5t-67.5 34t-49.5 52t-19 77q0 75 63.5 122.5t161.5 47.5q110 0 185 -44l-25 -79q-66 53 -157 53q-143 0 -143 -94q0 -41 35.5 -68.5t86.5 -45t102.5 -38.5t87 -64t35.5 -108q0 -88 -67 -134.5t-169 -46.5 q-117 0 -210 56l28 79q80 -67 190 -67q64 0 103 25.5t39 77.5zM289 705l-119 97l35 44l107 -82l107 82l34 -42l-121 -99h-43z" />
<glyph unicode="&#x161;" d="M284 539l-125 117l42 41l105 -99l103 99l40 -39l-122 -119h-43zM414 125q0 35 -30.5 56t-74 32t-87.5 24.5t-74.5 42.5t-30.5 76q0 66 57 99.5t137 33.5q110 0 171 -36l-22 -72q-16 16 -59.5 30t-85.5 14q-118 0 -118 -64q0 -27 30.5 -44.5t74.5 -29t88 -26.5t74.5 -47.5 t30.5 -82.5t-33 -83t-78 -45.5t-100 -12.5q-116 0 -177 40l22 72q62 -48 157 -48q53 0 90.5 17.5t37.5 53.5z" />
<glyph unicode="&#x162;" d="M270 -65h65q-4 -91 -57 -176l-49 15q41 78 41 161zM565 650v-70h-224v-580h-81v580h-225v70h530z" />
<glyph unicode="&#x163;" d="M312 -65h65q-4 -91 -57 -176l-49 15q41 78 41 161zM261 411v-252q0 -58 24.5 -80.5t73.5 -22.5q56 0 114 38l17 -66q-67 -38 -149 -38q-159 0 -159 159v262h-113v56l114 5l10 129h68v-130h206v-60h-206z" />
<glyph unicode="&#x164;" d="M277 705l-119 97l35 44l107 -82l107 82l34 -42l-121 -99h-43zM565 650v-70h-224v-580h-81v580h-225v70h530z" />
<glyph unicode="&#x165;" d="M425 538l26 179h68l-43 -179h-51zM261 411v-252q0 -58 24.5 -80.5t73.5 -22.5q56 0 114 38l17 -66q-67 -38 -149 -38q-159 0 -159 159v262h-113v56l114 5l10 129h68v-130h206v-60h-206z" />
<glyph unicode="&#x166;" d="M565 650v-70h-224v-228h132v-63h-132v-289h-81v289h-126v63h126v228h-225v70h530z" />
<glyph unicode="&#x167;" d="M261 227v-68q0 -58 24.5 -80.5t73.5 -22.5q56 0 114 38l17 -66q-67 -38 -149 -38q-159 0 -159 159v78h-93v56h93v128h-113v56l114 5l10 129h68v-130h206v-60h-206v-128h191v-56h-191z" />
<glyph unicode="&#x168;" d="M181 726l-28 29q47 62 97 62q27 0 67.5 -14.5t59.5 -14.5q39 0 65 31l27 -30q-43 -61 -96 -61q-21 0 -62.5 15.5t-61.5 15.5q-40 0 -68 -33zM458 251v399h79v-407q0 -121 -55 -187t-184 -66t-182.5 60.5t-53.5 184.5v415h80v-406q0 -104 36 -145t123 -41q88 0 122.5 44 t34.5 149z" />
<glyph unicode="&#x169;" d="M421 117v360h79v-477h-73l-2 56q-77 -67 -167 -67q-32 0 -59.5 7t-55 24t-43 51.5t-15.5 83.5v322h79v-296q0 -68 28 -96.5t82 -28.5q70 0 147 61zM178 580l-28 30q48 62 97 62q27 0 60.5 -14.5t52.5 -14.5q40 0 65 31l27 -30q-42 -61 -96 -61q-21 0 -55 15t-54 15 q-43 0 -69 -33z" />
<glyph unicode="&#x16a;" d="M167 743v57h275v-57h-275zM458 251v399h79v-407q0 -121 -55 -187t-184 -66t-182.5 60.5t-53.5 184.5v415h80v-406q0 -104 36 -145t123 -41q88 0 122.5 44t34.5 149z" />
<glyph unicode="&#x16b;" d="M421 117v360h79v-477h-73l-2 56q-77 -67 -167 -67q-32 0 -59.5 7t-55 24t-43 51.5t-15.5 83.5v322h79v-296q0 -68 28 -96.5t82 -28.5q70 0 147 61zM179 598v57h246v-57h-246z" />
<glyph unicode="&#x16c;" d="M372 836h52q0 -56 -32 -87.5t-91 -31.5q-61 0 -93 31.5t-32 87.5h54q0 -31 17.5 -50t53.5 -19q71 0 71 69zM458 251v399h79v-407q0 -121 -55 -187t-184 -66t-182.5 60.5t-53.5 184.5v415h80v-406q0 -104 36 -145t123 -41q88 0 122.5 44t34.5 149z" />
<glyph unicode="&#x16d;" d="M421 117v360h79v-477h-73l-2 56q-77 -67 -167 -67q-32 0 -59.5 7t-55 24t-43 51.5t-15.5 83.5v322h79v-296q0 -68 28 -96.5t82 -28.5q70 0 147 61zM371 689h52q0 -56 -32 -87.5t-91 -31.5q-61 0 -93 31.5t-32 87.5h54q0 -31 17.5 -50t53.5 -19q71 0 71 69z" />
<glyph unicode="&#x16e;" d="M458 251v399h79v-407q0 -121 -55 -187t-184 -66t-182.5 60.5t-53.5 184.5v415h80v-406q0 -104 36 -145t123 -41q88 0 122.5 44t34.5 149zM302 686q-46 0 -74.5 27t-28.5 71t30.5 70.5t74.5 26.5q45 0 73.5 -26t28.5 -71q0 -41 -29 -69.5t-75 -28.5zM302 727q53 0 53 57 t-53 57t-53 -57t53 -57z" />
<glyph unicode="&#x16f;" d="M306 542q-46 0 -74.5 27t-28.5 71t30.5 70t74.5 26q46 0 74 -25.5t28 -70.5q0 -41 -29 -69.5t-75 -28.5zM306 583q53 0 53 57q0 56 -53 56t-53 -56q0 -57 53 -57zM421 117v360h79v-477h-73l-2 56q-77 -67 -167 -67q-32 0 -59.5 7t-55 24t-43 51.5t-15.5 83.5v322h79v-296 q0 -68 28 -96.5t82 -28.5q70 0 147 61z" />
<glyph unicode="&#x170;" d="M458 251v399h79v-407q0 -121 -55 -187t-184 -66t-182.5 60.5t-53.5 184.5v415h80v-406q0 -104 36 -145t123 -41q88 0 122.5 44t34.5 149zM356 808l-166 -113l-29 36l151 137zM506 760l-179 -65l-20 41l170 91z" />
<glyph unicode="&#x171;" d="M421 117v360h79v-477h-73l-2 56q-77 -67 -167 -67q-32 0 -59.5 7t-55 24t-43 51.5t-15.5 83.5v322h79v-296q0 -68 28 -96.5t82 -28.5q70 0 147 61zM340 672l-131 -122l-35 32l115 138zM497 664l-136 -115l-33 34l121 134z" />
<glyph unicode="&#x172;" d="M458 251v399h79v-407q0 -208 -158 -244q-28 -19 -50 -51.5t-22 -66.5q0 -32 20 -49.5t48 -17.5q33 0 58 21l12 -47q-36 -25 -87 -25q-55 0 -85.5 30.5t-30.5 77.5q0 70 70 119h-14q-129 0 -182.5 60.5t-53.5 184.5v415h80v-406q0 -104 36 -145t123 -41q88 0 122.5 44 t34.5 149z" />
<glyph unicode="&#x173;" d="M421 117v360h79v-477h-37q-61 -49 -61 -109q0 -32 20 -49.5t48 -17.5q32 0 58 21l12 -47q-36 -25 -87 -25q-55 0 -85.5 30.5t-30.5 77.5q0 40 25 75t64 56l-1 44q-77 -67 -167 -67q-32 0 -59.5 7t-55 24t-43 51.5t-15.5 83.5v322h79v-296q0 -68 28 -96.5t82 -28.5 q70 0 147 61z" />
<glyph unicode="&#x174;" d="M340 476l114 -382l56 556h77l-87 -650h-82l-115 382l-102 -382h-83l-105 650h82l71 -557l103 383h71zM328 845l119 -97l-35 -44l-108 82l-107 -82l-33 42l121 99h43z" />
<glyph unicode="&#x175;" d="M324 697l123 -117l-42 -40l-104 97l-104 -98l-40 39l124 119h43zM202 0h-84l-100 477h78l69 -411l104 346h66l106 -346l68 411h75l-103 -477h-84l-98 324z" />
<glyph unicode="&#x176;" d="M132 650l178 -329l163 329h80l-205 -397v-253h-81v251l-221 399h86zM333 845l119 -97l-35 -44l-108 82l-107 -82l-33 42l121 99h43z" />
<glyph unicode="&#x177;" d="M529 477l-270 -697h-76l79 207l-191 490h83l151 -396l146 396h78zM323 697l123 -117l-42 -40l-104 97l-104 -98l-40 39l124 119h43z" />
<glyph unicode="&#x178;" d="M132 650l178 -329l163 329h80l-205 -397v-253h-81v251l-221 399h86zM354 774q0 20 13.5 33.5t32.5 13.5q20 0 33.5 -13.5t13.5 -33.5q0 -19 -13.5 -32.5t-33.5 -13.5t-33 13t-13 33zM174 774q0 20 13.5 33.5t32.5 13.5q20 0 33.5 -13.5t13.5 -33.5q0 -19 -13.5 -32.5 t-33.5 -13.5t-33 13t-13 33z" />
<glyph unicode="&#x179;" d="M86 580v70h445v-62l-368 -518h377v-70h-473v56l370 524h-351zM431 777l-175 -82l-23 41l164 106z" />
<glyph unicode="&#x17a;" d="M413 664l-144 -115l-33 34l129 134zM184 65h323v-65h-425v48l298 364h-282v65h390v-48z" />
<glyph unicode="&#x17b;" d="M269 780q0 20 14 34.5t34 14.5t34.5 -14.5t14.5 -34.5t-14.5 -34t-34.5 -14t-34 14t-14 34zM86 580v70h445v-62l-368 -518h377v-70h-473v56l370 524h-351z" />
<glyph unicode="&#x17c;" d="M184 65h323v-65h-425v48l298 364h-282v65h390v-48zM253 637q0 20 14 34t34 14t34.5 -14t14.5 -34t-14.5 -34t-34.5 -14t-34 14t-14 34z" />
<glyph unicode="&#x17d;" d="M293 705l-119 97l35 44l107 -82l107 82l34 -42l-121 -99h-43zM86 580v70h445v-62l-368 -518h377v-70h-473v56l370 524h-351z" />
<glyph unicode="&#x17e;" d="M277 539l-125 117l42 41l105 -99l103 99l40 -39l-122 -119h-43zM184 65h323v-65h-425v48l298 364h-282v65h390v-48z" />
<glyph unicode="&#x18f;" d="M272 590q-57 0 -111.5 -21.5t-84.5 -46.5l-31 66q42 30 104.5 50.5t129.5 20.5q283 0 283 -336q0 -154 -78 -243.5t-199 -89.5q-247 0 -247 305v41h440q-6 254 -206 254zM287 59q81 0 129.5 54.5t58.5 155.5h-347q-3 -93 36.5 -151.5t122.5 -58.5z" />
<glyph unicode="&#x192;" d="M250 295h-111v57h113l5 142q4 103 52.5 152t126.5 49q55 0 96 -18l-20 -74q-37 24 -75 24q-52 0 -76 -32.5t-26 -98.5l-5 -144h180v-57h-182l-11 -338q-4 -94 -45 -138.5t-109 -44.5q-47 0 -96 18l20 70q43 -23 75 -23q73 0 77 119z" />
<glyph unicode="&#x1d3;" d="M281 705l-119 97l35 44l107 -82l107 82l34 -42l-121 -99h-43zM458 251v399h79v-407q0 -121 -55 -187t-184 -66t-182.5 60.5t-53.5 184.5v415h80v-406q0 -104 36 -145t123 -41q88 0 122.5 44t34.5 149z" />
<glyph unicode="&#x1d4;" d="M280 540l-125 117l42 41l105 -99l103 99l40 -39l-122 -119h-43zM421 117v360h79v-477h-73l-2 56q-77 -67 -167 -67q-32 0 -59.5 7t-55 24t-43 51.5t-15.5 83.5v322h79v-296q0 -68 28 -96.5t82 -28.5q70 0 147 61z" />
<glyph unicode="&#x1e2;" d="M588 650v-70h-211v-212h178v-69h-178v-228h211v-71h-286v164h-153l-63 -164h-81l263 650h320zM174 229h128v332zM312 743v57h275v-57h-275z" />
<glyph unicode="&#x1e3;" d="M178 426q-74 0 -74 -61q0 -10 5 -25l-64 -9q-7 18 -7 38q0 54 41 87t106 33q94 0 119 -70q46 70 127 70q79 0 115 -59t37 -178v-24h-261q1 -82 35.5 -127.5t88.5 -45.5q64 0 111 41l19 -65q-61 -41 -136 -41q-105 0 -153 87q-52 -87 -145 -87q-61 0 -97 35t-36 98 q0 39 17 68t46.5 44t62 21.5t69.5 6.5q30 0 45 -2q0 24 5 47v23q0 53 -17.5 74t-58.5 21zM81 131q0 -39 20 -59.5t55 -20.5t63.5 20t45.5 51q-14 43 -17 86q-17 4 -46 4q-121 0 -121 -81zM322 283h190v12q1 59 -20 96.5t-62 37.5q-50 0 -75.5 -36t-32.5 -110zM188 598v57 h246v-57h-246z" />
<glyph unicode="&#x1fc;" d="M268 650h320v-70h-211v-212h178v-69h-178v-228h211v-71h-286v164h-153l-63 -164h-81zM174 229h128v332zM581 777l-175 -82l-23 41l164 106z" />
<glyph unicode="&#x1fd;" d="M178 426q-74 0 -74 -61q0 -10 5 -25l-64 -9q-7 18 -7 38q0 54 41 87t106 33q94 0 119 -70q46 70 127 70q79 0 115 -59t37 -178v-24h-261q1 -82 35.5 -127.5t88.5 -45.5q64 0 111 41l19 -65q-61 -41 -136 -41q-105 0 -153 87q-52 -87 -145 -87q-61 0 -97 35t-36 98 q0 39 17 68t46.5 44t62 21.5t69.5 6.5q30 0 45 -2q0 24 5 47v23q0 53 -17.5 74t-58.5 21zM81 131q0 -39 20 -59.5t55 -20.5t63.5 20t45.5 51q-14 43 -17 86q-17 4 -46 4q-121 0 -121 -81zM322 283h190v12q1 59 -20 96.5t-62 37.5q-50 0 -75.5 -36t-32.5 -110zM443 664 l-144 -115l-33 34l129 134z" />
<glyph unicode="&#x1fe;" d="M301 659q115 0 183 -60l41 53h58l-69 -89q58 -83 58 -239q0 -150 -71.5 -242t-203.5 -92q-113 0 -180 59l-40 -52h-60l69 89q-58 83 -58 237q0 156 69 246t204 90zM114 323q0 -111 24 -170l297 383q-44 53 -134 53q-104 0 -145.5 -64t-41.5 -202zM297 60q189 0 189 264 q0 110 -25 170l-297 -384q42 -50 133 -50zM448 777l-175 -82l-23 41l164 106z" />
<glyph unicode="&#x1ff;" d="M63 240q0 113 65.5 181t171.5 68q83 0 140 -36l22 28h59l-46 -58q63 -66 63 -183q0 -107 -64.5 -178.5t-173.5 -71.5q-82 0 -139 36l-23 -29h-58l46 58q-63 66 -63 185zM146 241q0 -79 28 -125l221 280q-37 28 -97 28q-76 0 -114 -49.5t-38 -133.5zM298 55q157 0 157 186 q0 75 -29 120l-221 -279q36 -27 93 -27zM433 664l-144 -115l-33 34l129 134z" />
<glyph unicode="&#x218;" d="M276 -65h65q-4 -91 -57 -176l-49 15q41 78 41 161zM438 161q0 37 -19 63.5t-49.5 43t-67.5 30t-74 28.5t-67.5 34t-49.5 52t-19 77q0 75 63.5 122.5t161.5 47.5q110 0 185 -44l-25 -79q-66 53 -157 53q-143 0 -143 -94q0 -41 35.5 -68.5t86.5 -45t102.5 -38.5t87 -64 t35.5 -108q0 -88 -67 -134.5t-169 -46.5q-117 0 -210 56l28 79q80 -67 190 -67q64 0 103 25.5t39 77.5z" />
<glyph unicode="&#x219;" d="M271 -65h65q-4 -91 -57 -176l-49 15q41 78 41 161zM414 125q0 35 -30.5 56t-74 32t-87.5 24.5t-74.5 42.5t-30.5 76q0 66 57 99.5t137 33.5q110 0 171 -36l-22 -72q-16 16 -59.5 30t-85.5 14q-118 0 -118 -64q0 -27 30.5 -44.5t74.5 -29t88 -26.5t74.5 -47.5t30.5 -82.5 t-33 -83t-78 -45.5t-100 -12.5q-116 0 -177 40l22 72q62 -48 157 -48q53 0 90.5 17.5t37.5 53.5z" />
<glyph unicode="&#x21a;" d="M271 -65h65q-4 -91 -57 -176l-49 15q41 78 41 161zM565 650v-70h-224v-580h-81v580h-225v70h530z" />
<glyph unicode="&#x21b;" d="M312 -65h65q-4 -91 -57 -176l-49 15q41 78 41 161zM261 411v-252q0 -58 24.5 -80.5t73.5 -22.5q56 0 114 38l17 -66q-67 -38 -149 -38q-159 0 -159 159v262h-113v56l114 5l10 129h68v-130h206v-60h-206z" />
<glyph unicode="&#x232;" d="M132 650l178 -329l163 329h80l-205 -397v-253h-81v251l-221 399h86zM171 743v57h275v-57h-275z" />
<glyph unicode="&#x233;" d="M529 477l-270 -697h-76l79 207l-191 490h83l151 -396l146 396h78zM182 598v57h246v-57h-246z" />
<glyph unicode="&#x237;" d="M87 412v65h336v-449q0 -252 -335 -252l-3 69q32 0 55 1.5t57 7t57 18.5t45.5 34t34 55.5t11.5 79.5v371h-258z" />
<glyph unicode="&#x259;" d="M257 424q-70 0 -128 -49l-22 66q79 48 167 48q104 0 164.5 -62.5t60.5 -187.5q0 -115 -60 -182t-151 -67q-188 0 -188 228v30h319q-6 176 -162 176zM289 51q113 0 128 142h-237q-6 -142 109 -142z" />
<glyph unicode="&#x2c6;" d="M322 697l123 -117l-42 -40l-104 97l-104 -98l-40 39l124 119h43z" />
<glyph unicode="&#x2c7;" d="M280 539l-125 117l42 41l105 -99l103 99l40 -39l-122 -119h-43z" />
<glyph unicode="&#x2d8;" d="M372 689h52q0 -56 -32 -87.5t-91 -31.5q-61 0 -93 31.5t-32 87.5h54q0 -31 17.5 -50t53.5 -19q71 0 71 69z" />
<glyph unicode="&#x2d9;" d="M251 637q0 20 14 34t34 14t34.5 -14t14.5 -34t-14.5 -34t-34.5 -14t-34 14t-14 34z" />
<glyph unicode="&#x2da;" d="M299 542q-46 0 -74.5 27t-28.5 71t30.5 70t74.5 26q46 0 74 -25.5t28 -70.5q0 -41 -29 -69.5t-75 -28.5zM299 583q53 0 53 57q0 56 -53 56t-53 -56q0 -57 53 -57z" />
<glyph unicode="&#x2db;" d="M320 26l30 -9q-29 -13 -58 -50.5t-29 -75.5q0 -32 20 -49.5t48 -17.5q33 0 58 21l12 -47q-36 -25 -87 -25q-55 0 -85.5 30.5t-30.5 77.5q0 49 36 89t86 56z" />
<glyph unicode="&#x2dc;" d="M177 580l-28 30q48 62 97 62q27 0 60.5 -14.5t52.5 -14.5q40 0 65 31l27 -30q-42 -61 -96 -61q-21 0 -55 15t-54 15q-43 0 -69 -33z" />
<glyph unicode="&#x2dd;" d="M304 672l-131 -122l-35 32l115 138zM461 664l-136 -115l-33 34l121 134z" />
<glyph unicode="&#x394;" d="M30 0l243 651h62l235 -651h-540zM115 54h367l-182 525z" />
<glyph unicode="&#x3a3;" d="M61 0v61l230 272l-230 281v62h477v-58h-400l222 -270v-28l-225 -263h403v-57h-477z" />
<glyph unicode="&#x3c0;" d="M482 477v-477h-79v408h-207v-408h-79v477h365z" />
<glyph unicode="&#x1e46;" d="M259 -157q0 20 14 34t34 14t34.5 -14t14.5 -34t-14.5 -34t-34.5 -14t-34 14t-14 34zM136 531v-531h-77v650h89l317 -521v521h76v-650h-83z" />
<glyph unicode="&#x1e47;" d="M249 -148q0 20 14 34t34 14t34.5 -14t14.5 -34t-14.5 -34t-34.5 -14t-34 14t-14 34zM177 361v-361h-79v477h74l1 -55q77 67 171 67q70 0 120.5 -37.5t50.5 -128.5v-323h-78v294q0 68 -28 96t-83 28q-76 0 -149 -57z" />
<glyph unicode="&#x1e62;" d="M438 161q0 37 -19 63.5t-49.5 43t-67.5 30t-74 28.5t-67.5 34t-49.5 52t-19 77q0 75 63.5 122.5t161.5 47.5q110 0 185 -44l-25 -79q-66 53 -157 53q-143 0 -143 -94q0 -41 35.5 -68.5t86.5 -45t102.5 -38.5t87 -64t35.5 -108q0 -88 -67 -134.5t-169 -46.5 q-117 0 -210 56l28 79q80 -67 190 -67q64 0 103 25.5t39 77.5zM250 -157q0 20 14 34t34 14t34.5 -14t14.5 -34t-14.5 -34t-34.5 -14t-34 14t-14 34z" />
<glyph unicode="&#x1e63;" d="M414 125q0 35 -30.5 56t-74 32t-87.5 24.5t-74.5 42.5t-30.5 76q0 66 57 99.5t137 33.5q110 0 171 -36l-22 -72q-16 16 -59.5 30t-85.5 14q-118 0 -118 -64q0 -27 30.5 -44.5t74.5 -29t88 -26.5t74.5 -47.5t30.5 -82.5t-33 -83t-78 -45.5t-100 -12.5q-116 0 -177 40 l22 72q62 -48 157 -48q53 0 90.5 17.5t37.5 53.5zM249 -148q0 20 14 34t34 14t34.5 -14t14.5 -34t-14.5 -34t-34.5 -14t-34 14t-14 34z" />
<glyph unicode="&#x1e80;" d="M343 695l-175 82l34 65l164 -106zM340 476l114 -382l56 556h77l-87 -650h-82l-115 382l-102 -382h-83l-105 650h82l71 -557l103 383h71z" />
<glyph unicode="&#x1e81;" d="M202 0h-84l-100 477h78l69 -411l104 346h66l106 -346l68 411h75l-103 -477h-84l-98 324zM322 549l-144 115l49 53l128 -134z" />
<glyph unicode="&#x1e82;" d="M438 777l-175 -82l-23 41l164 106zM340 476l114 -382l56 556h77l-87 -650h-82l-115 382l-102 -382h-83l-105 650h82l71 -557l103 383h71z" />
<glyph unicode="&#x1e83;" d="M429 664l-144 -115l-33 34l129 134zM202 0h-84l-100 477h78l69 -411l104 346h66l106 -346l68 411h75l-103 -477h-84l-98 324z" />
<glyph unicode="&#x1e84;" d="M170 774q0 20 13.5 33.5t32.5 13.5q20 0 33.5 -13.5t13.5 -33.5q0 -19 -13.5 -32.5t-33.5 -13.5t-33 13t-13 33zM350 774q0 20 13.5 33.5t32.5 13.5q20 0 33.5 -13.5t13.5 -33.5q0 -19 -13.5 -32.5t-33.5 -13.5t-33 13t-13 33zM340 476l114 -382l56 556h77l-87 -650h-82 l-115 382l-102 -382h-83l-105 650h82l71 -557l103 383h71z" />
<glyph unicode="&#x1e85;" d="M164 626q0 20 13.5 33.5t32.5 13.5q20 0 33.5 -13.5t13.5 -33.5q0 -19 -13.5 -32.5t-33.5 -13.5t-33 13t-13 33zM338 626q0 20 14 33.5t33 13.5t32.5 -14t13.5 -33t-13.5 -32.5t-32.5 -13.5q-20 0 -33.5 13.5t-13.5 32.5zM202 0h-84l-100 477h78l69 -411l104 346h66 l106 -346l68 411h75l-103 -477h-84l-98 324z" />
<glyph unicode="&#x1ebc;" d="M178 726l-28 29q46 62 97 62q27 0 67.5 -14.5t59.5 -14.5q39 0 65 31l27 -30q-43 -61 -96 -61q-21 0 -62.5 15.5t-61.5 15.5q-40 0 -68 -33zM85 650h441v-70h-360v-212h326v-69h-326v-228h360v-71h-441v650z" />
<glyph unicode="&#x1ebd;" d="M350 55q37 0 79.5 15.5t63.5 33.5l21 -66q-77 -48 -183 -48q-105 0 -170 63t-65 187q0 118 64.5 183.5t158.5 65.5q93 0 148 -57.5t55 -173.5q0 -27 -1 -30h-344q4 -86 50 -129.5t123 -43.5zM179 283h263q1 65 -33 105t-90 40q-126 0 -140 -145zM199 580l-28 30 q48 62 97 62q27 0 60.5 -14.5t52.5 -14.5q40 0 65 31l27 -30q-42 -61 -96 -61q-21 0 -55 15t-54 15q-43 0 -69 -33z" />
<glyph unicode="&#x1ef2;" d="M132 650l178 -329l163 329h80l-205 -397v-253h-81v251l-221 399h86zM370 695l-175 82l34 65l164 -106z" />
<glyph unicode="&#x1ef3;" d="M529 477l-270 -697h-76l79 207l-191 490h83l151 -396l146 396h78zM322 549l-144 115l49 53l128 -134z" />
<glyph unicode="&#x2012;" d="M0 229v76h600v-76h-600z" />
<glyph unicode="&#x2013;" d="M80 231v58h440v-58h-440z" />
<glyph unicode="&#x2014;" d="M0 231v58h599v-58h-599z" />
<glyph unicode="&#x2018;" d="M308 445h-74q3 61 24.5 140.5t50.5 124.5l56 -16q-25 -46 -39.5 -117t-17.5 -132z" />
<glyph unicode="&#x2019;" d="M291 704h74q-3 -61 -24.5 -140.5t-50.5 -124.5l-56 16q25 46 39.5 117t17.5 132z" />
<glyph unicode="&#x201a;" d="M292 78h71q-2 -59 -23.5 -135t-51.5 -122l-52 15q25 47 39.5 115.5t16.5 126.5z" />
<glyph unicode="&#x201c;" d="M389 445h-74q2 60 24 140t51 125l55 -16q-25 -47 -39.5 -118.5t-16.5 -130.5zM228 445h-74q3 61 24.5 140.5t50.5 124.5l55 -16q-25 -47 -39.5 -118.5t-16.5 -130.5z" />
<glyph unicode="&#x201d;" d="M210 704h74q-2 -60 -24 -140t-51 -125l-55 16q25 47 39.5 117.5t16.5 131.5zM371 704h74q-2 -60 -24 -140t-51 -125l-55 16q25 47 39.5 118.5t16.5 130.5z" />
<glyph unicode="&#x201e;" d="M210 78h72q-3 -60 -24.5 -136t-51.5 -121l-52 15q25 47 39.5 115t16.5 127zM374 78h71q-2 -59 -23.5 -135t-51.5 -122l-52 15q25 47 39.5 115.5t16.5 126.5z" />
<glyph unicode="&#x2020;" d="M78 387v56h182v230h66v-230h195v-56h-195v-558h-66v558h-182z" />
<glyph unicode="&#x2021;" d="M78 392v56h182v225h66v-225h195v-56h-195v-190h195v-56h-195v-317h-66v317h-182v56h182v190h-182z" />
<glyph unicode="&#x2022;" d="M267 163q-55 22 -55 77q0 13 7 32q10 23 31 37t47 14q14 0 35 -7q26 -10 40.5 -31.5t14.5 -46.5q0 -16 -6 -31q-10 -24 -31.5 -37.5t-47.5 -13.5q-18 0 -35 7z" />
<glyph unicode="&#x2026;" d="M28 38q0 48 50 48t50 -48t-50 -48t-50 48zM250 38q0 48 49 48q50 0 50 -48t-50 -48q-49 0 -49 48zM471 38q0 48 49 48q51 0 51 -48t-51 -48q-49 0 -49 48z" />
<glyph unicode="&#x2030;" horiz-adv-x="1200" d="M268 659q79 0 118.5 -41.5t39.5 -115.5q0 -65 -40 -111.5t-119 -46.5q-157 0 -157 158q0 68 40.5 112.5t117.5 44.5zM268 400q51 0 70.5 26t19.5 76q0 102 -90 102q-91 0 -91 -102q0 -50 19.5 -76t71.5 -26zM584 304q79 0 118 -42t39 -116q0 -64 -40 -110.5t-118 -46.5 q-157 0 -157 157q0 68 40.5 113t117.5 45zM583 44q51 0 70.5 26.5t19.5 75.5q0 103 -90 103t-90 -103q0 -50 19 -76t71 -26zM924 304q79 0 118 -41.5t39 -116.5q0 -64 -40 -110.5t-118 -46.5q-157 0 -157 157q0 68 40.5 113t117.5 45zM923 44q51 0 70.5 26.5t19.5 75.5 q0 103 -90 103t-90 -103q0 -50 19 -76t71 -26zM653 564l-419 -512l-43 30l421 515z" />
<glyph unicode="&#x2039;" d="M202 234l125 231h70l-112 -227l112 -235h-70z" />
<glyph unicode="&#x203a;" d="M271 465l126 -231l-126 -231h-69l112 235l-112 227h69z" />
<glyph unicode="&#x2044;" d="M87 39l-39 29l465 562l38 -31z" />
<glyph unicode="&#x20a1;" d="M526 707h58l-247 -648q81 6 128 40l20 -70q-68 -37 -174 -39l-20 -54h-58l22 58q-46 6 -80 20l-29 -78h-58l40 106q-109 81 -109 279q0 160 81.5 249t217.5 89q22 0 42 -3l20 51h58l-24 -63q37 -12 75 -35zM317 589q-108 0 -163 -68.5t-55 -197.5q0 -139 58 -204l178 469 q-6 1 -18 1zM388 577l-187 -494q36 -19 79 -23l181 476q-36 27 -73 41z" />
<glyph unicode="&#x20a2;" d="M532 97l21 -69q-81 -38 -189 -38q-69 0 -124.5 17t-99.5 54t-68.5 103t-24.5 156q0 165 89.5 252t238.5 87q103 0 167 -39l-28 -77q-59 46 -140 46q-116 0 -178.5 -68.5t-62.5 -198.5q0 -214 153 -254v284h73l2 -85q55 90 134 90q22 0 33 -2l-6 -80q-16 6 -38 6 q-60 0 -119 -90v-133h3q102 0 164 39z" />
<glyph unicode="&#x20a3;" d="M388 215v-215h-79v292h-184v-292h-81v650h395v-70h-314v-219h258l1 -84q62 89 145 89q22 0 34 -2l-7 -80q-16 6 -37 6q-67 0 -131 -75z" />
<glyph unicode="&#x20a4;" d="M140 237h-91v56h91v65h-91v56h91v16q0 114 61 171.5t154 57.5q91 0 155 -58l-41 -59q-51 52 -115 52q-136 0 -136 -162v-18h232v-56h-232v-65h232v-56h-232v-8q0 -56 -15 -94t-57 -68h237q95 0 136 64l42 -52q-17 -31 -55 -55t-93 -24h-374v53q46 6 73.5 46t27.5 88v50z " />
<glyph unicode="&#x20a5;" d="M123 361v-361h-71v477h66l1 -63q59 75 118 75q65 0 87 -59l60 183h56l-45 -138q30 14 54 14q56 0 78.5 -36t22.5 -118v-335h-71v318q0 66 -10.5 86t-39.5 20q-27 0 -59 -27l-33 -101v-296h-72v74l-53 -163h-56l109 335v72q0 60 -10 83t-36 23q-22 0 -48.5 -17t-47.5 -46z " />
<glyph unicode="&#x20a6;" d="M135 220v-220h-77v220h-41v56h41v100h-41v56h41v218h89l132 -218h185v218h76v-218h43v-56h-43v-100h43v-56h-43v-220h-83l-134 220h-188zM135 376v-100h154l-60 100h-94zM313 376l61 -100h90v100h-151zM135 531v-99h60zM408 220l56 -91v91h-56z" />
<glyph unicode="&#x20a7;" horiz-adv-x="1200" d="M620 411v-252q0 -58 24 -80.5t71 -22.5q56 0 110 46q62 -48 155 -48q53 0 90 17.5t37 53.5q0 35 -30 56t-73.5 32t-86.5 24.5t-73 42.5t-30 76q0 66 56 99.5t135 33.5q107 0 168 -36l-22 -72q-16 16 -58.5 30t-84.5 14q-117 0 -117 -64q0 -27 30.5 -44.5t73.5 -29 t86.5 -26.5t74 -47.5t30.5 -82.5q0 -73 -61 -107t-147 -34q-88 0 -153 37q-60 -37 -130 -37q-151 0 -151 159v262h-89q-8 -86 -66 -133t-148 -47h-136v-231h-79v650h207q208 0 222 -181l90 3l10 129h65v-130h187v-60h-187zM105 299h131q138 0 138 135q0 73 -33.5 109.5 t-108.5 36.5h-127v-281z" />
<glyph unicode="&#x20a8;" d="M441 -10q-81 0 -134 52.5t-146 210.5h-81v-253h-67v650h117q108 0 155.5 -49.5t47.5 -149.5q0 -66 -29 -112.5t-79 -68.5q68 -118 119 -170t98 -52q81 0 81 76q0 30 -18 51t-44.5 35.5t-52.5 31t-44 45t-18 68.5q0 66 39 100t89 34q62 0 112 -33l-17 -66q-33 42 -91 42 q-30 0 -50 -17.5t-20 -53.5q0 -26 18.5 -45t44.5 -33t52.5 -31t45 -47.5t18.5 -73.5q0 -75 -42 -108t-104 -33zM131 316q59 0 95 31.5t36 100.5q0 72 -32 104.5t-103 32.5h-47v-269h51z" />
<glyph unicode="&#x20a9;" d="M338 476l20 -68h125l25 242h77l-33 -242h38v-56h-45l-14 -100h59v-56h-66l-26 -196h-82l-59 196h-106l-52 -196h-83l-32 196h-76v56h67l-16 100h-51v56h42l-39 242h82l31 -242h124l19 68h71zM375 352l30 -100h63l10 100h-103zM131 352l12 -100h63l27 100h-102zM293 352 l-27 -100h74l-30 100h-17zM150 196l14 -103l27 103h-41zM421 196l31 -102l10 102h-41z" />
<glyph unicode="&#x20aa;" d="M27 0v650h164q140 0 186 -57.5t46 -218.5v-155h-63v128q0 62 -6.5 104t-18.5 67.5t-34 39t-47 18t-64 4.5h-98v-580h-65zM573 650v-650h-164q-140 0 -186 57.5t-46 218.5v155h63v-128q0 -62 6.5 -104t18.5 -67.5t34 -39t47 -18t64 -4.5h98v580h65z" />
<glyph unicode="&#x20ab;" d="M216 574v55h170v56h70v-56h44v-55h-44v-438h-66l-1 48q-63 -56 -125 -56q-78 0 -121 52.5t-43 140.5q0 94 56 150.5t147 56.5q36 0 83 -15v61h-170zM386 239v210q-34 20 -81 20q-64 0 -97.5 -36t-33.5 -106q0 -137 106 -137q52 0 106 49zM111 -3v58h354v-58h-354z" />
<glyph unicode="&#x20ac;" d="M119 218h-82l10 57h66q-1 14 -1 45q0 34 2 51h-67l10 57h64q22 112 91 171.5t181 59.5q91 0 158 -36l-26 -74q-55 41 -132 41q-83 0 -128 -40.5t-60 -121.5h269l-10 -57h-266q-1 -16 -1 -49q0 -32 1 -47h250l-10 -57h-233q15 -82 60.5 -121t129.5 -39q90 0 146 37l21 -67 q-72 -38 -176 -38q-230 0 -267 228z" />
<glyph unicode="&#x20ad;" d="M542 650l-242 -298h219v-56h-201l249 -296h-98l-248 296h-43v-296h-81v296h-62v56h62v298h81v-298h43l233 298h88z" />
<glyph unicode="&#x20ae;" d="M565 650v-70h-224v-175l131 44v-60l-131 -44v-72l131 44v-60l-131 -44v-213h-81v187l-131 -43v60l131 43v72l-131 -43v59l131 43v202h-225v70h530z" />
<glyph unicode="&#x20b1;" d="M112 0v358h-63v46h63v81h-63v45h63v120h223q171 0 213 -120h45v-45h-34q3 -23 3 -46q0 -13 -2 -35h33v-46h-44q-22 -61 -76.5 -94t-130.5 -33h-150v-231h-80zM476 434q0 31 -5 51h-279v-81h282q2 9 2 30zM337 299q93 0 123 59h-268v-59h145zM192 580v-50h261 q-32 50 -120 50h-141z" />
<glyph unicode="&#x2113;" d="M117 220l85 56v212q0 207 147 207q63 0 98 -37t35 -97q0 -59 -37.5 -124t-79.5 -106.5t-84 -70.5v-66q0 -142 79 -142q38 0 87 31l17 -58q-48 -36 -116 -36q-146 0 -146 182v49l-60 -41zM281 498v-179q114 103 114 231q0 85 -52 85q-33 0 -47.5 -31t-14.5 -106z" />
<glyph unicode="&#x2116;" d="M359 203v46h227v-46h-227zM470 292q-56 0 -86.5 47t-30.5 137q0 84 31.5 133.5t85.5 49.5q56 0 86.5 -47t30.5 -136q0 -81 -30.5 -132.5t-86.5 -51.5zM470 347q36 0 49.5 33t13.5 96q0 129 -63 129q-64 0 -64 -129q0 -64 14 -96.5t50 -32.5zM84 507v-507h-60v650h70 l176 -494v494h59v-650h-65z" />
<glyph unicode="&#x2117;" d="M298 -7q-126 0 -209 93t-83 227q0 135 82.5 228t209.5 93q130 0 213.5 -92.5t83.5 -228.5q0 -135 -83 -227.5t-214 -92.5zM298 30q114 0 184 79.5t70 203.5q0 119 -70.5 201t-183.5 82q-111 0 -180 -79.5t-69 -203.5t70 -203.5t179 -79.5zM185 106v413h127 q146 0 146 -132q0 -63 -38.5 -99t-102.5 -36h-74v-146h-58zM243 301h67q86 0 86 83q0 46 -20.5 66t-68.5 20h-64v-169z" />
<glyph unicode="&#x2120;" d="M248 319v333h52l82 -186l38 -95l35 94l80 187h50v-333h-40v251l-27 -77l-77 -174h-45l-76 167l-35 82l1 -77v-172h-38zM110 313q-48 0 -99 31l16 47q40 -36 82 -36q26 0 44.5 12t18.5 35q0 18 -11.5 32.5t-21.5 20t-35 17.5q-1 0 -15 7.5t-16 8.5t-13.5 8t-14.5 10.5 t-10.5 11t-9.5 14t-4.5 16t-2.5 20.5q0 40 29 65t73 25q52 0 89 -25l-15 -47q-30 30 -72 30q-54 0 -54 -44q0 -7 1.5 -12.5t5.5 -10.5t6.5 -8t10.5 -7.5t11 -6.5t13 -7t13 -6q4 -2 16 -8.5t16.5 -9t15 -9t15 -11t11.5 -12.5t10 -16t5.5 -18.5t2.5 -22.5q0 -41 -32 -67.5 t-79 -26.5z" />
<glyph unicode="&#x2122;" d="M236 319v333h57l82 -186l38 -95l35 94l80 187h55v-333h-45v251l-27 -77l-77 -174h-45l-77 167l-34 82l1 -77v-172h-43zM89 319v288h-79v44h207v-44h-80v-288h-48z" />
<glyph unicode="&#x2126;" d="M19 0v54h199v55q-81 23 -135 89.5t-54 173.5q0 127 73 206t202 79q128 0 195.5 -79.5t67.5 -205.5q0 -107 -47 -166t-137 -97v-55h198v-54h-256v134q89 33 135 87t46 151q0 105 -48.5 170t-153.5 65t-159.5 -64.5t-54.5 -170.5q0 -168 186 -237v-135h-257z" />
<glyph unicode="&#x212e;" d="M587 231h-465q-4 0 -4 -3v-135q0 -7 7 -18q70 -73 174 -73q111 0 186 83h41q-38 -45 -99 -71.5t-129 -26.5q-118 0 -202 73.5t-84 176.5q0 105 83.5 177t202.5 72q120 0 204.5 -72t84.5 -177v-6zM481 249v136q0 11 -6 17q-72 69 -176 69q-105 0 -174 -71q-7 -7 -7 -18 v-133q0 -3 4 -3h357q2 0 2 3z" />
<glyph unicode="&#x2190;" d="M600 305v-76h-431l116 -99v-103l-258 241l258 241v-102l-121 -102h436z" />
<glyph unicode="&#x2191;" d="M339 43h-77v406l-101 -118h-102l241 259l241 -259h-103l-99 118v-406z" />
<glyph unicode="&#x2192;" d="M0 229v76h435l-120 102v102l258 -241l-258 -241v103l116 99h-431z" />
<glyph unicode="&#x2193;" d="M262 590h77v-407l99 119h103l-241 -259l-241 259h102l101 -119v407z" />
<glyph unicode="&#x2196;" d="M446 564l-72 -72l-157 13l289 -289l-55 -54l-286 286l13 -152l-73 -73l-12 353z" />
<glyph unicode="&#x2197;" d="M225 492l-72 72l353 12l-12 -353l-73 73l13 152l-286 -286l-55 54l290 289z" />
<glyph unicode="&#x2198;" d="M93 522l55 54l286 -286l-13 152l73 73l12 -353l-353 12l72 72l158 -14z" />
<glyph unicode="&#x2199;" d="M451 576l55 -54l-289 -289l157 13l72 -72l-353 -12l12 353l73 -73l-13 -152z" />
<glyph unicode="&#x2202;" d="M74 227q0 107 62 166t162 59q62 0 105 -29q-25 67 -84 127t-128 91l37 50q294 -137 298 -441v-10q0 -106 -59.5 -178t-166.5 -72q-104 0 -165 60t-61 177zM157 227q0 -172 141 -172q143 0 145 179q0 73 -14 116q-49 42 -124 42q-148 0 -148 -165z" />
<glyph unicode="&#x2206;" d="M30 0l243 651h62l235 -651h-540zM115 54h367l-182 525z" />
<glyph unicode="&#x220f;" d="M79 650h442v-650h-81v578h-281v-578h-80v650z" />
<glyph unicode="&#x2211;" d="M61 0v61l230 272l-230 281v62h477v-58h-400l222 -270v-28l-225 -263h403v-57h-477z" />
<glyph unicode="&#x2212;" d="M493 265h-387v58h387v-58z" />
<glyph unicode="&#x221a;" d="M288 0l-141 434h-107v61h161l118 -397l174 607h67l-213 -705h-59z" />
<glyph unicode="&#x221e;" d="M153 95q-56 0 -95.5 57t-39.5 139q0 84 42 141t104 57q78 0 141 -153q24 66 62 109.5t80 43.5q61 0 97.5 -56.5t36.5 -139.5q0 -86 -38 -142t-99 -56q-44 0 -80 44t-62 110q-24 -67 -63 -110.5t-86 -43.5zM73 291q0 -62 23 -102t60 -40q39 0 65 35t55 108 q-50 143 -113 143q-42 0 -66 -40t-24 -104zM332 293q52 -144 113 -144q39 0 58.5 39t19.5 103q0 145 -78 145q-32 0 -58.5 -37.5t-54.5 -105.5z" />
<glyph unicode="&#x222b;" d="M102 -217v49h64q59 0 76.5 34.5t17.5 131.5v482q0 206 168 206h70v-50h-62q-61 0 -85 -36.5t-24 -128.5v-482q0 -107 -34.5 -156.5t-120.5 -49.5h-70z" />
<glyph unicode="&#x2248;" d="M420 312q-33 0 -68 18.5t-60 40t-56 40t-57 18.5q-102 0 -99 -113h-60q-1 79 45 124t117 45q36 0 71.5 -18.5t59.5 -40t54 -40t56 -18.5q42 0 68.5 29t25.5 93h62q-1 -85 -44.5 -131.5t-114.5 -46.5zM420 84q-41 0 -85 29t-84 58t-72 29q-101 0 -98 -113h-60 q-1 79 45 124t116 45q36 0 72 -18.5t60 -40t54 -40t56 -18.5q41 0 68 29.5t26 92.5h62q-1 -85 -44.5 -131t-115.5 -46z" />
<glyph unicode="&#x2260;" d="M124 65l63 104h-101v59h137l86 140h-223v59h259l66 108h67l-66 -108h101v-59h-137l-86 -140h223v-59h-259l-63 -104h-67z" />
<glyph unicode="&#x2264;" d="M440 96l-327 186v52l327 200l33 -52l-286 -171l285 -162zM94 4v57h411v-57h-411z" />
<glyph unicode="&#x2265;" d="M505 61v-57h-411v57h411zM487 282l-328 -186l-31 53l284 162l-286 171l34 52l327 -200v-52z" />
<glyph unicode="&#x2460;" d="M298 -8q-107 0 -183.5 78.5t-76.5 188.5q0 111 76.5 189.5t183.5 78.5q110 0 187 -78.5t77 -189.5t-77 -189t-187 -78zM298 22q96 0 162 68t66 169q0 98 -66 167t-162 69q-94 0 -159 -66.5t-65 -169.5q0 -102 65 -169.5t159 -67.5zM287 114v251l-63 -3v31l98 5v-284h-35z " />
<glyph unicode="&#x2461;" d="M298 -8q-107 0 -183.5 78.5t-76.5 188.5q0 111 76.5 189.5t183.5 78.5q110 0 187 -78.5t77 -189.5t-77 -189t-187 -78zM298 22q96 0 162 68t66 169q0 98 -66 167t-162 69q-94 0 -159 -66.5t-65 -169.5q0 -102 65 -169.5t159 -67.5zM198 126v25q49 38 96.5 92.5t47.5 89.5 q0 22 -14 34t-34 12q-31 0 -60 -31l-20 22q33 40 84 40q32 0 55 -19.5t23 -55.5t-38.5 -86.5t-87.5 -91.5h140v-31h-192z" />
<glyph unicode="&#x2462;" d="M298 -8q-107 0 -183.5 78.5t-76.5 188.5q0 111 76.5 189.5t183.5 78.5q110 0 187 -78.5t77 -189.5t-77 -189t-187 -78zM298 22q96 0 162 68t66 169q0 98 -66 167t-162 69q-94 0 -159 -66.5t-65 -169.5q0 -102 65 -169.5t159 -67.5zM287 118q-24 0 -48.5 10t-32.5 18 l20 27q29 -26 65 -26q25 0 44 13.5t19 36.5q0 51 -102 58v27q36 3 62.5 17.5t26.5 38.5q0 17 -13 26.5t-34 9.5q-30 0 -59 -21l-15 27q35 26 78 26q33 0 55 -18.5t22 -45.5q0 -49 -51 -70q65 -17 65 -74q0 -34 -25 -57t-77 -23z" />
<glyph unicode="&#x2463;" d="M298 -8q-107 0 -183.5 78.5t-76.5 188.5q0 111 76.5 189.5t183.5 78.5q110 0 187 -78.5t77 -189.5t-77 -189t-187 -78zM298 22q96 0 162 68t66 169q0 98 -66 167t-162 69q-94 0 -159 -66.5t-65 -169.5q0 -102 65 -169.5t159 -67.5zM299 122v74h-134v24l136 182h33v-176 h42v-30h-42v-74h-35zM206 226h93v127z" />
<glyph unicode="&#x2464;" d="M298 -8q-107 0 -183.5 78.5t-76.5 188.5q0 111 76.5 189.5t183.5 78.5q110 0 187 -78.5t77 -189.5t-77 -189t-187 -78zM298 22q96 0 162 68t66 169q0 98 -66 167t-162 69q-94 0 -159 -66.5t-65 -169.5q0 -102 65 -169.5t159 -67.5zM283 110q-41 0 -76 29l19 27 q29 -26 64 -26q24 0 41.5 14.5t17.5 41.5q0 65 -125 65v133h152v-30h-118v-74q126 -4 126 -93q0 -37 -25 -62t-76 -25z" />
<glyph unicode="&#x2465;" d="M298 -8q-107 0 -183.5 78.5t-76.5 188.5q0 111 76.5 189.5t183.5 78.5q110 0 187 -78.5t77 -189.5t-77 -189t-187 -78zM298 22q96 0 162 68t66 169q0 98 -66 167t-162 69q-94 0 -159 -66.5t-65 -169.5q0 -102 65 -169.5t159 -67.5zM287 110q-98 0 -98 134q0 71 40 112.5 t111 41.5q17 0 29 -1v-32q-6 0 -16.5 1.5t-14.5 1.5q-46 0 -78 -27t-36 -76q33 20 74 20q36 0 60 -20.5t24 -58.5q0 -43 -25.5 -69.5t-69.5 -26.5zM290 140q28 0 42 17.5t14 42.5q0 28 -14 41t-45 13q-33 0 -64 -24q4 -90 67 -90z" />
<glyph unicode="&#x2466;" d="M298 -8q-107 0 -183.5 78.5t-76.5 188.5q0 111 76.5 189.5t183.5 78.5q110 0 187 -78.5t77 -189.5t-77 -189t-187 -78zM298 22q96 0 162 68t66 169q0 98 -66 167t-162 69q-94 0 -159 -66.5t-65 -169.5q0 -102 65 -169.5t159 -67.5zM233 115l117 249h-148v30h188v-20 l-122 -259h-35z" />
<glyph unicode="&#x2467;" d="M298 -8q-107 0 -183.5 78.5t-76.5 188.5q0 111 76.5 189.5t183.5 78.5q110 0 187 -78.5t77 -189.5t-77 -189t-187 -78zM298 22q96 0 162 68t66 169q0 98 -66 167t-162 69q-94 0 -159 -66.5t-65 -169.5q0 -102 65 -169.5t159 -67.5zM297 110q-37 0 -66.5 19.5t-29.5 51.5 q0 49 65 81q-20 12 -29.5 19.5t-18 20.5t-8.5 29q0 30 26 48.5t63 18.5q38 0 61 -17.5t23 -47.5q0 -36 -59 -69q48 -28 60 -44q10 -15 10 -33q0 -33 -29.5 -55t-67.5 -22zM300 140q26 0 42.5 12.5t16.5 32.5q0 12 -12 25t-22 19t-31 17q-58 -29 -58 -62q0 -21 18 -32.5 t46 -11.5zM244 333q0 -15 9 -23.5t45 -30.5q50 31 50 53q0 19 -15 28t-35 9q-24 0 -39 -10t-15 -26z" />
<glyph unicode="&#x2468;" d="M298 -8q-107 0 -183.5 78.5t-76.5 188.5q0 111 76.5 189.5t183.5 78.5q110 0 187 -78.5t77 -189.5t-77 -189t-187 -78zM298 22q96 0 162 68t66 169q0 98 -66 167t-162 69q-94 0 -159 -66.5t-65 -169.5q0 -102 65 -169.5t159 -67.5zM218 112v32q20 -3 31 -3 q46 0 77.5 26.5t35.5 75.5q-35 -19 -73 -19q-36 0 -60 20.5t-24 58.5q0 43 25 69t69 26q99 0 99 -133q0 -72 -40.5 -113.5t-111.5 -41.5q-4 0 -28 2zM300 254q32 0 63 24q-2 91 -67 91q-27 0 -41.5 -18t-14.5 -43q0 -54 60 -54z" />
<glyph unicode="&#x2469;" d="M298 -8q-107 0 -183.5 78.5t-76.5 188.5q0 111 76.5 189.5t183.5 78.5q110 0 187 -78.5t77 -189.5t-77 -189t-187 -78zM298 22q96 0 162 68t66 169q0 98 -66 167t-162 69q-94 0 -159 -66.5t-65 -169.5q0 -102 65 -169.5t159 -67.5zM193 114v251l-63 -3v31l97 5v-284h-34z M364 110q-53 0 -79.5 37t-26.5 103q0 148 108 148t108 -136q0 -27 -4.5 -51t-16 -48t-34.5 -38.5t-55 -14.5zM367 140q72 0 72 118q0 109 -75 109q-71 0 -71 -108q0 -119 74 -119z" />
<glyph unicode="&#x24ca;" d="M298 -7q-126 0 -209 93t-83 227q0 135 82.5 228t209.5 93q130 0 213.5 -92.5t83.5 -228.5q0 -135 -83 -227.5t-214 -92.5zM298 30q114 0 184 79.5t70 203.5q0 119 -70.5 201t-183.5 82q-111 0 -180 -79.5t-69 -203.5t70 -203.5t179 -79.5zM295 113q-147 0 -147 144v238 h54v-233q0 -57 23 -80t71 -23t71 25t23 82v229h54v-233q0 -69 -36.5 -109t-112.5 -40z" />
<glyph unicode="&#x25ca;" d="M269 0l-236 318l238 333h60l236 -332l-233 -319h-65zM300 47l196 271l-198 281l-194 -281z" />
<glyph unicode="&#x25fc;" horiz-adv-x="475" d="M0 475h475v-475h-475v475z" />
<glyph unicode="&#x2610;" d="M0 0v650h599v-650h-599zM55 596v-542h489v542h-489z" />
<glyph unicode="&#x2611;" d="M0 0v650h599v-650h-599zM55 596v-542h489v542h-489zM230 179l253 386l52 -35l-289 -427h-41l-130 205l54 32z" />
<glyph unicode="&#x261a;" d="M559 274v-167l-66 -44q-64 -14 -134 -14l-69 4q15 16 15 33q0 6 -2 12t-4 9l-2 3q21 14 21 31q0 15 -16 31q2 1 5 4.5t7 10.5t4 15q0 15 -17 32l-226 2q-34 0 -34 29t34 29h259l25 -54l30 -18l9 7l-30 16l-31 63l-25 14l-93 -20h-5q-28 0 -28 24q0 6 2 12.5t4 9.5l1 4 l130 33l53 -10q25 -8 183 -101zM156 225h139q10 -10 10 -24q0 -11 -9 -23h-140q-15 10 -15 23q0 6 3.5 12t7.5 9zM165 166h130q11 -9 11 -24q0 -10 -10 -23h-131q-15 11 -15 23q0 6 4 12t8 9zM173 106h112q7 -8 7 -21q0 -15 -11 -27h-77q-47 0 -47 24q0 6 4 12t8 9z" />
<glyph unicode="&#x261b;" d="M41 107v167q158 93 183 101l53 10l130 -33q7 -13 7 -26q0 -24 -28 -24h-5l-93 20l-25 -14l-31 -63l-30 -16l9 -7l30 18l25 54h259q34 0 34 -29t-34 -29l-226 -2q-17 -17 -17 -32q0 -8 3.5 -15.5t7 -11t4.5 -3.5q-15 -15 -15 -31q0 -17 21 -31q-8 -10 -8 -24q0 -17 15 -33 q-28 -4 -69 -4q-70 0 -134 14zM305 225h139q15 -11 15 -24t-15 -23h-140q-9 12 -9 23q0 6 2.5 12t4.5 9zM305 166h130q15 -11 15 -24q0 -12 -15 -23h-131q-10 13 -10 23q0 7 3 13t5 9zM315 106h112q16 -10 16 -24q0 -24 -47 -24h-77q-11 12 -11 27q0 6 2 11t4 8z" />
<glyph unicode="&#x261c;" d="M502 78l60 44l20 -27l-72 -49q-62 -15 -132 -15q-18 0 -43 2.5t-41 4.5l-16 2q-11 -2 -49 -2q-60 0 -60 40q0 15 13 28q-20 15 -20 35q0 13 10 25q-18 15 -18 34q0 12 5 18l-93 1q-48 0 -48 45q0 46 48 46h133q-2 8 -2 16q0 7 3 17t6 17l3 6l133 36l53 -11 q14 -5 41 -21.5t70.5 -44.5t75.5 -47l-18 -23q-5 3 -15 9.5t-22 14.5t-17 11q-96 60 -119 69l-47 10q-16 -4 -56 -15t-62 -16v-12q0 -8 16 -8l92 20l32 -17l29 -65l27 -27l-14 -27l-42 26l-21 50h-279q-19 0 -19 -14q0 -13 19 -13l262 -1q23 -24 23 -49q0 -17 -9 -30 q9 -18 9 -31q0 -19 -14 -36q3 -13 3 -20q0 -10 -3 -19q1 -2 41 -2q58 0 124 15zM309 208h-122q-5 -2 -5 -8t5 -7l125 -3q0 13 -3 18zM310 149h-115q-5 -3 -5 -8t6 -7l116 -4v7q0 10 -2 12zM298 89h-96q-4 -6 -4 -8q0 -8 31 -8q18 0 27 1h41q2 8 2 9t-0.5 3t-0.5 3z" />
<glyph unicode="&#x261d;" d="M161 77l45 -60l-28 -19l-48 71q-16 67 -16 133q0 17 2 42t4 42l3 16q-1 10 -1 48q0 29 8 44.5t32 15.5q15 0 27 -12q14 19 35 19q15 0 25 -10q15 19 34 19q10 0 19 -6v94q0 47 45 47q46 0 46 -47v-134q5 2 17 2q7 0 17 -3t17 -6l6 -3l35 -133l-11 -53q-5 -14 -21 -40.5 t-44.5 -70.5t-47.5 -75l-23 17l35 54q59 94 69 119l10 47q-4 16 -15 56t-16 62q-7 1 -11 1q-8 0 -8 -16l19 -93l-17 -32l-65 -29l-27 -26l-27 13l26 42l50 21v280q0 18 -14 18q-13 0 -13 -18l-1 -263q-24 -23 -49 -23q-16 0 -30 9q-18 -9 -31 -9q-17 0 -36 14q-13 -3 -20 -3 q-10 0 -19 3q-2 0 -2 -40q0 -59 15 -125zM291 270v122q-2 6 -8 6q-5 0 -7 -6l-3 -125q13 0 18 3zM232 269v115q-3 6 -8 6q-4 0 -7 -7l-3 -116h6q10 0 12 2zM172 282v95q-6 5 -8 5q-8 0 -8 -32q0 -18 1 -27q0 -5 0.5 -15t0.5 -14v-12q6 -2 8 -2t6 2z" />
<glyph unicode="&#x261e;" d="M38 122l60 -44q66 -15 124 -15l41 2q-3 9 -3 19l3 20q-14 17 -14 36q0 6 2.5 13.5t4.5 12.5l2 5q-9 13 -9 30q0 25 23 49l262 1q19 0 19 13q0 14 -19 14h-279l-21 -50l-42 -26l-14 27l27 27l29 65l32 17l92 -20q16 0 16 8v12q-22 5 -62 16t-56 15l-47 -10 q-23 -9 -119 -69q-5 -3 -17 -11t-22 -14.5t-15 -9.5l-18 23q32 19 75.5 47t70.5 44.5t41 21.5l53 11l133 -36q12 -24 12 -40q0 -8 -2 -16h133q48 0 48 -46q0 -45 -48 -45l-93 -1q5 -6 5 -18q0 -19 -18 -34q10 -12 10 -25q0 -20 -20 -35q13 -13 13 -28q0 -40 -60 -40 q-38 0 -49 2q-60 -9 -100 -9q-70 0 -132 15l-72 49zM413 208h-122q-3 -5 -3 -18l125 3q5 1 5 7q0 3 -1 5t-3 3h-1zM405 149h-115q-2 -2 -2 -12v-7l116 4q6 2 6 7zM398 89h-96q0 -1 -0.5 -3t-0.5 -3t2 -9h41q9 -1 27 -1q31 0 31 8z" />
<glyph unicode="&#x261f;" d="M206 542l-45 -60q-15 -66 -15 -125l2 -41q9 3 19 3l20 -3q17 14 36 14l31 -8q16 8 30 8q25 0 49 -23l1 -262q0 -19 13 -19q14 0 14 19v279l-50 22l-26 41l27 14l27 -27l65 -28l17 -32l-19 -93q0 -16 8 -16l11 1q5 20 16 59.5t15 57.5l-10 47q-10 26 -69 120l-35 53l23 18 q18 -30 47 -74.5t45 -71.5t21 -41l11 -52l-35 -134q-24 -12 -40 -12q-7 0 -17 2v-133q0 -47 -46 -47q-45 0 -45 47v93q-8 -5 -19 -5q-19 0 -34 18q-11 -9 -25 -9q-21 0 -35 19q-13 -13 -27 -13q-24 0 -32 15.5t-8 44.5q0 38 1 49q-9 61 -9 100q0 65 16 133l48 71zM291 166 v122q-5 3 -18 3l3 -125q1 -5 7 -5zM232 174v116h-2q-2 0 -4.5 0.5t-5.5 0.5h-6l3 -116q2 -6 7 -6zM172 182v95q-2 1 -6 1q-5 0 -8 -2v-12q0 -4 -0.5 -13.5t-0.5 -15.5q-1 -9 -1 -27q0 -31 8 -31z" />
<glyph unicode="&#x267e;" d="M298 -7q-126 0 -209 93t-83 227q0 135 82.5 228t209.5 93q130 0 213.5 -92.5t83.5 -228.5q0 -135 -83 -227.5t-214 -92.5zM298 30q114 0 184 79.5t70 203.5q0 119 -70.5 201t-183.5 82q-111 0 -180 -79.5t-69 -203.5t70 -203.5t179 -79.5zM183 171q-46 0 -76.5 41 t-30.5 102q0 60 32.5 101t82.5 41q66 0 117 -105q19 45 50 75t65 30q50 0 79 -40.5t29 -101.5q0 -62 -33 -102.5t-82 -40.5q-64 0 -110 107q-19 -47 -52 -77t-71 -30zM115 314q0 -45 19 -72.5t49 -27.5q61 0 104 100q-37 98 -97 98q-34 0 -54.5 -27t-20.5 -71zM327 315 q39 -101 90 -101q33 0 52.5 27.5t19.5 72.5t-17 71.5t-49 26.5q-53 0 -96 -97z" />
<glyph unicode="&#x2713;" d="M225 154l253 386l52 -35l-289 -427h-41l-130 205l54 32z" />
<glyph unicode="&#x2776;" d="M298 -8q-107 0 -183.5 78.5t-76.5 188.5q0 111 76.5 189.5t183.5 78.5q110 0 187 -78.5t77 -189.5t-77 -189t-187 -78zM287 365v-251h35v284l-98 -5v-31z" />
<glyph unicode="&#x2777;" d="M298 -8q-107 0 -183.5 78.5t-76.5 188.5q0 111 76.5 189.5t183.5 78.5q110 0 187 -78.5t77 -189.5t-77 -189t-187 -78zM198 151v-25h192v31h-140q49 41 87.5 91.5t38.5 86.5t-23 55.5t-55 19.5q-51 0 -84 -40l20 -22q29 31 60 31q20 0 34 -12t14 -34q0 -35 -47.5 -89.5 t-96.5 -92.5z" />
<glyph unicode="&#x2778;" d="M298 -8q-107 0 -183.5 78.5t-76.5 188.5q0 111 76.5 189.5t183.5 78.5q110 0 187 -78.5t77 -189.5t-77 -189t-187 -78zM287 118q52 0 77 23t25 57q0 57 -65 74q51 21 51 70q0 27 -22 45.5t-55 18.5q-19 0 -38.5 -6.5t-29.5 -13.5l-10 -6l15 -27q29 21 59 21q21 0 34 -9.5 t13 -26.5q0 -24 -26.5 -38.5t-62.5 -17.5v-27q102 -7 102 -58q0 -23 -19 -36.5t-44 -13.5q-36 0 -65 26l-20 -27q8 -8 32.5 -18t48.5 -10z" />
<glyph unicode="&#x2779;" d="M298 -8q-107 0 -183.5 78.5t-76.5 188.5q0 111 76.5 189.5t183.5 78.5q110 0 187 -78.5t77 -189.5t-77 -189t-187 -78zM305 204v-74h34v74h43v30h-43v176h-33l-136 -182v-24h135zM305 234h-94q44 58 94 127v-127z" />
<glyph unicode="&#x277a;" d="M298 -8q-107 0 -183.5 78.5t-76.5 188.5q0 111 76.5 189.5t183.5 78.5q110 0 187 -78.5t77 -189.5t-77 -189t-187 -78zM283 110q51 0 76 25t25 62q0 89 -126 93v74h118v30h-152v-133q125 0 125 -65q0 -27 -17.5 -41.5t-41.5 -14.5q-35 0 -64 26l-19 -27q35 -29 76 -29z " />
<glyph unicode="&#x277b;" d="M298 -8q-107 0 -183.5 78.5t-76.5 188.5q0 111 76.5 189.5t183.5 78.5q110 0 187 -78.5t77 -189.5t-77 -189t-187 -78zM289 118q44 0 69 26.5t25 69.5q0 38 -24 58.5t-60 20.5q-40 0 -73 -20q4 49 36 76t77 27q4 0 15.5 -1.5t15.5 -1.5v32q-12 1 -28 1 q-71 0 -111.5 -41.5t-40.5 -112.5q0 -134 99 -134zM292 148q-65 0 -67 90q29 24 64 24q31 0 45 -13t14 -41q0 -25 -14.5 -42.5t-41.5 -17.5z" />
<glyph unicode="&#x277c;" d="M298 -8q-107 0 -183.5 78.5t-76.5 188.5q0 111 76.5 189.5t183.5 78.5q110 0 187 -78.5t77 -189.5t-77 -189t-187 -78zM350 364l-117 -249h35l122 259v20h-188v-30h148z" />
<glyph unicode="&#x277d;" d="M298 -8q-107 0 -183.5 78.5t-76.5 188.5q0 111 76.5 189.5t183.5 78.5q110 0 187 -78.5t77 -189.5t-77 -189t-187 -78zM297 110q38 0 67.5 22t29.5 55q0 14 -4.5 24.5t-18.5 21.5t-19.5 14.5t-27.5 16.5q59 33 59 69q0 30 -23 47.5t-61 17.5q-37 0 -63 -18.5t-26 -48.5 q0 -16 8.5 -29t18 -20.5t29.5 -19.5q-65 -32 -65 -81q0 -32 29.5 -51.5t66.5 -19.5zM300 140q-28 0 -46 11.5t-18 32.5q0 33 58 62q21 -11 31 -17t22 -19t12 -25q0 -20 -16.5 -32.5t-42.5 -12.5zM244 333q0 16 15 26t39 10q20 0 35 -9t15 -28q0 -22 -50 -53q-36 22 -45 30.5 t-9 23.5z" />
<glyph unicode="&#x277e;" d="M298 -8q-107 0 -183.5 78.5t-76.5 188.5q0 111 76.5 189.5t183.5 78.5q110 0 187 -78.5t77 -189.5t-77 -189t-187 -78zM220 146v-32q24 -2 29 -2q71 0 111 41.5t40 112.5q0 134 -98 134q-44 0 -69.5 -26t-25.5 -69q0 -39 24 -59t60 -20q39 0 74 19q-5 -49 -36.5 -76 t-77.5 -27q-12 0 -31 4zM302 256q-60 0 -60 54q0 25 14 42.5t42 17.5q64 0 68 -91q-32 -23 -64 -23z" />
<glyph unicode="&#x277f;" d="M298 -8q-107 0 -183.5 78.5t-76.5 188.5q0 111 76.5 189.5t183.5 78.5q110 0 187 -78.5t77 -189.5t-77 -189t-187 -78zM185 365v-251h34v284l-97 -5v-31zM372 110q32 0 55 14.5t34.5 38.5t16 48t4.5 51q0 136 -108 136t-108 -148q0 -66 26.5 -103t79.5 -37zM375 140 q-74 0 -74 119q0 108 71 108q75 0 75 -109q0 -118 -72 -118z" />
<glyph unicode="&#x301a;" d="M157 -183v903h286v-58h-59v-790h59v-55h-286zM229 662v-790h86v790h-86z" />
<glyph unicode="&#x301b;" d="M443 720v-903h-286v55h59v790h-59v58h286zM371 662h-86v-790h86v790z" />
<glyph unicode="&#xf8ff;" d="M162 265v132h136v-132h-66v68h-4v-68h-66zM302 265v64h68v4h-68v64h136v-132h-136z" />
<glyph d="M302 659q246 0 246 -317q0 -52 -6 -98t-23 -94t-44 -82t-73 -56t-107 -22q-244 0 -244 322q0 347 251 347zM302 57q165 0 165 274q0 42 -3 74.5t-13.5 69.5t-28 60.5t-50 39.5t-76.5 16q-164 0 -164 -257q0 -47 3 -82.5t13.5 -74t28 -63.5t49.5 -41t76 -16z" />
<glyph horiz-adv-x="1200" d="M79 0v71h180v508h-180v71h448v-71h-187v-508h187v-71h-448zM694 579v71h381v-385q0 -269 -354 -303l-13 70q116 16 171 43q115 57 115 197v307h-300zM453 777l-175 -82l-23 41l164 106zM1026 777l-175 -82l-23 41l164 106z" />
<glyph horiz-adv-x="1200" d="M688 412v65h336v-449q0 -252 -335 -252l-3 69q32 0 55 1.5t57 7t57 18.5t45.5 34t34 55.5t11.5 79.5v371h-258zM81 0v65h177v347h-177v65h257v-65h-1v-347h182v-65h-438zM999 664l-144 -115l-33 34l129 134zM375 664l-144 -115l-33 34l129 134z" />
<glyph d="M113 128q0 39 21 71.5t50.5 54t59.5 41.5t51 44t21 52q0 26 -20 57l80 20q18 -37 18 -78q0 -32 -20 -61t-49 -50.5l-58 -43t-49 -48t-20 -55.5q0 -37 32 -57t82 -20q83 0 139 56l36 -57q-75 -65 -185 -65q-84 0 -136.5 37.5t-52.5 101.5zM377 609q0 -48 -52 -48 q-23 0 -38 12t-15 36q0 49 53 49q52 0 52 -49z" />
<glyph d="M339 -2h-76v226l8 224h59l9 -225v-225zM352 609q0 -23 -14 -35.5t-38 -12.5q-23 0 -38 12t-15 36t14.5 36.5t38.5 12.5q52 0 52 -49z" />
<glyph d="M428 292h-256v70h256v-70z" />
<glyph d="M80 301v58h440v-58h-440z" />
<glyph d="M0 301v58h599v-58h-599z" />
<glyph d="M382 704l38 -43q-83 -63 -126 -159t-43 -193q0 -219 174 -359l-38 -43q-212 162 -212 400q0 109 53 215t154 182z" />
<glyph d="M179 661l39 43q101 -76 154 -182t53 -215q0 -238 -212 -400l-38 43q174 140 174 359q0 97 -43 193t-127 159z" />
<glyph d="M201 -86v795h198v-57h-128v-682h128v-56h-198z" />
<glyph d="M399 709v-794h-198v55h129v682h-129v57h198z" />
<glyph d="M404 -89q-93 0 -123 39.5t-30 117.5v157q0 55 -65 61h-25v54q18 0 23 1q67 5 67 60v155q0 76 31 117t123 41h34v-51h-31q-59 0 -75.5 -22.5t-16.5 -82.5v-100q0 -64 -15.5 -98.5t-58.5 -45.5q42 -9 58 -45t16 -99v-103q0 -61 15.5 -83t74.5 -22h33v-51h-35z" />
<glyph d="M196 -89h-35v51h33q59 0 74.5 22t15.5 83v103q0 63 16 99t58 45q-43 11 -58.5 45.5t-15.5 98.5v100q0 60 -16.5 82.5t-75.5 22.5h-31v51h34q92 0 123 -41t31 -117v-155q0 -57 69 -60q5 -1 21 -1v-54h-21q-69 -5 -69 -61v-157q0 -78 -30 -117.5t-123 -39.5z" />
<glyph d="M157 -86v795h286v-57h-59v-682h59v-56h-286zM229 652v-682h86v682h-86z" />
<glyph d="M443 709v-795h-286v56h59v682h-59v57h286zM371 652h-86v-682h86v682z" />
<glyph d="M67 255q0 283 233 457l40 -44q-95 -82 -146.5 -177.5t-51.5 -232.5q0 -96 27 -175t67.5 -131t103.5 -107l-37 -42q-236 169 -236 452zM259 255q0 282 233 457l41 -44q-96 -82 -147.5 -177.5t-51.5 -232.5q0 -140 51 -234.5t148 -178.5l-38 -42q-236 169 -236 452z" />
<glyph d="M287 704l39 -43q-84 -63 -127 -159t-43 -193q0 -217 174 -359l-37 -43q-213 162 -213 400q0 109 53 215t154 182zM476 702l38 -42q-84 -64 -126.5 -159.5t-42.5 -193.5q0 -219 174 -358l-38 -43q-212 162 -212 400q0 108 53 214.5t154 181.5z" />
<glyph d="M340 255q0 -284 -236 -452l-37 42q97 84 148 178.5t51 234.5q0 137 -51.5 232.5t-147.5 177.5l41 44q232 -174 232 -457zM533 255q0 -283 -236 -452l-38 42q97 84 148 178.5t51 234.5q0 137 -51.5 232.5t-146.5 177.5l40 44q233 -175 233 -457z" />
<glyph d="M85 660l38 42q101 -75 154 -181.5t53 -214.5q0 -238 -212 -400l-38 43q174 139 174 358q0 98 -42.5 193.5t-126.5 159.5zM273 661l39 43q101 -76 154 -182t53 -215q0 -238 -213 -400l-37 43q174 142 174 359q0 97 -43 193t-127 159z" />
<glyph d="M271 552l126 -231l-126 -231h-69l112 235l-112 227h69z" />
<glyph d="M202 321l125 231h70l-112 -227l112 -235h-70z" />
<glyph d="M104 321l125 231h69l-111 -227l111 -235h-69zM301 321l125 231h69l-111 -227l111 -235h-69z" />
<glyph d="M173 552l125 -231l-125 -231h-69l111 235l-111 227h69zM370 552l125 -231l-125 -231h-69l111 235l-111 227h69z" />
<glyph d="M399 777l-175 -82l-23 41l164 106z" />
<glyph d="M372 836h52q0 -56 -32 -87.5t-91 -31.5q-61 0 -93 31.5t-32 87.5h54q0 -31 17.5 -50t53.5 -19q71 0 71 69z" />
<glyph d="M277 705l-119 97l35 44l107 -82l107 82l34 -42l-121 -99h-43z" />
<glyph d="M322 845l119 -97l-35 -44l-108 82l-107 -82l-33 42l121 99h43z" />
<glyph d="M163 774q0 20 13.5 33.5t32.5 13.5t33 -13.5t14 -33.5q0 -19 -13.5 -32.5t-33.5 -13.5q-19 0 -32.5 13t-13.5 33zM343 774q0 20 13.5 33.5t32.5 13.5t33 -13.5t14 -33.5q0 -19 -13.5 -32.5t-33.5 -13.5q-19 0 -32.5 13t-13.5 33z" />
<glyph d="M251 780q0 20 14 34.5t34 14.5t34.5 -14.5t14.5 -34.5t-14.5 -34t-34.5 -14t-34 14t-14 34z" />
<glyph d="M322 808l-166 -113l-29 36l151 137zM472 760l-179 -65l-20 41l170 91z" />
<glyph d="M376 695l-175 82l34 65l164 -106z" />
<glyph d="M162 743v57h275v-57h-275z" />
<glyph d="M170 726l-28 29q46 62 97 62q27 0 67.5 -14.5t59.5 -14.5q39 0 65 31l27 -30q-43 -61 -96 -61q-21 0 -62.5 15.5t-61.5 15.5q-40 0 -68 -33z" />
<glyph d="M288 -65h65q-4 -91 -57 -176l-49 15q41 78 41 161z" />
<glyph d="M299 686q-46 0 -74.5 27t-28.5 71t30.5 70.5t74.5 26.5q45 0 73.5 -26t28.5 -71q0 -41 -29 -69.5t-75 -28.5zM299 727q53 0 53 57t-53 57t-53 -57t53 -57z" />
<glyph d="M253 506l26 179h68l-43 -179h-51z" />
<glyph d="M303 511q107 -2 173.5 -67t66.5 -194q0 -115 -71 -188t-176 -73q-104 0 -171.5 69t-67.5 192q0 120 71 190.5t175 70.5zM299 56q73 0 118.5 50t45.5 144q0 194 -164 194q-76 0 -119 -49t-43 -145q0 -95 44.5 -144.5t117.5 -49.5z" />
<glyph d="M303 511q107 -2 173.5 -67t66.5 -194q0 -115 -71 -188t-176 -73q-104 0 -171.5 69t-67.5 192q0 120 71 190.5t175 70.5zM137 250q0 -97 48 -148l189 327q-33 15 -75 15q-76 0 -119 -49t-43 -145zM299 56q73 0 118.5 50t45.5 144q0 101 -47 150l-190 -329q33 -15 73 -15z " />
<glyph d="M267 419l-156 -37v65l235 61v-439h188v-69h-451v69h184v350z" />
<glyph d="M96 56q288 181 288 294q0 46 -25 69.5t-69 23.5q-82 0 -126 -69l-44 52q26 34 73 59.5t106 25.5q74 0 120.5 -39t46.5 -115q0 -41 -23 -82t-65.5 -78.5t-84 -66.5t-95.5 -61h306v-69h-408v56z" />
<glyph d="M481 364q0 -62 -42 -104t-112 -59q87 -14 135.5 -59.5t48.5 -116.5q0 -75 -57.5 -129t-176.5 -54q-60 0 -114 20.5t-75 39.5l43 64q67 -56 154 -56q59 0 102 30.5t43 83.5q0 66 -64 99.5t-169 39.5v54q83 7 142.5 42t59.5 92q0 43 -31.5 67t-81.5 24q-74 0 -133 -47 l-35 56q8 7 23.5 17t63.5 26.5t97 16.5q77 0 128 -42t51 -105z" />
<glyph d="M446 27v-168h-78v168h-313v54l309 426h82v-414h98v-66h-98zM134 94h234v318z" />
<glyph d="M213 433v-177q293 -4 293 -213q0 -84 -59 -142t-176 -58q-103 0 -177 62l40 64q62 -59 148 -59q59 0 100.5 33.5t41.5 94.5q0 85 -72 119.5t-215 34.5v311h351v-70h-275z" />
<glyph d="M441 198q0 67 -33.5 97.5t-104.5 30.5q-80 0 -145 -53q1 -47 8 -83t23.5 -67.5t47.5 -48.5t76 -17q64 0 96 41t32 100zM522 211q0 -101 -57.5 -161t-159.5 -60q-228 0 -228 310q0 168 92.5 263t253.5 95q37 0 69 -4v-72q-36 6 -70 6q-110 0 -183 -62.5t-79 -184.5 q79 52 169 52q85 0 139 -47t54 -135z" />
<glyph d="M517 503v-48l-281 -601h-79l272 579h-347v70h435z" />
<glyph d="M499 509q0 -84 -148 -161q39 -21 61 -34.5t52.5 -37.5t45 -51t14.5 -59q0 -77 -66.5 -126.5t-159.5 -49.5q-90 0 -156 43.5t-66 118.5q0 64 44 107.5t118 80.5q-80 48 -103 71q-38 39 -38 94q0 68 60.5 111t145.5 43q88 0 142 -41t54 -109zM443 161q0 22 -12 42.5t-37 39 t-42.5 29.5t-49.5 28l-3 1.5t-2.5 1.5t-3 1.5t-2.5 1.5q-134 -67 -134 -147q0 -51 41.5 -79t107.5 -28q61 0 99 30t38 79zM176 510q0 -37 23 -59.5t102 -71.5q60 38 88 67t28 60q0 46 -33.5 68t-82.5 22q-57 0 -91 -23.5t-34 -62.5z" />
<glyph d="M159 303q0 -67 33 -97.5t104 -30.5q80 0 145 53q-2 100 -35.5 158t-118.5 58q-65 0 -96.5 -40.5t-31.5 -100.5zM77 290q0 101 57.5 161t160.5 60q227 0 227 -310q0 -168 -92.5 -263t-253.5 -95q-37 0 -69 4v72q36 -6 70 -6q111 0 184 62.5t79 184.5q-79 -52 -170 -52 q-84 0 -138.5 47t-54.5 135z" />
<glyph d="M298 -7q-98 0 -168.5 72t-70.5 173q0 102 70.5 174t168.5 72q100 0 171 -72t71 -174q0 -103 -70.5 -174t-171.5 -71zM298 26q88 0 146 59.5t58 152.5q0 88 -58.5 150t-145.5 62q-86 0 -143.5 -59.5t-57.5 -152.5t58.5 -152.5t142.5 -59.5zM311 81q-75 0 -117 38t-42 117 q0 76 44.5 117t119.5 41q53 0 89 -18l-15 -44q-30 21 -75 21q-111 0 -111 -117q0 -114 110 -114q53 0 83 19l12 -41q-41 -19 -98 -19z" />
<glyph d="M298 -7q-98 0 -168.5 72t-70.5 173q0 102 70.5 174t168.5 72q100 0 171 -72t71 -174q0 -103 -70.5 -174t-171.5 -71zM298 26q88 0 146 59.5t58 152.5q0 88 -58.5 150t-145.5 62q-86 0 -143.5 -59.5t-57.5 -152.5t58.5 -152.5t142.5 -59.5zM210 72v326h101q118 0 118 -104 q0 -50 -30.5 -78t-82.5 -28h-58v-116h-48zM258 227h52q67 0 67 65q0 36 -15.5 51.5t-53.5 15.5h-50v-132z" />
<glyph d="M298 -7q-98 0 -168.5 72t-70.5 173q0 102 70.5 174t168.5 72q100 0 171 -72t71 -174q0 -103 -70.5 -174t-171.5 -71zM298 26q88 0 146 59.5t58 152.5q0 88 -58.5 150t-145.5 62q-86 0 -143.5 -59.5t-57.5 -152.5t58.5 -152.5t142.5 -59.5zM209 125q-35 0 -58.5 32.5 t-23.5 80.5q0 47 25.5 80t62.5 33q51 0 89 -84q15 36 38.5 60t49.5 24q38 0 60 -32.5t22 -80.5t-25 -80.5t-62 -32.5q-49 0 -84 84q-15 -36 -40 -60t-54 -24zM164 238q0 -77 47 -77q21 0 42 20.5t36 56.5q-13 34 -32.5 54.5t-39.5 20.5q-53 0 -53 -75zM319 238 q29 -77 67 -77q49 0 49 78q0 74 -44 74q-41 0 -72 -75z" />
<glyph />
<glyph />
</font>
</defs>
</svg>
