<?xml version="1.0" standalone="no"?>
<!DOCTYPE svg PUBLIC "-//W3C//DTD SVG 1.1//EN" "http://www.w3.org/Graphics/SVG/1.1/DTD/svg11.dtd" >
<svg xmlns="http://www.w3.org/2000/svg">
<metadata></metadata>
<defs>
<font id="typoninesans_monospacetext" horiz-adv-x="600" >
<font-face units-per-em="1000" ascent="780" descent="-220" />
<missing-glyph horiz-adv-x="500" />
<glyph unicode=" " />
<glyph unicode="!" d="M250 650h98v-223l-10 -211h-77l-11 212v222zM235 51q0 28 17 44t47 16q29 0 47.5 -15.5t18.5 -44.5q0 -30 -17.5 -46t-48.5 -16q-64 0 -64 62z" />
<glyph unicode="&#x22;" d="M262 650l-20 -294h-69l-21 294h110zM448 650l-20 -294h-69l-21 294h110z" />
<glyph unicode="#" d="M317 0l27 148h-139l-27 -148h-83l27 148h-92l13 64h90l25 134h-99l12 63h98l27 145h83l-27 -145h139l27 145h83l-27 -145h96l-12 -63h-95l-25 -134h104l-13 -64h-102l-27 -148h-83zM241 346l-25 -134h139l25 134h-139z" />
<glyph unicode="$" d="M274 676h54v-56q87 -3 154 -37l-28 -82q-54 38 -126 43v-178q42 -18 65 -30t54 -35t45.5 -53t14.5 -69q0 -64 -49.5 -106.5t-129.5 -52.5v-54h-54v51q-109 2 -182 47l31 80q74 -50 151 -53v205q-41 18 -63 29t-51 31.5t-42.5 47t-13.5 60.5q0 62 47.5 104.5t122.5 50.5 v57zM413 171q0 57 -85 100v-177q38 7 61.5 27t23.5 50zM198 472q0 -47 76 -83v153q-76 -14 -76 -70z" />
<glyph unicode="%" d="M164 659q72 0 108 -42t36 -121q0 -68 -38 -115t-108 -47q-71 0 -108 41.5t-37 120.5q0 72 38.5 117.5t108.5 45.5zM503 560l-367 -498l-45 27l367 502zM163 403q41 0 57 23.5t16 69.5q0 94 -73 94q-42 0 -58 -25t-16 -69q0 -46 16 -69.5t58 -23.5zM438 315 q72 0 108.5 -42.5t36.5 -120.5q0 -68 -38.5 -115.5t-108.5 -47.5q-142 0 -142 163q0 72 37.5 117.5t106.5 45.5zM437 59q41 0 57.5 24t16.5 69q0 94 -74 94t-74 -94q0 -46 16 -69.5t58 -23.5z" />
<glyph unicode="&#x26;" d="M20 157q0 68 38 118.5t108 71.5q-20 78 -20 143q0 76 38.5 122.5t103.5 46.5q54 0 95.5 -34t41.5 -107q0 -77 -46.5 -129.5t-115.5 -76.5q32 -102 78 -153q37 62 46 168h181v-76h-122q-18 -75 -63 -138q41 -41 91 -41t80 46l37 -69q-48 -59 -124 -59q-79 0 -146 59 q-64 -59 -145 -59q-69 0 -112.5 46.5t-43.5 120.5zM182 288q-72 -34 -72 -113q0 -49 23 -76t62 -27q43 0 80 34q-60 75 -93 182zM336 505q0 81 -52 81q-55 0 -55 -82q0 -58 17 -129q44 16 67 46.5t23 83.5z" />
<glyph unicode="'" d="M355 650l-21 -294h-68l-21 294h110z" />
<glyph unicode="(" d="M152 260q0 141 62.5 258.5t175.5 201.5l57 -58q-196 -166 -196 -397q0 -132 51.5 -226.5t145.5 -176.5l-52 -56q-117 83 -180.5 200t-63.5 254z" />
<glyph unicode=")" d="M448 260q0 -138 -63.5 -254.5t-180.5 -199.5l-52 56q94 82 145.5 176.5t51.5 226.5q0 231 -196 397l57 58q113 -84 175.5 -201.5t62.5 -258.5z" />
<glyph unicode="*" d="M343 337h-89l25 121q5 -4 18 -4q10 0 16 3zM343 639l-30 -116q-7 4 -16 4q-6 0 -14 -2l-29 114h89zM260 486q1 -13 13 -25l-89 -91l-49 75zM135 532l49 75l92 -86q-15 -8 -17 -27zM416 371l-98 90q13 8 15 23l132 -40zM465 533l-131 -39q-3 17 -15 26l97 86z" />
<glyph unicode="+" d="M259 93v160h-167v72h167v157h81v-157h168v-72h-168v-160h-81z" />
<glyph unicode="," d="M282 96h94q-4 -120 -86 -235l-66 20q57 102 58 215z" />
<glyph unicode="-" d="M433 211h-266v89h266v-89z" />
<glyph unicode="." d="M235 51q0 28 17 44t47 16q29 0 47.5 -15.5t18.5 -44.5q0 -30 -17.5 -46t-48.5 -16q-64 0 -64 62z" />
<glyph unicode="/" d="M416 686h82l-312 -728h-83z" />
<glyph unicode="0" d="M304 659q247 0 247 -318q0 -351 -256 -351q-246 0 -246 322q0 347 255 347zM155 333q0 -146 34 -201l170 429q-31 12 -63 12q-141 0 -141 -240zM302 76q43 0 72.5 20t44 57.5t20 79t5.5 97.5q0 131 -33 185l-169 -428q25 -11 60 -11z" />
<glyph unicode="1" d="M80 0v89h173v464l-139 -27v81l242 52v-570h181v-89h-457z" />
<glyph unicode="2" d="M77 69q104 71 206.5 193t102.5 208q0 48 -28 75.5t-74 27.5q-73 0 -133 -69l-51 69q25 28 79.5 57t125.5 29q84 0 136.5 -47t52.5 -130q0 -91 -88 -202t-198 -191h315v-89h-446v69z" />
<glyph unicode="3" d="M489 506q0 -58 -39 -98t-105 -57q81 -15 127 -61t46 -115q0 -74 -58.5 -129.5t-178.5 -55.5q-64 0 -119 21t-80 43l53 83q71 -60 153 -60q51 0 87.5 26t36.5 72q0 61 -60.5 92t-160.5 36v67q79 6 135.5 39t56.5 82q0 39 -28.5 60t-71.5 21q-70 0 -129 -51l-45 71 q3 3 8.5 7.5t25 16t41 20.5t55 16t67.5 7q80 0 131.5 -43.5t51.5 -109.5z" />
<glyph unicode="4" d="M454 151v-150h-103v150h-299v65l297 434h105v-414h94v-85h-94zM153 236h198v288z" />
<glyph unicode="5" d="M233 561v-154q140 -1 210.5 -58t70.5 -156q0 -84 -61.5 -143.5t-179.5 -59.5q-107 0 -186 66l49 83q65 -63 145 -63q52 0 89 29.5t37 81.5q0 75 -65.5 107.5t-206.5 32.5v323h362v-89h-264z" />
<glyph unicode="6" d="M420 202q0 59 -28.5 86t-88.5 27q-71 0 -123 -41q1 -95 29.5 -146.5t103.5 -51.5q55 0 81 36.5t26 89.5zM526 215q0 -103 -58 -164t-163 -61q-231 0 -231 311q0 169 91.5 263t248.5 94q40 0 83 -6v-91q-43 8 -79 8q-98 0 -162 -52t-73 -159q71 44 146 44 q88 0 142.5 -48.5t54.5 -138.5z" />
<glyph unicode="7" d="M521 650v-59l-272 -590h-103l259 560h-326v89h442z" />
<glyph unicode="8" d="M505 504q0 -80 -139 -156q73 -37 118 -79.5t45 -98.5q0 -78 -67 -129t-164 -51q-95 0 -160.5 44t-65.5 122q0 106 153 181q-29 18 -43 27t-35 26t-30 31t-16.5 34.5t-7.5 44.5q0 69 62.5 114t148.5 45q90 0 145.5 -43t55.5 -112zM423 164q0 20 -11 38.5t-35 37t-39.5 28 t-46.5 27.5q-114 -64 -114 -131q0 -47 35.5 -72t93.5 -25q52 0 84.5 26.5t32.5 70.5zM196 506q0 -33 21 -54.5t85 -62.5q49 34 73 59.5t24 52.5q0 39 -27.5 59t-70.5 20q-49 0 -77 -21t-28 -53z" />
<glyph unicode="9" d="M180 447q0 -59 28.5 -86t88.5 -27q72 0 123 42q-1 95 -29.5 146t-103.5 51q-55 0 -81 -36.5t-26 -89.5zM74 435q0 103 58 163.5t163 60.5q231 0 231 -310q0 -169 -91.5 -263.5t-248.5 -94.5q-40 0 -83 6v92q43 -8 80 -8q97 0 161.5 51.5t72.5 158.5q-72 -43 -146 -43 q-89 0 -143 48.5t-54 138.5z" />
<glyph unicode=":" d="M235 51q0 28 17 44t47 16q29 0 47.5 -15.5t18.5 -44.5q0 -30 -17.5 -46t-48.5 -16q-64 0 -64 62zM235 388q0 28 17 44t47 16q29 0 47.5 -15.5t18.5 -44.5q0 -61 -66 -61q-64 0 -64 61z" />
<glyph unicode=";" d="M255 388q0 28 17.5 44t47.5 16q29 0 47 -15t18 -45q0 -61 -65 -61t-65 61zM273 96h94q-4 -120 -86 -235l-66 20q57 102 58 215z" />
<glyph unicode="&#x3c;" d="M436 17l-324 237v66l325 228l51 -70l-275 -190l273 -202z" />
<glyph unicode="=" d="M513 350h-427v74h427v-74zM513 160h-427v74h427v-74z" />
<glyph unicode="&#x3e;" d="M488 254l-324 -237l-50 69l272 202l-274 190l50 70l326 -228v-66z" />
<glyph unicode="?" d="M494 517q0 -37 -20 -67.5t-48 -51.5t-56.5 -39.5t-48.5 -41.5t-20 -48t21 -54l-103 -26q-18 41 -18 81q0 37 28.5 71.5t62 56.5t62 52.5t28.5 60.5q0 32 -27 49t-70 17q-80 0 -134 -54l-44 70q79 66 193 66q84 0 138.5 -37.5t55.5 -104.5zM216 51q0 28 17.5 44t47.5 16 q29 0 47 -15t18 -45t-17 -46t-48 -16q-65 0 -65 62z" />
<glyph unicode="@" d="M317 530q-119 0 -183.5 -84t-64.5 -246q0 -150 64 -230.5t179 -80.5q108 0 211 70l24 -44q-107 -77 -244 -77q-130 0 -209.5 92t-79.5 273q0 179 81 279t224 100q73 0 126.5 -25.5t83.5 -71t44 -100.5t14 -122q0 -48 -6 -89.5t-19 -79.5t-38.5 -60.5t-60.5 -22.5 q-72 0 -91 63q-46 -64 -116 -64q-51 0 -82 31.5t-31 86.5q0 124 177 124q18 0 46 -2l1 43q0 41 -16.5 58t-49.5 17q-24 0 -44 -10.5t-20 -35.5q0 -8 3 -17l-68 -11q-6 18 -6 34q0 48 41.5 79t101.5 31q135 0 135 -138l-2 -197q0 -21 10.5 -31.5t23.5 -10.5q33 0 44 49.5 t11 146.5q0 273 -214 273zM366 129v65q-19 4 -49 4q-94 0 -94 -63q0 -27 16 -41t41 -14q48 0 86 49z" />
<glyph unicode="A" d="M129 0h-108l220 650h116l222 -650h-113l-51 160h-237zM389 245l-94 299l-91 -299h185z" />
<glyph unicode="B" d="M550 187q0 -90 -56.5 -138.5t-163.5 -48.5h-253v650h224q201 0 201 -158q0 -106 -101 -142v-2q149 -22 149 -161zM300 296h-117v-205h130q67 0 96.5 23.5t29.5 77.5q0 104 -139 104zM392 476q0 85 -108 85h-101v-182h95q54 0 84 25t30 72z" />
<glyph unicode="C" d="M522 122l25 -86q-88 -46 -197 -46q-141 0 -218.5 83t-77.5 250q0 160 83.5 248t226.5 88q106 0 176 -43l-35 -94q-61 48 -145 48q-194 0 -194 -245q0 -246 194 -246q98 0 162 43z" />
<glyph unicode="D" d="M56 0v650h216q303 0 303 -320q0 -55 -7 -99.5t-27.5 -89t-54 -74.5t-89 -48.5t-129.5 -18.5h-212zM270 561h-108v-470h115q48 0 82.5 12.5t54 32t30.5 51.5t14.5 63t3.5 75q0 54 -7.5 92.5t-27.5 73t-59 52.5t-98 18z" />
<glyph unicode="E" d="M79 650h451v-89h-345v-184h313v-88h-313v-198h344v-91h-450v650z" />
<glyph unicode="F" d="M82 650h450v-89h-344v-213h314v-88h-314v-260h-106v650z" />
<glyph unicode="G" d="M440 322h105v-269q-102 -63 -206 -63q-139 0 -215.5 81t-76.5 252q0 167 84.5 251.5t226.5 84.5q97 0 179 -41l-37 -99q-64 51 -145 51q-99 0 -147.5 -58.5t-48.5 -186.5q0 -132 50 -189t147 -57q42 0 84 15v228z" />
<glyph unicode="H" d="M438 650h106v-650h-106v285h-275v-285h-106v650h106v-271h275v271z" />
<glyph unicode="I" d="M70 0v91h177v469h-177v90h464v-90h-181v-469h181v-91h-464z" />
<glyph unicode="J" d="M99 560v90h389v-388q0 -70 -25.5 -124.5t-62.5 -86t-89 -53t-96 -30t-92 -11.5l-17 93q43 5 71 9.5t71 20t69 37.5t45.5 62.5t19.5 94.5v286h-283z" />
<glyph unicode="K" d="M71 650h106v-287l59 15l181 272h121l-218 -313l242 -337h-131l-203 286l-51 -11v-275h-106v650z" />
<glyph unicode="L" d="M96 650h106v-559h334v-91h-440v650z" />
<glyph unicode="M" d="M475 0v489l-132 -261h-80l-141 263v-491h-87v650h96l173 -319l165 319h96v-650h-90z" />
<glyph unicode="N" d="M151 495v-495h-100v650h116l283 -480v480h100v-650h-109z" />
<glyph unicode="O" d="M300 659q141 0 207 -81.5t66 -252.5q0 -152 -69 -243.5t-207 -91.5q-270 0 -270 332q0 156 68 246.5t205 90.5zM297 79q91 0 127.5 61t36.5 185q0 131 -34 188t-127 57q-91 0 -125.5 -58t-34.5 -190q0 -126 33 -184.5t124 -58.5z" />
<glyph unicode="P" d="M80 0v650h234q234 0 234 -215q0 -101 -62 -158.5t-171 -57.5h-129v-219h-106zM311 307q124 0 124 124q0 64 -29.5 97t-98.5 33h-121v-254h125z" />
<glyph unicode="Q" d="M300 659q141 0 207 -81.5t66 -252.5q0 -222 -135 -301l166 -173l-88 -59l-160 203q-30 -5 -59 -5q-270 0 -270 332q0 156 68 246.5t205 90.5zM297 79q91 0 127.5 61t36.5 185q0 131 -34 188t-127 57q-91 0 -125.5 -58t-34.5 -190q0 -126 33 -184.5t124 -58.5z" />
<glyph unicode="R" d="M71 0v650h226q123 0 178.5 -52t55.5 -152q0 -67 -30.5 -114.5t-85.5 -71.5l145 -260h-125l-126 238h-132v-238h-106zM294 326q125 0 125 117q0 63 -29.5 90.5t-99.5 27.5h-113v-235h117z" />
<glyph unicode="S" d="M420 165q0 43 -34.5 72t-84 46.5t-99.5 38t-84.5 60.5t-34.5 101q0 77 67 126.5t166 49.5q111 0 193 -46l-31 -101q-68 58 -160 58q-123 0 -123 -79q0 -27 18.5 -47t48.5 -33.5t66 -26.5t71.5 -29.5t65.5 -38t48.5 -57t18.5 -82.5q0 -92 -71 -139.5t-179 -47.5 q-122 0 -213 58l36 100q80 -70 188 -70q57 0 92 21.5t35 65.5z" />
<glyph unicode="T" d="M567 650v-89h-214v-561h-106v561h-214v89h534z" />
<glyph unicode="U" d="M441 252v398h103v-413q0 -122 -63 -184.5t-184 -62.5q-120 0 -180.5 58.5t-60.5 183.5v418h106v-403q0 -95 32 -132t107 -37q78 0 109 39.5t31 134.5z" />
<glyph unicode="V" d="M134 650l175 -543l160 543h108l-210 -650h-122l-221 650h110z" />
<glyph unicode="W" d="M348 487l101 -368l38 531h102l-80 -650h-106l-99 353l-87 -353h-108l-97 650h109l51 -530l90 367h86z" />
<glyph unicode="X" d="M49 650h121l133 -231l135 231h106l-188 -307l213 -343h-121l-153 260l-154 -260h-109l209 338z" />
<glyph unicode="Y" d="M150 650l161 -309l148 309h105l-205 -396v-254h-106v253l-217 397h114z" />
<glyph unicode="Z" d="M81 561v89h454v-78l-347 -482h355v-90h-482v72l351 489h-331z" />
<glyph unicode="[" d="M193 -178v908h215v-71h-124v-769h124v-68h-215z" />
<glyph unicode="\" d="M103 686h81l314 -728h-84z" />
<glyph unicode="]" d="M408 730v-908h-215v68h124v769h-124v71h215z" />
<glyph unicode="^" d="M297 572l-141 -223h-86l196 302h67l197 -302h-86z" />
<glyph unicode="_" d="M46 -111v66h508v-66h-508z" />
<glyph unicode="`" d="M356 546l-151 112l57 67l133 -137z" />
<glyph unicode="a" d="M379 128v78q-36 4 -63 4q-129 0 -129 -73q0 -33 21 -50t57 -17q68 0 114 58zM379 273l1 49q1 49 -21 69t-69 20q-37 0 -63 -13t-26 -43q0 -9 3 -19l-91 -13q-7 18 -7 38q0 57 54.5 93.5t138.5 36.5q86 0 135.5 -37t48.5 -124l-1 -209q0 -50 35 -50q9 0 18 3l7 -75 q-30 -9 -60 -9q-80 0 -97 73q-60 -73 -153 -73q-67 0 -109.5 36.5t-42.5 101.5q0 43 21 73.5t58 46t76.5 22t86.5 6.5q6 0 57 -3z" />
<glyph unicode="b" d="M184 685v-255q71 61 154 61q95 0 148.5 -65t53.5 -176q0 -119 -72 -189.5t-188 -70.5q-109 0 -200 44v651h104zM184 346v-251q37 -20 92 -20q71 0 112.5 43.5t41.5 121.5q0 79 -33.5 119.5t-89.5 40.5q-62 0 -123 -54z" />
<glyph unicode="c" d="M209 237q0 -83 41.5 -122t110.5 -39q37 0 74.5 14t60.5 34l28 -84q-35 -23 -85.5 -36.5t-97.5 -13.5q-105 0 -173 60.5t-68 185.5t71 190t183 65q100 0 172 -43l-33 -92q-62 50 -136 50q-68 0 -108 -41t-40 -128z" />
<glyph unicode="d" d="M525 685v-685h-96l-2 63q-32 -32 -77 -52.5t-88 -20.5q-94 0 -145.5 65t-51.5 176q0 120 69 190t182 70q47 0 105 -12v206h104zM421 140v242q-40 25 -100 25q-69 0 -107.5 -43.5t-38.5 -122.5q0 -80 31.5 -119.5t86.5 -39.5q30 0 65.5 16t62.5 42z" />
<glyph unicode="e" d="M350 73q36 0 77 15.5t66 35.5l27 -83q-87 -51 -194 -51q-106 0 -174.5 63t-68.5 189q0 116 66.5 182.5t162.5 66.5q98 0 156 -58.5t58 -181.5q0 -25 -1 -31h-335q6 -75 49 -111t111 -36zM191 288h230q1 59 -28.5 93t-78.5 34q-55 0 -85.5 -30.5t-37.5 -96.5z" />
<glyph unicode="f" d="M75 0v84h131v310h-101v73l101 6v32q0 93 52.5 141.5t147.5 48.5q78 0 127 -26l-18 -88q-43 31 -106 31q-47 0 -73 -26.5t-26 -79.5v-33h173v-79h-173v-310h189v-84h-424z" />
<glyph unicode="g" d="M522 451v-431q0 -246 -250 -246q-100 0 -185 47l36 95q76 -57 154 -57q68 0 104.5 34.5t36.5 128.5v51q-32 -29 -75 -48t-84 -19q-93 0 -145 59.5t-52 166.5q0 120 72 189.5t187 69.5q108 0 201 -40zM418 156v231q-40 20 -100 20q-69 0 -107.5 -43t-38.5 -122 q0 -144 118 -144q30 0 65.5 16t62.5 42z" />
<glyph unicode="h" d="M190 342v-342h-104v685h104v-261q73 67 165 67q45 0 80.5 -13.5t62 -52.5t26.5 -101v-324h-104v288q0 61 -25 85t-72 24q-69 0 -133 -55z" />
<glyph unicode="i" d="M78 0v84h168v311h-168v84h272v-395h172v-84h-444zM238 639q0 26 18 44.5t43 18.5q26 0 44.5 -18.5t18.5 -44.5q0 -25 -18.5 -43t-44.5 -18q-25 0 -43 18t-18 43z" />
<glyph unicode="j" d="M90 395v84h355v-441q0 -262 -357 -262l-4 90q39 0 66.5 2t66.5 12.5t63.5 29t42.5 55t18 87.5v343h-251zM333 639q0 26 18 44.5t44 18.5t44 -18.5t18 -44.5q0 -25 -18 -43t-44 -18t-44 17.5t-18 43.5z" />
<glyph unicode="k" d="M332 254l202 -254h-129l-155 204l-60 -11v-193h-104v685h104v-410l58 13l141 191h114z" />
<glyph unicode="l" d="M75 0v84h173v518h-165v83h269v-601h167v-84h-444z" />
<glyph unicode="m" d="M134 347v-347h-90v479h83l1 -72q55 84 118 84q75 0 94 -81q52 81 118 81q57 0 79.5 -39t22.5 -122v-330h-91v315q0 57 -9 75t-33 18q-41 0 -80 -60v-348h-90v315q0 53 -9 73t-32 20q-44 0 -82 -61z" />
<glyph unicode="n" d="M190 342v-342h-104v479h96l2 -61q73 73 171 73q45 0 80.5 -13.5t62 -52.5t26.5 -101v-324h-104v288q0 61 -25 85.5t-72 24.5q-68 0 -133 -56z" />
<glyph unicode="o" d="M55 242q0 111 68 180t177 69q115 0 180.5 -65.5t65.5 -183.5q0 -108 -66.5 -180t-178.5 -72q-114 0 -180 66t-66 186zM165 242q0 -169 133 -169q73 0 105.5 42.5t32.5 126.5q0 166 -138 166q-68 0 -100.5 -44t-32.5 -122z" />
<glyph unicode="p" d="M285 -10q-39 0 -101 12v-222h-104v699h96l2 -60q32 32 75.5 52t86.5 20q94 0 147 -65t53 -176q0 -119 -71 -189.5t-184 -70.5zM184 341v-243q37 -23 96 -23q69 0 109.5 43.5t40.5 121.5q0 80 -32.5 120t-88.5 40q-64 0 -125 -59z" />
<glyph unicode="q" d="M421 -220v277q-72 -67 -155 -67q-95 0 -148 65t-53 176q0 120 73 190t189 70q105 0 198 -43v-668h-104zM421 140v245q-41 22 -97 22q-69 0 -109 -43.5t-40 -122.5t33 -119t88 -40q65 0 125 58z" />
<glyph unicode="r" d="M47 0v84h159v311h-151v84h245l4 -94q30 48 78.5 74.5t94.5 26.5q15 0 32 -3l-8 -106q-20 7 -47 7q-35 0 -78 -22.5t-66 -54.5v-223h206v-84h-469z" />
<glyph unicode="s" d="M397 132q0 29 -29.5 47t-72 29t-85 24.5t-72 43.5t-29.5 77q0 66 58 102t144 36q119 0 184 -38l-30 -90q-21 19 -62.5 33.5t-83.5 14.5q-104 0 -104 -53q0 -23 30 -38t72.5 -26t85 -26.5t72.5 -48.5t30 -82q0 -41 -20 -71t-54 -46t-71 -23t-79 -7q-117 0 -181 40l27 91 q63 -50 155 -50q48 0 81.5 14.5t33.5 46.5z" />
<glyph unicode="t" d="M279 394v-223q0 -54 24 -75t69 -21q56 0 115 38l19 -85q-70 -38 -158 -38q-77 0 -125 38t-48 126v240h-112v73l114 7l13 127h89v-128h203v-79h-203z" />
<glyph unicode="u" d="M409 139v340h104v-479h-94l-4 63q-74 -74 -168 -74q-72 0 -121 37.5t-49 130.5v322h104v-291q0 -61 24 -86t69 -25q64 0 135 62z" />
<glyph unicode="v" d="M363 0h-130l-171 479h110l130 -397l129 397h108z" />
<glyph unicode="w" d="M218 0h-106l-96 479h100l55 -391l91 320h82l91 -320l53 391h98l-100 -479h-106l-81 296z" />
<glyph unicode="x" d="M304 325l97 154h106l-148 -222l166 -257h-112l-115 184l-120 -184h-103l168 251l-148 228h112z" />
<glyph unicode="y" d="M538 479l-261 -699h-102l73 198l-186 501h111l133 -375l128 375h104z" />
<glyph unicode="z" d="M212 84h306v-84h-440v64l279 331h-263v84h405v-64z" />
<glyph unicode="{" d="M401 -181q-96 0 -127.5 39t-31.5 121v211q0 47 -62 50q-3 1 -25 1v67q21 0 24 1q63 3 63 50v211q0 35 6 61t22.5 50t50 36.5t83.5 12.5h42v-64h-37q-52 0 -68.5 -21t-16.5 -74v-157q0 -60 -16 -93.5t-63 -45.5q79 -15 79 -137v-161q0 -53 14.5 -73t66.5 -20h41v-65h-45z " />
<glyph unicode="|" d="M259 686h82v-696h-82v696z" />
<glyph unicode="}" d="M199 -181h-44v65h40q53 0 67.5 20t14.5 73v161q0 59 17 94t62 43q-47 12 -63 45.5t-16 93.5v157q0 53 -16.5 74t-69.5 21h-36v64h41q50 0 83.5 -12.5t50 -36t23 -50t6.5 -61.5v-211q0 -48 67 -51h20v-67h-21q-34 -2 -50 -13.5t-16 -37.5v-211q0 -82 -32 -121t-128 -39z " />
<glyph unicode="~" d="M406 215q-45 0 -114 42t-107 42q-48 0 -102 -75l-51 38q38 62 76.5 85t82.5 23q40 0 84.5 -21t81.5 -41.5t59 -20.5q28 0 49 20t50 68l53 -38q-70 -122 -162 -122z" />
<glyph unicode="&#xa0;" />
<glyph unicode="&#xa1;" d="M349 -189h-98v223l10 211h77l11 -212v-222zM364 410q0 -28 -17 -44t-47 -16q-29 0 -47.5 15.5t-18.5 44.5q0 30 17.5 46t48.5 16q64 0 64 -62z" />
<glyph unicode="&#xa2;" d="M307 568h62v-78q68 -4 126 -35l-33 -94q-44 36 -93 42v-326q55 6 97 42l28 -84q-53 -34 -125 -43v-66h-62v65q-93 8 -147.5 71t-54.5 174q0 107 55 174t147 78v80zM214 237q0 -128 93 -155v317q-93 -25 -93 -162z" />
<glyph unicode="&#xa3;" d="M133 288h-85v73h85v70q0 109 63 168.5t157 59.5q97 0 163 -56l-47 -76q-52 49 -111 49q-122 0 -122 -144v-71h222v-73h-222v-59q0 -49 -14 -83.5t-52 -61.5h205q55 0 85.5 17.5t51.5 49.5l51 -66q-17 -33 -58 -59t-105 -26h-363v64q43 5 69.5 43.5t26.5 81.5v99z" />
<glyph unicode="&#xa4;" d="M118 47l-41 37l98 97q-26 41 -26 83q0 43 26 79q-86 86 -98 97l40 42l100 -98q38 23 81 23t83 -24l101 98l41 -40l-100 -98q26 -33 26 -79q0 -44 -26 -82l100 -98l-42 -36l-99 95q-35 -24 -82 -24q-41 0 -83 24zM300 186q32 0 52 22t20 55q0 34 -19.5 54.5t-52.5 20.5 q-34 0 -53.5 -20.5t-19.5 -54.5t20 -55.5t53 -21.5z" />
<glyph unicode="&#xa5;" d="M150 650l161 -309l148 309h105l-181 -349h128v-73h-152v-72h152v-73h-152v-83h-106v83h-153v73h153v72h-153v73h127l-191 349h114z" />
<glyph unicode="&#xa6;" d="M259 686h83v-288h-83v288zM259 289h83v-299h-83v299z" />
<glyph unicode="&#xa7;" d="M287 -68q0 55 -88 249.5t-88 249.5q1 103 100.5 165.5t210.5 62.5q61 0 116 -13l-2 -88q-66 41 -135 41q-35 0 -53 -21.5t-18 -57.5q0 -50 86.5 -247.5t86.5 -247.5q0 -46 -24 -86t-61 -67t-82.5 -46t-88.5 -27.5t-79 -8.5q-58 0 -106 13l2 89q58 -37 112 -37 q47 0 78.5 18.5t32.5 58.5zM433 17q0 48 -43 146.5t-85.5 199t-42.5 154.5q0 33 18 56q-45 -22 -71 -58.5t-26 -69.5q0 -46 43 -142t86 -196.5t43 -156.5q0 -31 -12 -49q89 43 90 116z" />
<glyph unicode="&#xa8;" d="M154 624q0 23 16.5 39.5t39.5 16.5t39.5 -16.5t16.5 -39.5t-16.5 -39t-39.5 -16t-39.5 16t-16.5 39zM334 624q0 23 16.5 39.5t39.5 16.5t39.5 -16.5t16.5 -39.5t-16.5 -39t-39.5 -16t-39.5 16t-16.5 39z" />
<glyph unicode="&#xa9;" d="M298 -7q-126 0 -209 93t-83 227q0 135 82.5 228t209.5 93q130 0 213.5 -92.5t83.5 -228.5q0 -135 -82.5 -227.5t-214.5 -92.5zM298 32q114 0 183 78.5t69 202.5q0 119 -69.5 200t-182.5 81q-111 0 -179 -79t-68 -202q0 -124 70 -202.5t177 -78.5zM311 110 q-98 0 -151.5 50t-53.5 151q0 98 58.5 152t154.5 54q71 0 122 -28l-25 -65q-45 34 -99 34q-63 0 -97 -37t-34 -108q0 -144 131 -144q60 0 110 31l18 -62q-59 -28 -134 -28z" />
<glyph unicode="&#xaa;" d="M239 275q-55 0 -88.5 28t-33.5 77q0 42 30 68t69 34.5t89 8.5q20 0 30 -1h18v40q0 64 -66 64q-24 0 -44 -9.5t-21 -29.5q0 -7 3 -17l-77 -10q-7 17 -7 32q0 44 44 71.5t110 27.5q65 0 105.5 -29t41.5 -94l-1 -162q0 -34 21 -36q4 0 16 4l5 -60q-27 -7 -50 -7 q-61 0 -74 50q-49 -50 -120 -50zM265 340q50 0 88 40v65q-17 3 -51 3q-41 0 -67.5 -14t-26.5 -43q0 -51 57 -51z" />
<glyph unicode="&#xab;" d="M90 234l130 231h86l-107 -227l107 -235h-86zM294 234l129 231h86l-107 -227l107 -235h-86z" />
<glyph unicode="&#xac;" d="M486 58v205h-454v65h531v-270h-77z" />
<glyph unicode="&#xae;" d="M298 168q-98 0 -168.5 72t-70.5 173q0 102 70.5 174t168.5 72q100 0 171 -72t71 -174q0 -104 -70.5 -174.5t-171.5 -70.5zM298 203q88 0 145 58.5t57 151.5q0 86 -58 148t-144 62t-142.5 -59t-56.5 -151q0 -93 58 -151.5t141 -58.5zM192 258v316h110q123 0 123 -102 q0 -70 -63 -94l62 -120h-69l-51 110h-49v-110h-63zM255 413h44q60 0 60 58q0 31 -13.5 43.5t-48.5 12.5h-42v-114z" />
<glyph unicode="&#xaf;" d="M172 593v69h256v-69h-256z" />
<glyph unicode="&#xb0;" d="M301 393q-64 0 -103 36.5t-39 97.5q0 59 39.5 95.5t102.5 36.5q64 0 102 -35t38 -97q0 -61 -38 -97.5t-102 -36.5zM301 443q37 0 57 23.5t20 60.5t-20 59t-57 22q-38 0 -59 -21.5t-21 -59.5q0 -37 21.5 -60.5t58.5 -23.5z" />
<glyph unicode="&#xb1;" d="M259 126v141h-167v71h167v144h81v-144h168v-71h-168v-141h-81zM92 -2v71h416v-71h-416z" />
<glyph unicode="&#xb4;" d="M395 658l-151 -112l-39 42l133 137z" />
<glyph unicode="&#xb5;" d="M409 139v340h104v-479h-94l-4 63q-74 -74 -163 -74q-61 0 -83 23q22 -48 22 -106v-126h-104v699h104v-291q0 -62 22 -86t66 -24q60 0 130 61z" />
<glyph unicode="&#xb6;" d="M368 650v-870h-85v361q-103 29 -160 95.5t-57 154.5q0 106 79 182.5t223 76.5zM449 -220v870h85v-870h-85z" />
<glyph unicode="&#xb7;" d="M237 295q0 26 18 43.5t44 17.5q27 0 45.5 -17t18.5 -44q0 -28 -18.5 -45t-45.5 -17t-44.5 17t-17.5 45z" />
<glyph unicode="&#xb8;" d="M197 -207l22 58q25 -25 62 -25q46 0 46 34q0 43 -80 46l28 105h54l-17 -67q44 -7 67.5 -31t23.5 -57q0 -39 -33.5 -62.5t-82.5 -23.5q-52 0 -90 23z" />
<glyph unicode="&#xba;" d="M300 275q-91 0 -143 50.5t-52 142.5q0 84 53 137.5t142 53.5q94 0 144.5 -50.5t50.5 -140.5q0 -82 -52 -137.5t-143 -55.5zM299 343q57 0 79.5 31.5t22.5 93.5q0 124 -102 124q-100 0 -100 -124q0 -62 23 -93.5t77 -31.5z" />
<glyph unicode="&#xbb;" d="M176 465l130 -231l-130 -231h-86l108 235l-108 227h86zM380 465l129 -231l-129 -231h-86l107 235l-107 227h86z" />
<glyph unicode="&#xbf;" d="M106 -55q0 37 20 67.5t48 51.5t56.5 39.5t48.5 41.5t20 48t-21 54l103 26q18 -41 18 -81q0 -37 -28.5 -71.5t-62 -56.5t-62 -52.5t-28.5 -60.5q0 -32 27 -49t70 -17q80 0 134 54l44 -70q-79 -66 -193 -66q-84 0 -138.5 37.5t-55.5 104.5zM384 411q0 -28 -17.5 -44 t-47.5 -16q-29 0 -47 15t-18 45t17 46t48 16q65 0 65 -62z" />
<glyph unicode="&#xc0;" d="M129 0h-108l220 650h116l222 -650h-113l-51 160h-237zM389 245l-94 299l-91 -299h185zM340 689l-187 76l38 82l174 -107z" />
<glyph unicode="&#xc1;" d="M129 0h-108l220 650h116l222 -650h-113l-51 160h-237zM389 245l-94 299l-91 -299h185zM436 765l-186 -76l-26 51l175 107z" />
<glyph unicode="&#xc2;" d="M129 0h-108l220 650h116l222 -650h-113l-51 160h-237zM389 245l-94 299l-91 -299h185zM326 850l122 -98l-40 -53l-110 78l-108 -78l-38 51l123 100h51z" />
<glyph unicode="&#xc3;" d="M129 0h-108l220 650h116l222 -650h-113l-51 160h-237zM389 245l-94 299l-91 -299h185zM165 719l-34 35q48 69 103 69q26 0 67 -14.5t61 -14.5q38 0 64 31l33 -37q-43 -68 -103 -68q-20 0 -62 15t-63 15q-38 0 -66 -31z" />
<glyph unicode="&#xc4;" d="M129 0h-108l220 650h116l222 -650h-113l-51 160h-237zM389 245l-94 299l-91 -299h185zM144 776q0 23 16.5 39.5t39.5 16.5t39.5 -16.5t16.5 -39.5t-16.5 -39.5t-39.5 -16.5t-39.5 16.5t-16.5 39.5zM334 776q0 23 16.5 39.5t39.5 16.5t39.5 -16.5t16.5 -39.5t-16.5 -39.5 t-39.5 -16.5t-39.5 16.5t-16.5 39.5z" />
<glyph unicode="&#xc5;" d="M129 0h-108l220 650h116l222 -650h-113l-51 160h-237zM300 686q-48 0 -77 27.5t-29 72.5q0 46 31.5 72.5t76.5 26.5q46 0 75 -25.5t29 -73.5q0 -42 -29 -71t-77 -29zM389 245l-94 299l-91 -299h185zM300 736q47 0 47 50t-47 50q-48 0 -48 -50t48 -50z" />
<glyph unicode="&#xc6;" d="M249 650h342v-89h-197v-184h165v-88h-165v-198h196v-91h-292v145h-136l-49 -145h-108zM190 227h108v317z" />
<glyph unicode="&#xc7;" d="M245 -207l22 58q25 -25 62 -25q46 0 46 34q0 43 -80 46l23 86q-126 8 -195 90.5t-69 240.5q0 160 83.5 248t226.5 88q106 0 176 -43l-35 -94q-61 48 -145 48q-194 0 -194 -245q0 -246 194 -246q98 0 162 43l25 -86q-80 -42 -175 -45l-12 -47q44 -7 67.5 -31t23.5 -57 q0 -39 -33.5 -62.5t-82.5 -23.5q-52 0 -90 23z" />
<glyph unicode="&#xc8;" d="M353 689l-187 76l38 82l174 -107zM79 650h451v-89h-345v-184h313v-88h-313v-198h344v-91h-450v650z" />
<glyph unicode="&#xc9;" d="M436 765l-186 -76l-26 51l175 107zM79 650h451v-89h-345v-184h313v-88h-313v-198h344v-91h-450v650z" />
<glyph unicode="&#xca;" d="M79 650h451v-89h-345v-184h313v-88h-313v-198h344v-91h-450v650zM339 850l122 -98l-40 -53l-110 78l-108 -78l-38 51l123 100h51z" />
<glyph unicode="&#xcb;" d="M160 776q0 23 16.5 39.5t39.5 16.5t39.5 -16.5t16.5 -39.5t-16.5 -39.5t-39.5 -16.5t-39.5 16.5t-16.5 39.5zM350 776q0 23 16.5 39.5t39.5 16.5t39.5 -16.5t16.5 -39.5t-16.5 -39.5t-39.5 -16.5t-39.5 16.5t-16.5 39.5zM79 650h451v-89h-345v-184h313v-88h-313v-198h344 v-91h-450v650z" />
<glyph unicode="&#xcc;" d="M70 0v91h177v469h-177v90h464v-90h-181v-469h181v-91h-464zM340 689l-187 76l38 82l174 -107z" />
<glyph unicode="&#xcd;" d="M70 0v91h177v469h-177v90h464v-90h-181v-469h181v-91h-464zM431 765l-186 -76l-26 51l175 107z" />
<glyph unicode="&#xce;" d="M70 0v91h177v469h-177v90h464v-90h-181v-469h181v-91h-464zM322 850l122 -98l-40 -53l-110 78l-108 -78l-38 51l123 100h51z" />
<glyph unicode="&#xcf;" d="M70 0v91h177v469h-177v90h464v-90h-181v-469h181v-91h-464zM337 776q0 23 16.5 39.5t39.5 16.5t39.5 -16.5t16.5 -39.5t-16.5 -39.5t-39.5 -16.5t-39.5 16.5t-16.5 39.5zM147 776q0 23 16.5 39.5t39.5 16.5t39.5 -16.5t16.5 -39.5t-16.5 -39.5t-39.5 -16.5t-39.5 16.5 t-16.5 39.5z" />
<glyph unicode="&#xd0;" d="M56 0v289h-55v82h55v279h216q303 0 303 -320q0 -55 -7 -99.5t-27.5 -89t-54 -74.5t-89 -48.5t-129.5 -18.5h-212zM270 561h-108v-190h108v-82h-108v-198h115q48 0 82.5 12.5t54 32t30.5 51.5t14.5 63t3.5 75q0 54 -7.5 92.5t-27.5 73t-59 52.5t-98 18z" />
<glyph unicode="&#xd1;" d="M183 719l-34 35q48 69 103 69q26 0 67 -14.5t61 -14.5q38 0 64 31l33 -37q-43 -68 -103 -68q-20 0 -62 15t-63 15q-38 0 -66 -31zM151 495v-495h-100v650h116l283 -480v480h100v-650h-109z" />
<glyph unicode="&#xd2;" d="M345 689l-187 76l38 82l174 -107zM300 659q141 0 207 -81.5t66 -252.5q0 -152 -69 -243.5t-207 -91.5q-270 0 -270 332q0 156 68 246.5t205 90.5zM297 79q91 0 127.5 61t36.5 185q0 131 -34 188t-127 57q-91 0 -125.5 -58t-34.5 -190q0 -126 33 -184.5t124 -58.5z" />
<glyph unicode="&#xd3;" d="M436 765l-186 -76l-26 51l175 107zM300 659q141 0 207 -81.5t66 -252.5q0 -152 -69 -243.5t-207 -91.5q-270 0 -270 332q0 156 68 246.5t205 90.5zM297 79q91 0 127.5 61t36.5 185q0 131 -34 188t-127 57q-91 0 -125.5 -58t-34.5 -190q0 -126 33 -184.5t124 -58.5z" />
<glyph unicode="&#xd4;" d="M300 659q141 0 207 -81.5t66 -252.5q0 -152 -69 -243.5t-207 -91.5q-270 0 -270 332q0 156 68 246.5t205 90.5zM297 79q91 0 127.5 61t36.5 185q0 131 -34 188t-127 57q-91 0 -125.5 -58t-34.5 -190q0 -126 33 -184.5t124 -58.5zM335 850l122 -98l-40 -53l-110 78 l-108 -78l-38 51l123 100h51z" />
<glyph unicode="&#xd5;" d="M172 719l-34 35q48 69 103 69q25 0 67 -14.5t61 -14.5q38 0 64 31l33 -37q-43 -68 -103 -68q-20 0 -62 15t-63 15q-38 0 -66 -31zM300 659q141 0 207 -81.5t66 -252.5q0 -152 -69 -243.5t-207 -91.5q-270 0 -270 332q0 156 68 246.5t205 90.5zM297 79q91 0 127.5 61 t36.5 185q0 131 -34 188t-127 57q-91 0 -125.5 -58t-34.5 -190q0 -126 33 -184.5t124 -58.5z" />
<glyph unicode="&#xd6;" d="M145 776q0 23 16.5 39.5t39.5 16.5t39.5 -16.5t16.5 -39.5t-16.5 -39.5t-39.5 -16.5t-39.5 16.5t-16.5 39.5zM335 776q0 23 16.5 39.5t39.5 16.5t39.5 -16.5t16.5 -39.5t-16.5 -39.5t-39.5 -16.5t-39.5 16.5t-16.5 39.5zM300 659q141 0 207 -81.5t66 -252.5 q0 -152 -69 -243.5t-207 -91.5q-270 0 -270 332q0 156 68 246.5t205 90.5zM297 79q91 0 127.5 61t36.5 185q0 131 -34 188t-127 57q-91 0 -125.5 -58t-34.5 -190q0 -126 33 -184.5t124 -58.5z" />
<glyph unicode="&#xd7;" d="M415 121l-118 111l-115 -110l-53 49l117 110l-116 109l56 53l115 -109l116 110l53 -50l-117 -108l118 -113z" />
<glyph unicode="&#xd8;" d="M300 659q113 0 177 -52l36 48h69l-66 -89q57 -80 57 -241q0 -152 -69 -243.5t-207 -91.5q-105 0 -170 51l-34 -46h-73l66 89q-59 83 -59 238q0 156 68 246.5t205 90.5zM140 322q0 -99 15 -146l262 350q-38 44 -117 44q-91 0 -125.5 -58t-34.5 -190zM297 79q91 0 127.5 61 t36.5 185q0 95 -16 146l-260 -351q36 -41 112 -41z" />
<glyph unicode="&#xd9;" d="M358 689l-187 76l38 82l174 -107zM441 252v398h103v-413q0 -122 -63 -184.5t-184 -62.5q-120 0 -180.5 58.5t-60.5 183.5v418h106v-403q0 -95 32 -132t107 -37q78 0 109 39.5t31 134.5z" />
<glyph unicode="&#xda;" d="M436 765l-186 -76l-26 51l175 107zM441 252v398h103v-413q0 -122 -63 -184.5t-184 -62.5q-120 0 -180.5 58.5t-60.5 183.5v418h106v-403q0 -95 32 -132t107 -37q78 0 109 39.5t31 134.5z" />
<glyph unicode="&#xdb;" d="M441 252v398h103v-413q0 -122 -63 -184.5t-184 -62.5q-120 0 -180.5 58.5t-60.5 183.5v418h106v-403q0 -95 32 -132t107 -37q78 0 109 39.5t31 134.5zM327 850l122 -98l-40 -53l-110 78l-108 -78l-38 51l123 100h51z" />
<glyph unicode="&#xdc;" d="M146 776q0 23 16.5 39.5t39.5 16.5t39.5 -16.5t16.5 -39.5t-16.5 -39.5t-39.5 -16.5t-39.5 16.5t-16.5 39.5zM336 776q0 23 16.5 39.5t39.5 16.5t39.5 -16.5t16.5 -39.5t-16.5 -39.5t-39.5 -16.5t-39.5 16.5t-16.5 39.5zM441 252v398h103v-413q0 -122 -63 -184.5 t-184 -62.5q-120 0 -180.5 58.5t-60.5 183.5v418h106v-403q0 -95 32 -132t107 -37q78 0 109 39.5t31 134.5z" />
<glyph unicode="&#xdd;" d="M150 650l161 -309l148 309h105l-205 -396v-254h-106v253l-217 397h114zM434 765l-186 -76l-26 51l175 107z" />
<glyph unicode="&#xde;" d="M78 650h106v-83h104q233 0 233 -213q0 -101 -62 -160t-170 -59h-105v-135h-106v650zM284 227q125 0 125 125q0 63 -29.5 94t-99.5 31h-96v-250h100z" />
<glyph unicode="&#xdf;" d="M360 362q0 -23 23 -40t55.5 -30t65 -29.5t55.5 -48.5t23 -77q0 -77 -53 -112t-133 -35q-88 0 -153 40l26 91q18 -20 52.5 -35t69.5 -15q88 0 88 61q0 26 -23 43.5t-55.5 29.5t-64.5 27t-55 45t-23 73q0 35 19 65.5t42 48t42 39t19 41.5q0 30 -23 49t-67 19 q-108 0 -108 -130v-482h-100v394h-64v73l64 6v24q0 99 61.5 148.5t152.5 49.5q97 0 145 -40t48 -105q0 -29 -20 -56t-44.5 -44t-44.5 -40.5t-20 -47.5z" />
<glyph unicode="&#xe0;" d="M379 128v78q-36 4 -63 4q-129 0 -129 -73q0 -33 21 -50t57 -17q68 0 114 58zM379 273l1 49q1 49 -21 69t-69 20q-37 0 -63 -13t-26 -43q0 -9 3 -19l-91 -13q-7 18 -7 38q0 57 54.5 93.5t138.5 36.5q86 0 135.5 -37t48.5 -124l-1 -209q0 -50 35 -50q9 0 18 3l7 -75 q-30 -9 -60 -9q-80 0 -97 73q-60 -73 -153 -73q-67 0 -109.5 36.5t-42.5 101.5q0 43 21 73.5t58 46t76.5 22t86.5 6.5q6 0 57 -3zM305 546l-151 112l57 67l133 -137z" />
<glyph unicode="&#xe1;" d="M379 128v78q-36 4 -63 4q-129 0 -129 -73q0 -33 21 -50t57 -17q68 0 114 58zM379 273l1 49q1 49 -21 69t-69 20q-37 0 -63 -13t-26 -43q0 -9 3 -19l-91 -13q-7 18 -7 38q0 57 54.5 93.5t138.5 36.5q86 0 135.5 -37t48.5 -124l-1 -209q0 -50 35 -50q9 0 18 3l7 -75 q-30 -9 -60 -9q-80 0 -97 73q-60 -73 -153 -73q-67 0 -109.5 36.5t-42.5 101.5q0 43 21 73.5t58 46t76.5 22t86.5 6.5q6 0 57 -3zM422 658l-151 -112l-39 42l133 137z" />
<glyph unicode="&#xe2;" d="M379 128v78q-36 4 -63 4q-129 0 -129 -73q0 -33 21 -50t57 -17q68 0 114 58zM379 273l1 49q1 49 -21 69t-69 20q-37 0 -63 -13t-26 -43q0 -9 3 -19l-91 -13q-7 18 -7 38q0 57 54.5 93.5t138.5 36.5q86 0 135.5 -37t48.5 -124l-1 -209q0 -50 35 -50q9 0 18 3l7 -75 q-30 -9 -60 -9q-80 0 -97 73q-60 -73 -153 -73q-67 0 -109.5 36.5t-42.5 101.5q0 43 21 73.5t58 46t76.5 22t86.5 6.5q6 0 57 -3zM317 706l124 -120l-51 -48l-101 93l-104 -93l-48 46l129 122h51z" />
<glyph unicode="&#xe3;" d="M379 128v78q-36 4 -63 4q-129 0 -129 -73q0 -33 21 -50t57 -17q68 0 114 58zM379 273l1 49q1 49 -21 69t-69 20q-37 0 -63 -13t-26 -43q0 -9 3 -19l-91 -13q-7 18 -7 38q0 57 54.5 93.5t138.5 36.5q86 0 135.5 -37t48.5 -124l-1 -209q0 -50 35 -50q9 0 18 3l7 -75 q-30 -9 -60 -9q-80 0 -97 73q-60 -73 -153 -73q-67 0 -109.5 36.5t-42.5 101.5q0 43 21 73.5t58 46t76.5 22t86.5 6.5q6 0 57 -3zM163 578l-34 34q46 69 103 69q26 0 62 -14t56 -14q39 0 64 31l33 -38q-43 -68 -103 -68q-20 0 -57 15.5t-58 15.5q-37 0 -66 -31z" />
<glyph unicode="&#xe4;" d="M379 128v78q-36 4 -63 4q-129 0 -129 -73q0 -33 21 -50t57 -17q68 0 114 58zM379 273l1 49q1 49 -21 69t-69 20q-37 0 -63 -13t-26 -43q0 -9 3 -19l-91 -13q-7 18 -7 38q0 57 54.5 93.5t138.5 36.5q86 0 135.5 -37t48.5 -124l-1 -209q0 -50 35 -50q9 0 18 3l7 -75 q-30 -9 -60 -9q-80 0 -97 73q-60 -73 -153 -73q-67 0 -109.5 36.5t-42.5 101.5q0 43 21 73.5t58 46t76.5 22t86.5 6.5q6 0 57 -3zM142 624q0 23 16.5 39.5t39.5 16.5t39.5 -16.5t16.5 -39.5t-16.5 -39t-39.5 -16t-39.5 16t-16.5 39zM322 624q0 23 16.5 39.5t39.5 16.5 t39.5 -16.5t16.5 -39.5t-16.5 -39t-39.5 -16t-39.5 16t-16.5 39z" />
<glyph unicode="&#xe5;" d="M379 128v78q-36 4 -63 4q-129 0 -129 -73q0 -33 21 -50t57 -17q68 0 114 58zM379 273l1 49q1 49 -21 69t-69 20q-37 0 -63 -13t-26 -43q0 -9 3 -19l-91 -13q-7 18 -7 38q0 57 54.5 93.5t138.5 36.5q86 0 135.5 -37t48.5 -124l-1 -209q0 -50 35 -50q9 0 18 3l7 -75 q-30 -9 -60 -9q-80 0 -97 73q-60 -73 -153 -73q-67 0 -109.5 36.5t-42.5 101.5q0 43 21 73.5t58 46t76.5 22t86.5 6.5q6 0 57 -3zM288 542q-48 0 -77 27.5t-29 72.5q0 46 31.5 72.5t76.5 26.5q46 0 75 -25.5t29 -73.5q0 -42 -29 -71t-77 -29zM288 592q47 0 47 50t-47 50 q-48 0 -48 -50t48 -50z" />
<glyph unicode="&#xe6;" d="M181 413q-27 0 -46.5 -13t-19.5 -43q0 -7 4 -21l-78 -13q-6 21 -6 41q0 56 43 91.5t112 35.5q89 0 118 -60q44 60 120 60q83 0 120 -60t38 -191v-20h-251q2 -71 32.5 -109t78.5 -38q63 0 111 46l24 -83q-67 -46 -147 -46q-105 0 -155 91q-52 -91 -143 -91 q-59 0 -93.5 36.5t-34.5 100.5q0 54 32 88t74 45.5t93 11.5q25 0 36 -1q0 15 5 37l1 20q0 46 -16 65.5t-52 19.5zM98 136q0 -33 17 -51t45 -18q60 0 97 66q-11 33 -14 73q-18 3 -40 3q-105 0 -105 -73zM335 288h162v13q0 53 -17.5 85t-52.5 32q-43 0 -65 -32t-27 -98z" />
<glyph unicode="&#xe7;" d="M241 -208l22 58q25 -25 62 -25q46 0 46 34q0 43 -80 46l23 86q-95 7 -154.5 67.5t-59.5 177.5q0 125 71 190t183 65q100 0 172 -43l-33 -92q-62 50 -136 50q-68 0 -108 -41t-40 -128q0 -83 41.5 -122t110.5 -39q37 0 74.5 14t60.5 34l28 -84q-61 -40 -156 -49l-12 -48 q44 -7 67.5 -31t23.5 -57q0 -39 -33.5 -62.5t-82.5 -23.5q-52 0 -90 23z" />
<glyph unicode="&#xe8;" d="M350 73q36 0 77 15.5t66 35.5l27 -83q-87 -51 -194 -51q-106 0 -174.5 63t-68.5 189q0 116 66.5 182.5t162.5 66.5q98 0 156 -58.5t58 -181.5q0 -25 -1 -31h-335q6 -75 49 -111t111 -36zM191 288h230q1 59 -28.5 93t-78.5 34q-55 0 -85.5 -30.5t-37.5 -96.5zM344 546 l-151 112l57 67l133 -137z" />
<glyph unicode="&#xe9;" d="M350 73q36 0 77 15.5t66 35.5l27 -83q-87 -51 -194 -51q-106 0 -174.5 63t-68.5 189q0 116 66.5 182.5t162.5 66.5q98 0 156 -58.5t58 -181.5q0 -25 -1 -31h-335q6 -75 49 -111t111 -36zM191 288h230q1 59 -28.5 93t-78.5 34q-55 0 -85.5 -30.5t-37.5 -96.5zM435 658 l-151 -112l-39 42l133 137z" />
<glyph unicode="&#xea;" d="M350 73q36 0 77 15.5t66 35.5l27 -83q-87 -51 -194 -51q-106 0 -174.5 63t-68.5 189q0 116 66.5 182.5t162.5 66.5q98 0 156 -58.5t58 -181.5q0 -25 -1 -31h-335q6 -75 49 -111t111 -36zM346 706l124 -120l-51 -48l-101 93l-104 -93l-48 46l129 122h51zM191 288h230 q1 59 -28.5 93t-78.5 34q-55 0 -85.5 -30.5t-37.5 -96.5z" />
<glyph unicode="&#xeb;" d="M350 73q36 0 77 15.5t66 35.5l27 -83q-87 -51 -194 -51q-106 0 -174.5 63t-68.5 189q0 116 66.5 182.5t162.5 66.5q98 0 156 -58.5t58 -181.5q0 -25 -1 -31h-335q6 -75 49 -111t111 -36zM191 288h230q1 59 -28.5 93t-78.5 34q-55 0 -85.5 -30.5t-37.5 -96.5zM355 624 q0 23 16.5 39.5t39.5 16.5t39.5 -16.5t16.5 -39.5t-16.5 -39t-39.5 -16t-39.5 16t-16.5 39zM175 624q0 23 16.5 39.5t39.5 16.5t39.5 -16.5t16.5 -39.5t-16.5 -39t-39.5 -16t-39.5 16t-16.5 39z" />
<glyph unicode="&#xec;" d="M78 0v84h168v311h-168v84h272v-395h172v-84h-444zM317 546l-151 112l57 67l133 -137z" />
<glyph unicode="&#xed;" d="M78 0v84h168v311h-168v84h272v-395h172v-84h-444zM412 658l-151 -112l-39 42l133 137z" />
<glyph unicode="&#xee;" d="M78 0v84h168v311h-168v84h272v-395h172v-84h-444zM325 706l124 -120l-51 -48l-101 93l-104 -93l-48 46l129 122h51z" />
<glyph unicode="&#xef;" d="M78 0v84h168v311h-168v84h272v-395h172v-84h-444zM334 624q0 23 16.5 39.5t39.5 16.5t39.5 -16.5t16.5 -39.5t-16.5 -39t-39.5 -16t-39.5 16t-16.5 39zM154 624q0 23 16.5 39.5t39.5 16.5t39.5 -16.5t16.5 -39.5t-16.5 -39t-39.5 -16t-39.5 16t-16.5 39z" />
<glyph unicode="&#xf0;" d="M63 241q0 106 60.5 172.5t161.5 66.5q49 0 88 -21q-41 61 -94 103l-50 -57l-48 33l50 59q-24 15 -52 29l50 66q33 -16 58 -31l44 52l50 -36l-43 -48q193 -137 199 -373q0 -2 0.5 -7.5t0.5 -7.5q0 -106 -63 -178.5t-174 -72.5q-112 0 -175 66t-63 185zM172 242 q0 -169 126 -169q71 0 100 42t30 123q0 72 -18 133q-46 32 -108 32q-130 0 -130 -161z" />
<glyph unicode="&#xf1;" d="M190 342v-342h-104v479h96l2 -61q73 73 171 73q45 0 80.5 -13.5t62 -52.5t26.5 -101v-324h-104v288q0 61 -25 85.5t-72 24.5q-68 0 -133 -56zM175 578l-34 34q47 69 103 69q26 0 62 -14t56 -14q39 0 64 31l33 -38q-43 -68 -103 -68q-20 0 -57 15.5t-58 15.5 q-37 0 -66 -31z" />
<glyph unicode="&#xf2;" d="M55 242q0 111 68 180t177 69q115 0 180.5 -65.5t65.5 -183.5q0 -108 -66.5 -180t-178.5 -72q-114 0 -180 66t-66 186zM165 242q0 -169 133 -169q73 0 105.5 42.5t32.5 126.5q0 166 -138 166q-68 0 -100.5 -44t-32.5 -122zM308 546l-151 112l57 67l133 -137z" />
<glyph unicode="&#xf3;" d="M415 658l-151 -112l-39 42l133 137zM55 242q0 111 68 180t177 69q115 0 180.5 -65.5t65.5 -183.5q0 -108 -66.5 -180t-178.5 -72q-114 0 -180 66t-66 186zM165 242q0 -169 133 -169q73 0 105.5 42.5t32.5 126.5q0 166 -138 166q-68 0 -100.5 -44t-32.5 -122z" />
<glyph unicode="&#xf4;" d="M327 706l124 -120l-51 -48l-101 93l-104 -93l-48 46l129 122h51zM55 242q0 111 68 180t177 69q115 0 180.5 -65.5t65.5 -183.5q0 -108 -66.5 -180t-178.5 -72q-114 0 -180 66t-66 186zM165 242q0 -169 133 -169q73 0 105.5 42.5t32.5 126.5q0 166 -138 166 q-68 0 -100.5 -44t-32.5 -122z" />
<glyph unicode="&#xf5;" d="M55 242q0 111 68 180t177 69q115 0 180.5 -65.5t65.5 -183.5q0 -108 -66.5 -180t-178.5 -72q-114 0 -180 66t-66 186zM165 242q0 -169 133 -169q73 0 105.5 42.5t32.5 126.5q0 166 -138 166q-68 0 -100.5 -44t-32.5 -122zM173 578l-34 34q47 69 103 69q26 0 62 -14 t56 -14q39 0 64 31l33 -38q-43 -68 -103 -68q-20 0 -57 15.5t-58 15.5q-37 0 -66 -31z" />
<glyph unicode="&#xf6;" d="M152 624q0 23 16.5 39.5t39.5 16.5t39.5 -16.5t16.5 -39.5t-16.5 -39t-39.5 -16t-39.5 16t-16.5 39zM332 624q0 23 16.5 39.5t39.5 16.5t39.5 -16.5t16.5 -39.5t-16.5 -39t-39.5 -16t-39.5 16t-16.5 39zM55 242q0 111 68 180t177 69q115 0 180.5 -65.5t65.5 -183.5 q0 -108 -66.5 -180t-178.5 -72q-114 0 -180 66t-66 186zM165 242q0 -169 133 -169q73 0 105.5 42.5t32.5 126.5q0 166 -138 166q-68 0 -100.5 -44t-32.5 -122z" />
<glyph unicode="&#xf7;" d="M489 253h-378v72h378v-72zM244 429q0 23 16.5 40t39.5 17t40 -17t17 -40t-17 -39.5t-40 -16.5t-39.5 16.5t-16.5 39.5zM244 146q0 23 16.5 40t39.5 17t40 -17t17 -40t-17 -39.5t-40 -16.5t-39.5 16.5t-16.5 39.5z" />
<glyph unicode="&#xf8;" d="M55 242q0 111 68 180t177 69q81 0 138 -34l23 29h73l-51 -63q63 -66 63 -181q0 -108 -66.5 -180t-178.5 -72q-81 0 -138 33l-22 -28h-73l51 63q-64 67 -64 184zM165 242q0 -64 19 -103l196 246q-33 23 -82 23q-68 0 -100.5 -44t-32.5 -122zM298 73q73 0 105.5 42.5 t32.5 126.5q0 59 -19 98l-197 -246q30 -21 78 -21z" />
<glyph unicode="&#xf9;" d="M409 139v340h104v-479h-94l-4 63q-74 -74 -168 -74q-72 0 -121 37.5t-49 130.5v322h104v-291q0 -61 24 -86t69 -25q64 0 135 62zM324 546l-151 112l57 67l133 -137z" />
<glyph unicode="&#xfa;" d="M425 658l-151 -112l-39 42l133 137zM409 139v340h104v-479h-94l-4 63q-74 -74 -168 -74q-72 0 -121 37.5t-49 130.5v322h104v-291q0 -61 24 -86t69 -25q64 0 135 62z" />
<glyph unicode="&#xfb;" d="M328 706l124 -120l-51 -48l-101 93l-104 -93l-48 46l129 122h51zM409 139v340h104v-479h-94l-4 63q-74 -74 -168 -74q-72 0 -121 37.5t-49 130.5v322h104v-291q0 -61 24 -86t69 -25q64 0 135 62z" />
<glyph unicode="&#xfc;" d="M161 624q0 23 16.5 39.5t39.5 16.5t39.5 -16.5t16.5 -39.5t-16.5 -39t-39.5 -16t-39.5 16t-16.5 39zM341 624q0 23 16.5 39.5t39.5 16.5t39.5 -16.5t16.5 -39.5t-16.5 -39t-39.5 -16t-39.5 16t-16.5 39zM409 139v340h104v-479h-94l-4 63q-74 -74 -168 -74 q-72 0 -121 37.5t-49 130.5v322h104v-291q0 -61 24 -86t69 -25q64 0 135 62z" />
<glyph unicode="&#xfd;" d="M538 479l-261 -699h-102l73 198l-186 501h111l133 -375l128 375h104zM429 658l-151 -112l-39 42l133 137z" />
<glyph unicode="&#xfe;" d="M273 -10q-42 0 -94 11v-221h-104v905h104v-266q65 72 149 72q94 0 145.5 -64.5t51.5 -176.5q0 -119 -69.5 -189.5t-182.5 -70.5zM179 341v-243q37 -23 89 -23q69 0 108 43t39 122q0 80 -31.5 119.5t-86.5 39.5q-58 0 -118 -58z" />
<glyph unicode="&#xff;" d="M538 479l-261 -699h-102l73 198l-186 501h111l133 -375l128 375h104zM162 624q0 23 16.5 39.5t39.5 16.5t39.5 -16.5t16.5 -39.5t-16.5 -39t-39.5 -16t-39.5 16t-16.5 39zM342 624q0 23 16.5 39.5t39.5 16.5t39.5 -16.5t16.5 -39.5t-16.5 -39t-39.5 -16t-39.5 16 t-16.5 39z" />
<glyph unicode="&#x100;" d="M129 0h-108l220 650h116l222 -650h-113l-51 160h-237zM389 245l-94 299l-91 -299h185zM159 734v69h276v-69h-276z" />
<glyph unicode="&#x101;" d="M379 128v78q-36 4 -63 4q-129 0 -129 -73q0 -33 21 -50t57 -17q68 0 114 58zM379 273l1 49q1 49 -21 69t-69 20q-37 0 -63 -13t-26 -43q0 -9 3 -19l-91 -13q-7 18 -7 38q0 57 54.5 93.5t138.5 36.5q86 0 135.5 -37t48.5 -124l-1 -209q0 -50 35 -50q9 0 18 3l7 -75 q-30 -9 -60 -9q-80 0 -97 73q-60 -73 -153 -73q-67 0 -109.5 36.5t-42.5 101.5q0 43 21 73.5t58 46t76.5 22t86.5 6.5q6 0 57 -3zM166 593v69h256v-69h-256z" />
<glyph unicode="&#x102;" d="M129 0h-108l220 650h116l222 -650h-113l-51 160h-237zM389 245l-94 299l-91 -299h185zM361 835h67q0 -60 -34 -92.5t-96 -32.5q-63 0 -97 33t-34 92h67q2 -64 65 -64q62 0 62 64z" />
<glyph unicode="&#x103;" d="M379 128v78q-36 4 -63 4q-129 0 -129 -73q0 -33 21 -50t57 -17q68 0 114 58zM379 273l1 49q1 49 -21 69t-69 20q-37 0 -63 -13t-26 -43q0 -9 3 -19l-91 -13q-7 18 -7 38q0 57 54.5 93.5t138.5 36.5q86 0 135.5 -37t48.5 -124l-1 -209q0 -50 35 -50q9 0 18 3l7 -75 q-30 -9 -60 -9q-80 0 -97 73q-60 -73 -153 -73q-67 0 -109.5 36.5t-42.5 101.5q0 43 21 73.5t58 46t76.5 22t86.5 6.5q6 0 57 -3zM351 690h67q0 -60 -34 -92.5t-96 -32.5q-63 0 -97 33t-34 92h67q1 -28 17 -45.5t48 -17.5q62 0 62 63z" />
<glyph unicode="&#x104;" d="M129 0h-108l220 650h116l222 -650h-46q-56 -48 -56 -104q0 -29 18 -46t44 -17q29 0 54 20l15 -54q-38 -26 -92 -26t-86.5 29.5t-32.5 78.5q0 71 69 119l-51 160h-237zM389 245l-94 299l-91 -299h185z" />
<glyph unicode="&#x105;" d="M379 273l1 49q1 49 -21 69t-69 20q-37 0 -63 -13t-26 -43q0 -9 3 -19l-91 -13q-7 18 -7 38q0 57 54.5 93.5t138.5 36.5q86 0 135.5 -37t48.5 -124l-1 -209q0 -50 35 -50q9 0 18 3l7 -75q-30 -9 -60 -9q-9 0 -14 1q-45 -47 -45 -95q0 -29 18 -46t44 -17q29 0 54 20l15 -54 q-38 -26 -92 -26t-86.5 29.5t-32.5 78.5q0 76 78 125q-28 19 -36 57q-60 -73 -153 -73q-67 0 -109.5 36.5t-42.5 101.5q0 43 21 73.5t58 46t76.5 22t86.5 6.5q6 0 57 -3zM379 128v78q-36 4 -63 4q-129 0 -129 -73q0 -33 21 -50t57 -17q68 0 114 58z" />
<glyph unicode="&#x106;" d="M522 122l25 -86q-88 -46 -197 -46q-141 0 -218.5 83t-77.5 250q0 160 83.5 248t226.5 88q106 0 176 -43l-35 -94q-61 48 -145 48q-194 0 -194 -245q0 -246 194 -246q98 0 162 43zM482 765l-186 -76l-26 51l175 107z" />
<glyph unicode="&#x107;" d="M456 658l-151 -112l-39 42l133 137zM209 237q0 -83 41.5 -122t110.5 -39q37 0 74.5 14t60.5 34l28 -84q-35 -23 -85.5 -36.5t-97.5 -13.5q-105 0 -173 60.5t-68 185.5t71 190t183 65q100 0 172 -43l-33 -92q-62 50 -136 50q-68 0 -108 -41t-40 -128z" />
<glyph unicode="&#x108;" d="M522 122l25 -86q-88 -46 -197 -46q-141 0 -218.5 83t-77.5 250q0 160 83.5 248t226.5 88q106 0 176 -43l-35 -94q-61 48 -145 48q-194 0 -194 -245q0 -246 194 -246q98 0 162 43zM385 850l122 -98l-40 -53l-110 78l-108 -78l-38 51l123 100h51z" />
<glyph unicode="&#x109;" d="M369 706l124 -120l-51 -48l-101 93l-104 -93l-48 46l129 122h51zM209 237q0 -83 41.5 -122t110.5 -39q37 0 74.5 14t60.5 34l28 -84q-35 -23 -85.5 -36.5t-97.5 -13.5q-105 0 -173 60.5t-68 185.5t71 190t183 65q100 0 172 -43l-33 -92q-62 50 -136 50q-68 0 -108 -41 t-40 -128z" />
<glyph unicode="&#x10a;" d="M290 779q0 25 17 42.5t42 17.5q24 0 41.5 -17.5t17.5 -42.5t-17.5 -42t-41.5 -17q-25 0 -42 17t-17 42zM522 122l25 -86q-88 -46 -197 -46q-141 0 -218.5 83t-77.5 250q0 160 83.5 248t226.5 88q106 0 176 -43l-35 -94q-61 48 -145 48q-194 0 -194 -245q0 -246 194 -246 q98 0 162 43z" />
<glyph unicode="&#x10b;" d="M209 237q0 -83 41.5 -122t110.5 -39q37 0 74.5 14t60.5 34l28 -84q-35 -23 -85.5 -36.5t-97.5 -13.5q-105 0 -173 60.5t-68 185.5t71 190t183 65q100 0 172 -43l-33 -92q-62 50 -136 50q-68 0 -108 -41t-40 -128zM275 633q0 25 17 42.5t42 17.5q24 0 41.5 -17.5 t17.5 -42.5t-17.5 -42t-41.5 -17q-25 0 -42 17t-17 42z" />
<glyph unicode="&#x10c;" d="M522 122l25 -86q-88 -46 -197 -46q-141 0 -218.5 83t-77.5 250q0 160 83.5 248t226.5 88q106 0 176 -43l-35 -94q-61 48 -145 48q-194 0 -194 -245q0 -246 194 -246q98 0 162 43zM328 701l-121 97l40 54l109 -78l109 78l38 -51l-124 -100h-51z" />
<glyph unicode="&#x10d;" d="M315 538l-128 120l51 48l103 -94l102 94l48 -46l-125 -122h-51zM209 237q0 -83 41.5 -122t110.5 -39q37 0 74.5 14t60.5 34l28 -84q-35 -23 -85.5 -36.5t-97.5 -13.5q-105 0 -173 60.5t-68 185.5t71 190t183 65q100 0 172 -43l-33 -92q-62 50 -136 50q-68 0 -108 -41 t-40 -128z" />
<glyph unicode="&#x10e;" d="M232 701l-121 97l40 54l109 -78l109 78l38 -51l-124 -100h-51zM56 0v650h216q303 0 303 -320q0 -55 -7 -99.5t-27.5 -89t-54 -74.5t-89 -48.5t-129.5 -18.5h-212zM270 561h-108v-470h115q48 0 82.5 12.5t54 32t30.5 51.5t14.5 63t3.5 75q0 54 -7.5 92.5t-27.5 73 t-59 52.5t-98 18z" />
<glyph unicode="&#x10f;" d="M490 685v-685h-96l-2 63q-32 -32 -77 -52.5t-88 -20.5q-94 0 -145.5 65t-51.5 176q0 120 69 190t182 70q47 0 105 -12v206h104zM386 140v242q-40 25 -100 25q-69 0 -107.5 -43.5t-38.5 -122.5q0 -80 31.5 -119.5t86.5 -39.5q30 0 65.5 16t62.5 42zM528 504l23 181h85 l-45 -181h-63z" />
<glyph unicode="&#x110;" d="M56 0v289h-55v82h55v279h216q303 0 303 -320q0 -55 -7 -99.5t-27.5 -89t-54 -74.5t-89 -48.5t-129.5 -18.5h-212zM270 561h-108v-190h108v-82h-108v-198h115q48 0 82.5 12.5t54 32t30.5 51.5t14.5 63t3.5 75q0 54 -7.5 92.5t-27.5 73t-59 52.5t-98 18z" />
<glyph unicode="&#x111;" d="M575 551h-50v-551h-96l-2 63q-32 -32 -77 -52.5t-88 -20.5q-94 0 -145.5 65t-51.5 176q0 120 69 190t182 70q47 0 105 -12v72h-175v71h175v63h104v-63h50v-71zM421 140v242q-40 25 -100 25q-69 0 -107.5 -43.5t-38.5 -122.5q0 -80 31.5 -119.5t86.5 -39.5q30 0 65.5 16 t62.5 42z" />
<glyph unicode="&#x112;" d="M172 734v69h276v-69h-276zM79 650h451v-89h-345v-184h313v-88h-313v-198h344v-91h-450v650z" />
<glyph unicode="&#x113;" d="M350 73q36 0 77 15.5t66 35.5l27 -83q-87 -51 -194 -51q-106 0 -174.5 63t-68.5 189q0 116 66.5 182.5t162.5 66.5q98 0 156 -58.5t58 -181.5q0 -25 -1 -31h-335q6 -75 49 -111t111 -36zM191 288h230q1 59 -28.5 93t-78.5 34q-55 0 -85.5 -30.5t-37.5 -96.5zM190 593v69 h256v-69h-256z" />
<glyph unicode="&#x114;" d="M371 835h67q0 -60 -34 -92.5t-96 -32.5q-63 0 -97 33t-34 92h67q2 -64 65 -64q62 0 62 64zM79 650h451v-89h-345v-184h313v-88h-313v-198h344v-91h-450v650z" />
<glyph unicode="&#x115;" d="M350 73q36 0 77 15.5t66 35.5l27 -83q-87 -51 -194 -51q-106 0 -174.5 63t-68.5 189q0 116 66.5 182.5t162.5 66.5q98 0 156 -58.5t58 -181.5q0 -25 -1 -31h-335q6 -75 49 -111t111 -36zM191 288h230q1 59 -28.5 93t-78.5 34q-55 0 -85.5 -30.5t-37.5 -96.5zM380 690h67 q0 -60 -34 -92.5t-96 -32.5q-63 0 -97 33t-34 92h67q1 -28 17 -45.5t48 -17.5q62 0 62 63z" />
<glyph unicode="&#x116;" d="M247 779q0 25 17 42.5t42 17.5q24 0 41.5 -17.5t17.5 -42.5t-17.5 -42t-41.5 -17q-25 0 -42 17t-17 42zM79 650h451v-89h-345v-184h313v-88h-313v-198h344v-91h-450v650z" />
<glyph unicode="&#x117;" d="M350 73q36 0 77 15.5t66 35.5l27 -83q-87 -51 -194 -51q-106 0 -174.5 63t-68.5 189q0 116 66.5 182.5t162.5 66.5q98 0 156 -58.5t58 -181.5q0 -25 -1 -31h-335q6 -75 49 -111t111 -36zM191 288h230q1 59 -28.5 93t-78.5 34q-55 0 -85.5 -30.5t-37.5 -96.5zM254 633 q0 25 17 42.5t42 17.5q24 0 41.5 -17.5t17.5 -42.5t-17.5 -42t-41.5 -17q-25 0 -42 17t-17 42z" />
<glyph unicode="&#x118;" d="M79 650h451v-89h-345v-184h313v-88h-313v-198h344v-91h-62q-56 -48 -56 -104q0 -29 18 -46t44 -17q29 0 54 20l15 -54q-38 -26 -92 -26t-86.5 29.5t-32.5 78.5q0 71 69 119h-321v650z" />
<glyph unicode="&#x119;" d="M365 -104q0 -29 18 -46t44 -17q29 0 54 20l15 -54q-38 -26 -92 -26t-86.5 29.5t-32.5 78.5q0 63 56 109h-15q-106 0 -174.5 63t-68.5 189q0 116 66.5 182.5t162.5 66.5q98 0 156 -58.5t58 -181.5q0 -25 -1 -31h-335q6 -75 49 -111t111 -36q36 0 77 15.5t66 35.5l27 -83 q-50 -29 -98 -40q-57 -49 -57 -105zM191 288h230q1 59 -28.5 93t-78.5 34q-55 0 -85.5 -30.5t-37.5 -96.5z" />
<glyph unicode="&#x11a;" d="M278 701l-121 97l40 54l109 -78l109 78l38 -51l-124 -100h-51zM79 650h451v-89h-345v-184h313v-88h-313v-198h344v-91h-450v650z" />
<glyph unicode="&#x11b;" d="M350 73q36 0 77 15.5t66 35.5l27 -83q-87 -51 -194 -51q-106 0 -174.5 63t-68.5 189q0 116 66.5 182.5t162.5 66.5q98 0 156 -58.5t58 -181.5q0 -25 -1 -31h-335q6 -75 49 -111t111 -36zM288 538l-128 120l51 48l103 -94l102 94l48 -46l-125 -122h-51zM191 288h230 q1 59 -28.5 93t-78.5 34q-55 0 -85.5 -30.5t-37.5 -96.5z" />
<glyph unicode="&#x11c;" d="M440 322h105v-269q-102 -63 -206 -63q-139 0 -215.5 81t-76.5 252q0 167 84.5 251.5t226.5 84.5q97 0 179 -41l-37 -99q-64 51 -145 51q-99 0 -147.5 -58.5t-48.5 -186.5q0 -132 50 -189t147 -57q42 0 84 15v228zM376 850l122 -98l-40 -53l-110 78l-108 -78l-38 51 l123 100h51z" />
<glyph unicode="&#x11d;" d="M522 451v-431q0 -246 -250 -246q-100 0 -185 47l36 95q76 -57 154 -57q68 0 104.5 34.5t36.5 128.5v51q-32 -29 -75 -48t-84 -19q-93 0 -145 59.5t-52 166.5q0 120 72 189.5t187 69.5q108 0 201 -40zM418 156v231q-40 20 -100 20q-69 0 -107.5 -43t-38.5 -122 q0 -144 118 -144q30 0 65.5 16t62.5 42zM347 706l124 -120l-51 -48l-101 93l-104 -93l-48 46l129 122h51z" />
<glyph unicode="&#x11e;" d="M440 322h105v-269q-102 -63 -206 -63q-139 0 -215.5 81t-76.5 252q0 167 84.5 251.5t226.5 84.5q97 0 179 -41l-37 -99q-64 51 -145 51q-99 0 -147.5 -58.5t-48.5 -186.5q0 -132 50 -189t147 -57q42 0 84 15v228zM404 835h67q0 -60 -34 -92.5t-96 -32.5q-63 0 -97 33 t-34 92h67q2 -64 65 -64q62 0 62 64z" />
<glyph unicode="&#x11f;" d="M522 451v-431q0 -246 -250 -246q-100 0 -185 47l36 95q76 -57 154 -57q68 0 104.5 34.5t36.5 128.5v51q-32 -29 -75 -48t-84 -19q-93 0 -145 59.5t-52 166.5q0 120 72 189.5t187 69.5q108 0 201 -40zM418 156v231q-40 20 -100 20q-69 0 -107.5 -43t-38.5 -122 q0 -144 118 -144q30 0 65.5 16t62.5 42zM374 690h67q0 -60 -34 -92.5t-96 -32.5q-63 0 -97 33t-34 92h67q1 -28 17 -45.5t48 -17.5q62 0 62 63z" />
<glyph unicode="&#x120;" d="M440 322h105v-269q-102 -63 -206 -63q-139 0 -215.5 81t-76.5 252q0 167 84.5 251.5t226.5 84.5q97 0 179 -41l-37 -99q-64 51 -145 51q-99 0 -147.5 -58.5t-48.5 -186.5q0 -132 50 -189t147 -57q42 0 84 15v228zM294 779q0 25 17 42.5t42 17.5q24 0 41.5 -17.5 t17.5 -42.5t-17.5 -42t-41.5 -17q-25 0 -42 17t-17 42z" />
<glyph unicode="&#x121;" d="M522 451v-431q0 -246 -250 -246q-100 0 -185 47l36 95q76 -57 154 -57q68 0 104.5 34.5t36.5 128.5v51q-32 -29 -75 -48t-84 -19q-93 0 -145 59.5t-52 166.5q0 120 72 189.5t187 69.5q108 0 201 -40zM418 156v231q-40 20 -100 20q-69 0 -107.5 -43t-38.5 -122 q0 -144 118 -144q30 0 65.5 16t62.5 42zM259 633q0 25 17 42.5t42 17.5q24 0 41.5 -17.5t17.5 -42.5t-17.5 -42t-41.5 -17q-25 0 -42 17t-17 42z" />
<glyph unicode="&#x122;" d="M440 322h105v-269q-102 -63 -206 -63q-139 0 -215.5 81t-76.5 252q0 167 84.5 251.5t226.5 84.5q97 0 179 -41l-37 -99q-64 51 -145 51q-99 0 -147.5 -58.5t-48.5 -186.5q0 -132 50 -189t147 -57q42 0 84 15v228zM319 -62h82q-3 -99 -66 -192l-59 18q43 80 43 174z" />
<glyph unicode="&#x123;" d="M522 451v-431q0 -246 -250 -246q-100 0 -185 47l36 95q76 -57 154 -57q68 0 104.5 34.5t36.5 128.5v51q-32 -29 -75 -48t-84 -19q-93 0 -145 59.5t-52 166.5q0 120 72 189.5t187 69.5q108 0 201 -40zM418 156v231q-40 20 -100 20q-69 0 -107.5 -43t-38.5 -122 q0 -144 118 -144q30 0 65.5 16t62.5 42zM342 549h-82q3 99 66 192l59 -18q-43 -80 -43 -174z" />
<glyph unicode="&#x124;" d="M438 650h106v-650h-106v285h-275v-285h-106v650h106v-271h275v271zM332 850l122 -98l-40 -53l-110 78l-108 -78l-38 51l123 100h51z" />
<glyph unicode="&#x125;" d="M168 854l124 -120l-51 -48l-101 93l-104 -93l-48 46l129 122h51zM190 342v-342h-104v685h104v-261q73 67 165 67q45 0 80.5 -13.5t62 -52.5t26.5 -101v-324h-104v288q0 61 -25 85t-72 24q-69 0 -133 -55z" />
<glyph unicode="&#x126;" d="M438 650h106v-92h43v-77h-43v-481h-106v285h-275v-285h-106v481h-41v77h41v92h106v-92h275v92zM163 379h275v102h-275v-102z" />
<glyph unicode="&#x127;" d="M190 342v-342h-104v548h-64v71h64v66h104v-66h161v-71h-161v-124q73 67 165 67q45 0 80.5 -13.5t62 -52.5t26.5 -101v-324h-104v288q0 61 -25 85t-72 24q-69 0 -133 -55z" />
<glyph unicode="&#x128;" d="M70 0v91h177v469h-177v90h464v-90h-181v-469h181v-91h-464zM170 719l-34 35q48 69 103 69q25 0 67 -14.5t61 -14.5q38 0 64 31l33 -37q-43 -68 -103 -68q-20 0 -62 15t-63 15q-38 0 -66 -31z" />
<glyph unicode="&#x129;" d="M78 0v84h168v311h-168v84h272v-395h172v-84h-444zM164 578l-34 34q46 69 103 69q25 0 62 -14t56 -14q39 0 64 31l33 -38q-43 -68 -103 -68q-20 0 -57 15.5t-58 15.5q-37 0 -66 -31z" />
<glyph unicode="&#x12a;" d="M70 0v91h177v469h-177v90h464v-90h-181v-469h181v-91h-464zM162 734v69h276v-69h-276z" />
<glyph unicode="&#x12b;" d="M78 0v84h168v311h-168v84h272v-395h172v-84h-444zM158 593v69h256v-69h-256z" />
<glyph unicode="&#x12c;" d="M70 0v91h177v469h-177v90h464v-90h-181v-469h181v-91h-464zM361 835h67q0 -60 -34 -92.5t-96 -32.5q-63 0 -97 33t-34 92h67q2 -64 65 -64q62 0 62 64z" />
<glyph unicode="&#x12d;" d="M78 0v84h168v311h-168v84h272v-395h172v-84h-444zM360 690h67q0 -60 -34 -92.5t-96 -32.5q-63 0 -97 33t-34 92h67q1 -28 17 -45.5t48 -17.5q62 0 62 63z" />
<glyph unicode="&#x12e;" d="M70 0v91h177v469h-177v90h464v-90h-181v-469h181v-91h-211q-56 -48 -56 -104q0 -29 18 -46t44 -17q29 0 54 20l15 -54q-38 -26 -92 -26t-86.5 29.5t-32.5 78.5q0 71 69 119h-186z" />
<glyph unicode="&#x12f;" d="M78 0v84h168v311h-168v84h272v-395h172v-84h-205q-56 -48 -56 -104q0 -29 18 -46t44 -17q29 0 54 20l15 -54q-38 -26 -92 -26t-86.5 29.5t-32.5 78.5q0 71 69 119h-172zM238 639q0 26 18 44.5t43 18.5q26 0 44.5 -18.5t18.5 -44.5q0 -25 -18.5 -43t-44.5 -18 q-25 0 -43 18t-18 43z" />
<glyph unicode="&#x130;" d="M70 0v91h177v469h-177v90h464v-90h-181v-469h181v-91h-464zM241 779q0 25 17 42.5t42 17.5q24 0 41.5 -17.5t17.5 -42.5t-17.5 -42t-41.5 -17q-25 0 -42 17t-17 42z" />
<glyph unicode="&#x131;" d="M78 0v84h168v311h-168v84h272v-395h172v-84h-444z" />
<glyph unicode="&#x132;" horiz-adv-x="1200" d="M70 0v91h177v469h-177v90h464v-90h-181v-469h181v-91h-464zM699 560v90h389v-388q0 -70 -25.5 -124.5t-62.5 -86t-89 -53t-96 -30t-92 -11.5l-17 93q43 5 71 9.5t71 20t69 37.5t45.5 62.5t19.5 94.5v286h-283z" />
<glyph unicode="&#x133;" horiz-adv-x="1200" d="M690 395v84h355v-441q0 -262 -357 -262l-4 90q39 0 66.5 2t66.5 12.5t63.5 29t42.5 55t18 87.5v343h-251zM78 0v84h168v311h-168v84h272v-395h172v-84h-444zM238 639q0 26 18 44.5t43 18.5q26 0 44.5 -18.5t18.5 -44.5q0 -25 -18.5 -43t-44.5 -18q-25 0 -43 18t-18 43z M933 639q0 26 18 44.5t44 18.5t44 -18.5t18 -44.5q0 -25 -18 -43t-44 -18t-44 17.5t-18 43.5z" />
<glyph unicode="&#x134;" d="M99 560v90h389v-388q0 -70 -25.5 -124.5t-62.5 -86t-89 -53t-96 -30t-92 -11.5l-17 93q43 5 71 9.5t71 20t69 37.5t45.5 62.5t19.5 94.5v286h-283zM363 850l122 -98l-40 -53l-110 78l-108 -78l-38 51l123 100h51z" />
<glyph unicode="&#x135;" d="M90 395v84h355v-441q0 -262 -357 -262l-4 90q39 0 66.5 2t66.5 12.5t63.5 29t42.5 55t18 87.5v343h-251zM394 706l124 -120l-51 -48l-101 93l-104 -93l-48 46l129 122h51z" />
<glyph unicode="&#x136;" d="M71 650h106v-287l59 15l181 272h121l-218 -313l242 -337h-131l-203 286l-51 -11v-275h-106v650zM240 -62h82q-3 -99 -66 -192l-59 18q43 80 43 174z" />
<glyph unicode="&#x137;" d="M332 254l202 -254h-129l-155 204l-60 -11v-193h-104v685h104v-410l58 13l141 191h114zM246 -62h82q-3 -99 -66 -192l-59 18q43 80 43 174z" />
<glyph unicode="&#x139;" d="M299 765l-186 -76l-26 51l175 107zM96 650h106v-559h334v-91h-440v650z" />
<glyph unicode="&#x13a;" d="M75 0v84h173v518h-165v83h269v-601h167v-84h-444zM434 787l-186 -76l-26 51l175 107z" />
<glyph unicode="&#x13b;" d="M277 -62h82q-3 -99 -66 -192l-59 18q43 80 43 174zM96 650h106v-559h334v-91h-440v650z" />
<glyph unicode="&#x13c;" d="M75 0v84h173v518h-165v83h269v-601h167v-84h-444zM261 -62h82q-3 -99 -66 -192l-59 18q43 80 43 174z" />
<glyph unicode="&#x13d;" d="M349 478l23 181h85l-45 -181h-63zM96 650h106v-559h334v-91h-440v650z" />
<glyph unicode="&#x13e;" d="M75 0v84h173v518h-165v83h269v-601h167v-84h-444zM398 505l23 181h85l-45 -181h-63z" />
<glyph unicode="&#x13f;" d="M96 650h106v-559h334v-91h-440v650zM370 350q0 28 17 44t47 16q29 0 47.5 -15.5t18.5 -44.5q0 -30 -17.5 -46t-48.5 -16q-64 0 -64 62z" />
<glyph unicode="&#x140;" d="M75 0v84h173v518h-165v83h269v-601h167v-84h-444zM407 316q0 28 17 44t47 16q29 0 47.5 -15.5t18.5 -44.5q0 -30 -17.5 -46t-48.5 -16q-64 0 -64 62z" />
<glyph unicode="&#x141;" d="M96 650h106v-286l98 53l32 -61l-130 -70v-195h334v-91h-440v229l-49 -26l-30 61l79 42v344z" />
<glyph unicode="&#x142;" d="M83 602v83h269v-296l80 40l26 -61l-106 -53v-231h167v-84h-444v84h173v179l-85 -42l-25 60l110 55v266h-165z" />
<glyph unicode="&#x143;" d="M448 765l-186 -76l-26 51l175 107zM151 495v-495h-100v650h116l283 -480v480h100v-650h-109z" />
<glyph unicode="&#x144;" d="M422 658l-151 -112l-39 42l133 137zM190 342v-342h-104v479h96l2 -61q73 73 171 73q45 0 80.5 -13.5t62 -52.5t26.5 -101v-324h-104v288q0 61 -25 85.5t-72 24.5q-68 0 -133 -56z" />
<glyph unicode="&#x145;" d="M262 -62h82q-3 -99 -66 -192l-59 18q43 80 43 174zM151 495v-495h-100v650h116l283 -480v480h100v-650h-109z" />
<glyph unicode="&#x146;" d="M260 -62h82q-3 -99 -66 -192l-59 18q43 80 43 174zM190 342v-342h-104v479h96l2 -61q73 73 171 73q45 0 80.5 -13.5t62 -52.5t26.5 -101v-324h-104v288q0 61 -25 85.5t-72 24.5q-68 0 -133 -56z" />
<glyph unicode="&#x147;" d="M283 701l-121 97l40 54l109 -78l109 78l38 -51l-124 -100h-51zM151 495v-495h-100v650h116l283 -480v480h100v-650h-109z" />
<glyph unicode="&#x148;" d="M278 538l-128 120l51 48l103 -94l102 94l48 -46l-125 -122h-51zM190 342v-342h-104v479h96l2 -61q73 73 171 73q45 0 80.5 -13.5t62 -52.5t26.5 -101v-324h-104v288q0 61 -25 85.5t-72 24.5q-68 0 -133 -56z" />
<glyph unicode="&#x149;" d="M119 760h88q-4 -115 -81 -221l-62 19q54 96 55 202zM190 342v-342h-104v479h96l2 -61q73 73 171 73q45 0 80.5 -13.5t62 -52.5t26.5 -101v-324h-104v288q0 61 -25 85.5t-72 24.5q-68 0 -133 -56z" />
<glyph unicode="&#x14a;" d="M550 650v-597q0 -77 -19.5 -131.5t-56.5 -84.5t-80 -44t-100 -18l-16 92q79 7 118.5 36.5t48.5 97.5l-294 494v-495h-100v650h116l283 -480v480h100z" />
<glyph unicode="&#x14b;" d="M259 -224l-12 88q84 2 128.5 36.5t44.5 124.5v263q0 61 -25 85.5t-72 24.5q-68 0 -133 -56v-342h-104v479h96l2 -61q73 73 171 73q45 0 80.5 -13.5t62 -52.5t26.5 -101v-315q0 -68 -23.5 -116t-64 -72t-83.5 -34.5t-94 -10.5z" />
<glyph unicode="&#x14c;" d="M167 734v69h276v-69h-276zM300 659q141 0 207 -81.5t66 -252.5q0 -152 -69 -243.5t-207 -91.5q-270 0 -270 332q0 156 68 246.5t205 90.5zM297 79q91 0 127.5 61t36.5 185q0 131 -34 188t-127 57q-91 0 -125.5 -58t-34.5 -190q0 -126 33 -184.5t124 -58.5z" />
<glyph unicode="&#x14d;" d="M171 593v69h256v-69h-256zM55 242q0 111 68 180t177 69q115 0 180.5 -65.5t65.5 -183.5q0 -108 -66.5 -180t-178.5 -72q-114 0 -180 66t-66 186zM165 242q0 -169 133 -169q73 0 105.5 42.5t32.5 126.5q0 166 -138 166q-68 0 -100.5 -44t-32.5 -122z" />
<glyph unicode="&#x14e;" d="M365 835h67q0 -60 -34 -92.5t-96 -32.5q-63 0 -97 33t-34 92h67q2 -64 65 -64q62 0 62 64zM300 659q141 0 207 -81.5t66 -252.5q0 -152 -69 -243.5t-207 -91.5q-270 0 -270 332q0 156 68 246.5t205 90.5zM297 79q91 0 127.5 61t36.5 185q0 131 -34 188t-127 57 q-91 0 -125.5 -58t-34.5 -190q0 -126 33 -184.5t124 -58.5z" />
<glyph unicode="&#x14f;" d="M55 242q0 111 68 180t177 69q115 0 180.5 -65.5t65.5 -183.5q0 -108 -66.5 -180t-178.5 -72q-114 0 -180 66t-66 186zM165 242q0 -169 133 -169q73 0 105.5 42.5t32.5 126.5q0 166 -138 166q-68 0 -100.5 -44t-32.5 -122zM364 690h67q0 -60 -34 -92.5t-96 -32.5 q-63 0 -97 33t-34 92h67q1 -28 17 -45.5t48 -17.5q62 0 62 63z" />
<glyph unicode="&#x150;" d="M300 659q141 0 207 -81.5t66 -252.5q0 -152 -69 -243.5t-207 -91.5q-270 0 -270 332q0 156 68 246.5t205 90.5zM297 79q91 0 127.5 61t36.5 185q0 131 -34 188t-127 57q-91 0 -125.5 -58t-34.5 -190q0 -126 33 -184.5t124 -58.5zM372 814l-173 -125l-36 42l154 154z M533 754l-190 -65l-24 51l180 97z" />
<glyph unicode="&#x151;" d="M342 672l-135 -124l-42 38l116 145zM505 658l-145 -112l-39 42l127 137zM55 242q0 111 68 180t177 69q115 0 180.5 -65.5t65.5 -183.5q0 -108 -66.5 -180t-178.5 -72q-114 0 -180 66t-66 186zM165 242q0 -169 133 -169q73 0 105.5 42.5t32.5 126.5q0 166 -138 166 q-68 0 -100.5 -44t-32.5 -122z" />
<glyph unicode="&#x152;" d="M254 659q34 0 69 -9h259v-89h-172v-184h140v-88h-140v-198h171v-91h-263q-38 -10 -67 -10q-129 0 -180.5 82.5t-51.5 248.5q0 338 235 338zM251 78q33 0 58 8v475q-24 10 -55 10q-65 0 -93.5 -61t-28.5 -189q0 -122 26.5 -182.5t92.5 -60.5z" />
<glyph unicode="&#x153;" d="M7 241q0 116 43.5 183t125.5 67q99 0 138 -87q40 87 124 87q75 0 115.5 -55.5t40.5 -184.5q0 -25 -1 -31h-238q8 -151 109 -151q49 0 97 44l28 -72q-56 -51 -134 -51q-99 0 -143 89q-49 -89 -135 -89q-170 0 -170 251zM91 242q0 -85 19 -129.5t68 -44.5q92 0 92 174 q0 171 -93 171q-86 0 -86 -171zM355 288h158q2 62 -17.5 97t-56.5 35q-40 0 -59.5 -32t-24.5 -100z" />
<glyph unicode="&#x154;" d="M71 0v650h226q123 0 178.5 -52t55.5 -152q0 -67 -30.5 -114.5t-85.5 -71.5l145 -260h-125l-126 238h-132v-238h-106zM294 326q125 0 125 117q0 63 -29.5 90.5t-99.5 27.5h-113v-235h117zM407 765l-186 -76l-26 51l175 107z" />
<glyph unicode="&#x155;" d="M47 0v84h159v311h-151v84h245l4 -94q30 48 78.5 74.5t94.5 26.5q15 0 32 -3l-8 -106q-20 7 -47 7q-35 0 -78 -22.5t-66 -54.5v-223h206v-84h-469zM414 658l-151 -112l-39 42l133 137z" />
<glyph unicode="&#x156;" d="M71 0v650h226q123 0 178.5 -52t55.5 -152q0 -67 -30.5 -114.5t-85.5 -71.5l145 -260h-125l-126 238h-132v-238h-106zM294 326q125 0 125 117q0 63 -29.5 90.5t-99.5 27.5h-113v-235h117zM246 -62h82q-3 -99 -66 -192l-59 18q43 80 43 174z" />
<glyph unicode="&#x157;" d="M47 0v84h159v311h-151v84h245l4 -94q30 48 78.5 74.5t94.5 26.5q15 0 32 -3l-8 -106q-20 7 -47 7q-35 0 -78 -22.5t-66 -54.5v-223h206v-84h-469zM220 -62h82q-3 -99 -66 -192l-59 18q43 80 43 174z" />
<glyph unicode="&#x158;" d="M71 0v650h226q123 0 178.5 -52t55.5 -152q0 -67 -30.5 -114.5t-85.5 -71.5l145 -260h-125l-126 238h-132v-238h-106zM294 326q125 0 125 117q0 63 -29.5 90.5t-99.5 27.5h-113v-235h117zM251 701l-121 97l40 54l109 -78l109 78l38 -51l-124 -100h-51z" />
<glyph unicode="&#x159;" d="M47 0v84h159v311h-151v84h245l4 -94q30 48 78.5 74.5t94.5 26.5q15 0 32 -3l-8 -106q-20 7 -47 7q-35 0 -78 -22.5t-66 -54.5v-223h206v-84h-469zM277 538l-128 120l51 48l103 -94l102 94l48 -46l-125 -122h-51z" />
<glyph unicode="&#x15a;" d="M420 165q0 43 -34.5 72t-84 46.5t-99.5 38t-84.5 60.5t-34.5 101q0 77 67 126.5t166 49.5q111 0 193 -46l-31 -101q-68 58 -160 58q-123 0 -123 -79q0 -27 18.5 -47t48.5 -33.5t66 -26.5t71.5 -29.5t65.5 -38t48.5 -57t18.5 -82.5q0 -92 -71 -139.5t-179 -47.5 q-122 0 -213 58l36 100q80 -70 188 -70q57 0 92 21.5t35 65.5zM440 765l-186 -76l-26 51l175 107z" />
<glyph unicode="&#x15b;" d="M421 658l-151 -112l-39 42l133 137zM397 132q0 29 -29.5 47t-72 29t-85 24.5t-72 43.5t-29.5 77q0 66 58 102t144 36q119 0 184 -38l-30 -90q-21 19 -62.5 33.5t-83.5 14.5q-104 0 -104 -53q0 -23 30 -38t72.5 -26t85 -26.5t72.5 -48.5t30 -82q0 -41 -20 -71t-54 -46 t-71 -23t-79 -7q-117 0 -181 40l27 91q63 -50 155 -50q48 0 81.5 14.5t33.5 46.5z" />
<glyph unicode="&#x15c;" d="M420 165q0 43 -34.5 72t-84 46.5t-99.5 38t-84.5 60.5t-34.5 101q0 77 67 126.5t166 49.5q111 0 193 -46l-31 -101q-68 58 -160 58q-123 0 -123 -79q0 -27 18.5 -47t48.5 -33.5t66 -26.5t71.5 -29.5t65.5 -38t48.5 -57t18.5 -82.5q0 -92 -71 -139.5t-179 -47.5 q-122 0 -213 58l36 100q80 -70 188 -70q57 0 92 21.5t35 65.5zM335 850l122 -98l-40 -53l-110 78l-108 -78l-38 51l123 100h51z" />
<glyph unicode="&#x15d;" d="M340 706l124 -120l-51 -48l-101 93l-104 -93l-48 46l129 122h51zM397 132q0 29 -29.5 47t-72 29t-85 24.5t-72 43.5t-29.5 77q0 66 58 102t144 36q119 0 184 -38l-30 -90q-21 19 -62.5 33.5t-83.5 14.5q-104 0 -104 -53q0 -23 30 -38t72.5 -26t85 -26.5t72.5 -48.5 t30 -82q0 -41 -20 -71t-54 -46t-71 -23t-79 -7q-117 0 -181 40l27 91q63 -50 155 -50q48 0 81.5 14.5t33.5 46.5z" />
<glyph unicode="&#x15e;" d="M199 -207l22 58q25 -25 62 -25q46 0 46 34q0 43 -80 46l22 84q-118 3 -202 58l36 100q80 -70 188 -70q57 0 92 21.5t35 65.5q0 43 -34.5 72t-84 46.5t-99.5 38t-84.5 60.5t-34.5 101q0 77 67 126.5t166 49.5q111 0 193 -46l-31 -101q-68 58 -160 58q-123 0 -123 -79 q0 -27 18.5 -47t48.5 -33.5t66 -26.5t71.5 -29.5t65.5 -38t48.5 -57t18.5 -82.5q0 -83 -57.5 -129.5t-148.5 -55.5l-12 -48q44 -7 67.5 -31t23.5 -57q0 -39 -33.5 -62.5t-82.5 -23.5q-52 0 -90 23z" />
<glyph unicode="&#x15f;" d="M190 -207l22 58q25 -25 62 -25q46 0 46 34q0 43 -80 46l22 84q-107 5 -162 40l27 91q63 -50 155 -50q48 0 81.5 14.5t33.5 46.5q0 29 -29.5 47t-72 29t-85 24.5t-72 43.5t-29.5 77q0 66 58 102t144 36q119 0 184 -38l-30 -90q-21 19 -62.5 33.5t-83.5 14.5 q-104 0 -104 -53q0 -23 30 -38t72.5 -26t85 -26.5t72.5 -48.5t30 -82q0 -70 -54 -104.5t-134 -40.5l-12 -48q44 -7 67.5 -31t23.5 -57q0 -39 -33.5 -62.5t-82.5 -23.5q-52 0 -90 23z" />
<glyph unicode="&#x160;" d="M420 165q0 43 -34.5 72t-84 46.5t-99.5 38t-84.5 60.5t-34.5 101q0 77 67 126.5t166 49.5q111 0 193 -46l-31 -101q-68 58 -160 58q-123 0 -123 -79q0 -27 18.5 -47t48.5 -33.5t66 -26.5t71.5 -29.5t65.5 -38t48.5 -57t18.5 -82.5q0 -92 -71 -139.5t-179 -47.5 q-122 0 -213 58l36 100q80 -70 188 -70q57 0 92 21.5t35 65.5zM283 701l-121 97l40 54l109 -78l109 78l38 -51l-124 -100h-51z" />
<glyph unicode="&#x161;" d="M282 538l-128 120l51 48l103 -94l102 94l48 -46l-125 -122h-51zM397 132q0 29 -29.5 47t-72 29t-85 24.5t-72 43.5t-29.5 77q0 66 58 102t144 36q119 0 184 -38l-30 -90q-21 19 -62.5 33.5t-83.5 14.5q-104 0 -104 -53q0 -23 30 -38t72.5 -26t85 -26.5t72.5 -48.5t30 -82 q0 -41 -20 -71t-54 -46t-71 -23t-79 -7q-117 0 -181 40l27 91q63 -50 155 -50q48 0 81.5 14.5t33.5 46.5z" />
<glyph unicode="&#x162;" d="M260 -62h82q-3 -99 -66 -192l-59 18q43 80 43 174zM567 650v-89h-214v-561h-106v561h-214v89h534z" />
<glyph unicode="&#x163;" d="M298 -62h82q-3 -99 -66 -192l-59 18q43 80 43 174zM279 394v-223q0 -54 24 -75t69 -21q56 0 115 38l19 -85q-70 -38 -158 -38q-77 0 -125 38t-48 126v240h-112v73l114 7l13 127h89v-128h203v-79h-203z" />
<glyph unicode="&#x164;" d="M273 701l-121 97l40 54l109 -78l109 78l38 -51l-124 -100h-51zM567 650v-89h-214v-561h-106v561h-214v89h534z" />
<glyph unicode="&#x165;" d="M431 536l23 181h85l-45 -181h-63zM279 394v-223q0 -54 24 -75t69 -21q56 0 115 38l19 -85q-70 -38 -158 -38q-77 0 -125 38t-48 126v240h-112v73l114 7l13 127h89v-128h203v-79h-203z" />
<glyph unicode="&#x166;" d="M567 650v-89h-214v-209h123v-79h-123v-273h-106v273h-117v79h117v209h-214v89h534z" />
<glyph unicode="&#x167;" d="M279 217v-46q0 -54 24 -75t69 -21q56 0 115 38l19 -85q-70 -38 -158 -38q-77 0 -125 38t-48 126v63h-93v70h93v107h-112v73l114 7l13 127h89v-128h203v-79h-203v-107h187v-70h-187z" />
<glyph unicode="&#x168;" d="M179 719l-34 35q48 69 103 69q26 0 67 -14.5t61 -14.5q38 0 64 31l33 -37q-43 -68 -103 -68q-20 0 -62 15t-63 15q-38 0 -66 -31zM441 252v398h103v-413q0 -122 -63 -184.5t-184 -62.5q-120 0 -180.5 58.5t-60.5 183.5v418h106v-403q0 -95 32 -132t107 -37q78 0 109 39.5 t31 134.5z" />
<glyph unicode="&#x169;" d="M409 139v340h104v-479h-94l-4 63q-74 -74 -168 -74q-72 0 -121 37.5t-49 130.5v322h104v-291q0 -61 24 -86t69 -25q64 0 135 62zM178 578l-34 34q46 69 103 69q25 0 62 -14t56 -14q39 0 64 31l33 -38q-43 -68 -103 -68q-20 0 -57 15.5t-58 15.5q-37 0 -66 -31z" />
<glyph unicode="&#x16a;" d="M167 734v69h276v-69h-276zM441 252v398h103v-413q0 -122 -63 -184.5t-184 -62.5q-120 0 -180.5 58.5t-60.5 183.5v418h106v-403q0 -95 32 -132t107 -37q78 0 109 39.5t31 134.5z" />
<glyph unicode="&#x16b;" d="M409 139v340h104v-479h-94l-4 63q-74 -74 -168 -74q-72 0 -121 37.5t-49 130.5v322h104v-291q0 -61 24 -86t69 -25q64 0 135 62zM175 593v69h256v-69h-256z" />
<glyph unicode="&#x16c;" d="M362 835h67q0 -60 -34 -92.5t-96 -32.5q-63 0 -97 33t-34 92h67q2 -64 65 -64q62 0 62 64zM441 252v398h103v-413q0 -122 -63 -184.5t-184 -62.5q-120 0 -180.5 58.5t-60.5 183.5v418h106v-403q0 -95 32 -132t107 -37q78 0 109 39.5t31 134.5z" />
<glyph unicode="&#x16d;" d="M409 139v340h104v-479h-94l-4 63q-74 -74 -168 -74q-72 0 -121 37.5t-49 130.5v322h104v-291q0 -61 24 -86t69 -25q64 0 135 62zM362 690h67q0 -60 -34 -92.5t-96 -32.5q-63 0 -97 33t-34 92h67q1 -28 17 -45.5t48 -17.5q62 0 62 63z" />
<glyph unicode="&#x16e;" d="M441 252v398h103v-413q0 -122 -63 -184.5t-184 -62.5q-120 0 -180.5 58.5t-60.5 183.5v418h106v-403q0 -95 32 -132t107 -37q78 0 109 39.5t31 134.5zM302 686q-48 0 -77 27.5t-29 72.5q0 46 31.5 72.5t76.5 26.5q46 0 75 -25.5t29 -73.5q0 -42 -29 -71t-77 -29zM302 736 q47 0 47 50t-47 50q-48 0 -48 -50t48 -50z" />
<glyph unicode="&#x16f;" d="M305 542q-48 0 -77 27.5t-29 72.5q0 46 31.5 72.5t76.5 26.5q46 0 75 -25.5t29 -73.5q0 -42 -29 -71t-77 -29zM305 592q47 0 47 50t-47 50q-48 0 -48 -50t48 -50zM409 139v340h104v-479h-94l-4 63q-74 -74 -168 -74q-72 0 -121 37.5t-49 130.5v322h104v-291q0 -61 24 -86 t69 -25q64 0 135 62z" />
<glyph unicode="&#x170;" d="M441 252v398h103v-413q0 -122 -63 -184.5t-184 -62.5q-120 0 -180.5 58.5t-60.5 183.5v418h106v-403q0 -95 32 -132t107 -37q78 0 109 39.5t31 134.5zM358 814l-173 -125l-36 42l154 154zM519 754l-190 -65l-24 51l180 97z" />
<glyph unicode="&#x171;" d="M409 139v340h104v-479h-94l-4 63q-74 -74 -168 -74q-72 0 -121 37.5t-49 130.5v322h104v-291q0 -61 24 -86t69 -25q64 0 135 62zM345 672l-135 -124l-42 38l116 145zM508 658l-145 -112l-39 42l127 137z" />
<glyph unicode="&#x172;" d="M441 252v398h103v-413q0 -193 -154 -236q-27 -18 -48.5 -50t-21.5 -65q0 -29 18 -46t44 -17q29 0 54 20l15 -54q-38 -26 -92 -26t-86.5 29.5t-32.5 78.5q0 71 69 119h-12q-120 0 -180.5 58.5t-60.5 183.5v418h106v-403q0 -95 32 -132t107 -37q78 0 109 39.5t31 134.5z " />
<glyph unicode="&#x173;" d="M409 139v340h104v-479h-44q-56 -48 -56 -104q0 -29 18 -46t44 -17q29 0 54 20l15 -54q-38 -26 -92 -26t-86.5 29.5t-32.5 78.5q0 41 23.5 74.5t61.5 54.5l-3 53q-74 -74 -168 -74q-72 0 -121 37.5t-49 130.5v322h104v-291q0 -61 24 -86t69 -25q64 0 135 62z" />
<glyph unicode="&#x174;" d="M348 487l101 -368l38 531h102l-80 -650h-106l-99 353l-87 -353h-108l-97 650h109l51 -530l90 367h86zM331 850l122 -98l-40 -53l-110 78l-108 -78l-38 51l123 100h51z" />
<glyph unicode="&#x175;" d="M328 706l124 -120l-51 -48l-101 93l-104 -93l-48 46l129 122h51zM218 0h-106l-96 479h100l55 -391l91 320h82l91 -320l53 391h98l-100 -479h-106l-81 296z" />
<glyph unicode="&#x176;" d="M150 650l161 -309l148 309h105l-205 -396v-254h-106v253l-217 397h114zM337 850l122 -98l-40 -53l-110 78l-108 -78l-38 51l123 100h51z" />
<glyph unicode="&#x177;" d="M538 479l-261 -699h-102l73 198l-186 501h111l133 -375l128 375h104zM332 706l124 -120l-51 -48l-101 93l-104 -93l-48 46l129 122h51z" />
<glyph unicode="&#x178;" d="M150 650l161 -309l148 309h105l-205 -396v-254h-106v253l-217 397h114zM350 776q0 23 16.5 39.5t39.5 16.5t39.5 -16.5t16.5 -39.5t-16.5 -39.5t-39.5 -16.5t-39.5 16.5t-16.5 39.5zM160 776q0 23 16.5 39.5t39.5 16.5t39.5 -16.5t16.5 -39.5t-16.5 -39.5t-39.5 -16.5 t-39.5 16.5t-16.5 39.5z" />
<glyph unicode="&#x179;" d="M81 561v89h454v-78l-347 -482h355v-90h-482v72l351 489h-331zM438 765l-186 -76l-26 51l175 107z" />
<glyph unicode="&#x17a;" d="M421 658l-151 -112l-39 42l133 137zM212 84h306v-84h-440v64l279 331h-263v84h405v-64z" />
<glyph unicode="&#x17b;" d="M256 779q0 25 17 42.5t42 17.5q24 0 41.5 -17.5t17.5 -42.5t-17.5 -42t-41.5 -17q-25 0 -42 17t-17 42zM81 561v89h454v-78l-347 -482h355v-90h-482v72l351 489h-331z" />
<glyph unicode="&#x17c;" d="M212 84h306v-84h-440v64l279 331h-263v84h405v-64zM247 633q0 25 17 42.5t42 17.5q24 0 41.5 -17.5t17.5 -42.5t-17.5 -42t-41.5 -17q-25 0 -42 17t-17 42z" />
<glyph unicode="&#x17d;" d="M286 701l-121 97l40 54l109 -78l109 78l38 -51l-124 -100h-51zM81 561v89h454v-78l-347 -482h355v-90h-482v72l351 489h-331z" />
<glyph unicode="&#x17e;" d="M276 538l-128 120l51 48l103 -94l102 94l48 -46l-125 -122h-51zM212 84h306v-84h-440v64l279 331h-263v84h405v-64z" />
<glyph unicode="&#x18f;" d="M266 571q-52 0 -106.5 -21t-87.5 -48l-36 85q113 72 242 72q293 0 293 -336q0 -154 -80 -243.5t-203 -89.5q-127 0 -192.5 75t-65.5 239v42h428q-4 115 -51.5 170t-140.5 55zM290 78q148 0 166 186h-308q-3 -84 32 -135t110 -51z" />
<glyph unicode="&#x192;" d="M235 288h-107v73h110l4 124q5 109 59 159.5t137 50.5q59 0 106 -20l-24 -95q-40 27 -77 27q-92 0 -97 -124l-4 -122h177v-73h-180l-11 -336q-3 -91 -48.5 -134.5t-117.5 -43.5q-53 0 -106 21l23 86q41 -24 74 -24q68 0 72 102z" />
<glyph unicode="&#x1d3;" d="M277 701l-121 97l40 54l109 -78l109 78l38 -51l-124 -100h-51zM441 252v398h103v-413q0 -122 -63 -184.5t-184 -62.5q-120 0 -180.5 58.5t-60.5 183.5v418h106v-403q0 -95 32 -132t107 -37q78 0 109 39.5t31 134.5z" />
<glyph unicode="&#x1d4;" d="M276 539l-128 120l51 48l103 -94l102 94l48 -46l-125 -122h-51zM409 139v340h104v-479h-94l-4 63q-74 -74 -168 -74q-72 0 -121 37.5t-49 130.5v322h104v-291q0 -61 24 -86t69 -25q64 0 135 62z" />
<glyph unicode="&#x1e2;" d="M591 650v-89h-197v-184h165v-88h-165v-198h196v-91h-292v145h-136l-49 -145h-108l244 650h342zM310 734v69h276v-69h-276zM190 227h108v317z" />
<glyph unicode="&#x1e3;" d="M181 413q-27 0 -46.5 -13t-19.5 -43q0 -7 4 -21l-78 -13q-6 21 -6 41q0 56 43 91.5t112 35.5q89 0 118 -60q44 60 120 60q83 0 120 -60t38 -191v-20h-251q2 -71 32.5 -109t78.5 -38q63 0 111 46l24 -83q-67 -46 -147 -46q-105 0 -155 91q-52 -91 -143 -91 q-59 0 -93.5 36.5t-34.5 100.5q0 54 32 88t74 45.5t93 11.5q25 0 36 -1q0 15 5 37l1 20q0 46 -16 65.5t-52 19.5zM98 136q0 -33 17 -51t45 -18q60 0 97 66q-11 33 -14 73q-18 3 -40 3q-105 0 -105 -73zM185 593v69h256v-69h-256zM335 288h162v13q0 53 -17.5 85t-52.5 32 q-43 0 -65 -32t-27 -98z" />
<glyph unicode="&#x1fc;" d="M249 650h342v-89h-197v-184h165v-88h-165v-198h196v-91h-292v145h-136l-49 -145h-108zM190 227h108v317zM584 765l-186 -76l-26 51l175 107z" />
<glyph unicode="&#x1fd;" d="M181 413q-27 0 -46.5 -13t-19.5 -43q0 -7 4 -21l-78 -13q-6 21 -6 41q0 56 43 91.5t112 35.5q89 0 118 -60q44 60 120 60q83 0 120 -60t38 -191v-20h-251q2 -71 32.5 -109t78.5 -38q63 0 111 46l24 -83q-67 -46 -147 -46q-105 0 -155 91q-52 -91 -143 -91 q-59 0 -93.5 36.5t-34.5 100.5q0 54 32 88t74 45.5t93 11.5q25 0 36 -1q0 15 5 37l1 20q0 46 -16 65.5t-52 19.5zM98 136q0 -33 17 -51t45 -18q60 0 97 66q-11 33 -14 73q-18 3 -40 3q-105 0 -105 -73zM335 288h162v13q0 53 -17.5 85t-52.5 32q-43 0 -65 -32t-27 -98z M456 658l-151 -112l-39 42l133 137z" />
<glyph unicode="&#x1fe;" d="M300 659q113 0 177 -52l36 48h69l-66 -89q57 -80 57 -241q0 -152 -69 -243.5t-207 -91.5q-105 0 -170 51l-34 -46h-73l66 89q-59 83 -59 238q0 156 68 246.5t205 90.5zM140 322q0 -99 15 -146l262 350q-38 44 -117 44q-91 0 -125.5 -58t-34.5 -190zM297 79q91 0 127.5 61 t36.5 185q0 95 -16 146l-260 -351q36 -41 112 -41zM455 765l-186 -76l-26 51l175 107z" />
<glyph unicode="&#x1ff;" d="M55 242q0 111 68 180t177 69q81 0 138 -34l23 29h73l-51 -63q63 -66 63 -181q0 -108 -66.5 -180t-178.5 -72q-81 0 -138 33l-22 -28h-73l51 63q-64 67 -64 184zM165 242q0 -64 19 -103l196 246q-33 23 -82 23q-68 0 -100.5 -44t-32.5 -122zM298 73q73 0 105.5 42.5 t32.5 126.5q0 59 -19 98l-197 -246q30 -21 78 -21zM440 658l-151 -112l-39 42l133 137z" />
<glyph unicode="&#x218;" d="M265 -62h82q-3 -99 -66 -192l-59 18q43 80 43 174zM420 165q0 43 -34.5 72t-84 46.5t-99.5 38t-84.5 60.5t-34.5 101q0 77 67 126.5t166 49.5q111 0 193 -46l-31 -101q-68 58 -160 58q-123 0 -123 -79q0 -27 18.5 -47t48.5 -33.5t66 -26.5t71.5 -29.5t65.5 -38t48.5 -57 t18.5 -82.5q0 -92 -71 -139.5t-179 -47.5q-122 0 -213 58l36 100q80 -70 188 -70q57 0 92 21.5t35 65.5z" />
<glyph unicode="&#x219;" d="M264 -62h82q-3 -99 -66 -192l-59 18q43 80 43 174zM397 132q0 29 -29.5 47t-72 29t-85 24.5t-72 43.5t-29.5 77q0 66 58 102t144 36q119 0 184 -38l-30 -90q-21 19 -62.5 33.5t-83.5 14.5q-104 0 -104 -53q0 -23 30 -38t72.5 -26t85 -26.5t72.5 -48.5t30 -82 q0 -41 -20 -71t-54 -46t-71 -23t-79 -7q-117 0 -181 40l27 91q63 -50 155 -50q48 0 81.5 14.5t33.5 46.5z" />
<glyph unicode="&#x21a;" d="M261 -62h82q-3 -99 -66 -192l-59 18q43 80 43 174zM567 650v-89h-214v-561h-106v561h-214v89h534z" />
<glyph unicode="&#x21b;" d="M298 -62h82q-3 -99 -66 -192l-59 18q43 80 43 174zM279 394v-223q0 -54 24 -75t69 -21q56 0 115 38l19 -85q-70 -38 -158 -38q-77 0 -125 38t-48 126v240h-112v73l114 7l13 127h89v-128h203v-79h-203z" />
<glyph unicode="&#x232;" d="M150 650l161 -309l148 309h105l-205 -396v-254h-106v253l-217 397h114zM171 734v69h276v-69h-276z" />
<glyph unicode="&#x233;" d="M538 479l-261 -699h-102l73 198l-186 501h111l133 -375l128 375h104zM179 593v69h256v-69h-256z" />
<glyph unicode="&#x237;" d="M90 395v84h355v-441q0 -262 -357 -262l-4 90q39 0 66.5 2t66.5 12.5t63.5 29t42.5 55t18 87.5v343h-251z" />
<glyph unicode="&#x259;" d="M255 408q-71 0 -132 -51l-28 84q86 50 182 50q105 0 169 -62.5t64 -189.5q0 -114 -63 -181.5t-156 -67.5q-201 0 -201 235v32h314q-8 151 -149 151zM290 67q99 0 112 121h-207q-6 -121 95 -121z" />
<glyph unicode="&#x2c6;" d="M328 706l124 -120l-51 -48l-101 93l-104 -93l-48 46l129 122h51z" />
<glyph unicode="&#x2c7;" d="M276 538l-128 120l51 48l103 -94l102 94l48 -46l-125 -122h-51z" />
<glyph unicode="&#x2d8;" d="M364 690h67q0 -60 -34 -92.5t-96 -32.5q-63 0 -97 33t-34 92h67q1 -28 17 -45.5t48 -17.5q62 0 62 63z" />
<glyph unicode="&#x2d9;" d="M241 633q0 25 17 42.5t42 17.5q24 0 41.5 -17.5t17.5 -42.5t-17.5 -42t-41.5 -17q-25 0 -42 17t-17 42z" />
<glyph unicode="&#x2da;" d="M300 542q-48 0 -77 27.5t-29 72.5q0 46 31.5 72.5t76.5 26.5q46 0 75 -25.5t29 -73.5q0 -42 -29 -71t-77 -29zM300 592q47 0 47 50t-47 50q-48 0 -48 -50t48 -50z" />
<glyph unicode="&#x2db;" d="M323 29l35 -10q-29 -14 -56.5 -50t-27.5 -73q0 -29 18 -46t44 -17q29 0 54 20l15 -54q-38 -26 -92 -26t-86.5 29.5t-32.5 78.5q0 52 38.5 92t90.5 56z" />
<glyph unicode="&#x2dc;" d="M175 578l-34 34q47 69 103 69q26 0 62 -14t56 -14q39 0 64 31l33 -38q-43 -68 -103 -68q-20 0 -57 15.5t-58 15.5q-37 0 -66 -31z" />
<glyph unicode="&#x2dd;" d="M307 672l-135 -124l-42 38l116 145zM470 658l-145 -112l-39 42l127 137z" />
<glyph unicode="&#x394;" d="M23 0l239 651h82l233 -651h-554zM131 67h334l-166 488z" />
<glyph unicode="&#x3a3;" d="M60 0v73l215 261l-215 260v74h480v-71h-381l202 -242v-37l-206 -248h385v-70h-480z" />
<glyph unicode="&#x3c0;" d="M500 479v-479h-104v387h-192v-387h-104v479h400z" />
<glyph unicode="&#x1e46;" d="M249 -161q0 25 17 42.5t42 17.5q24 0 41.5 -17.5t17.5 -42.5t-17.5 -42t-41.5 -17q-25 0 -42 17t-17 42zM151 495v-495h-100v650h116l283 -480v480h100v-650h-109z" />
<glyph unicode="&#x1e47;" d="M239 -146q0 25 17 42.5t42 17.5q24 0 41.5 -17.5t17.5 -42.5t-17.5 -42t-41.5 -17q-25 0 -42 17t-17 42zM190 342v-342h-104v479h96l2 -61q73 73 171 73q45 0 80.5 -13.5t62 -52.5t26.5 -101v-324h-104v288q0 61 -25 85.5t-72 24.5q-68 0 -133 -56z" />
<glyph unicode="&#x1e62;" d="M420 165q0 43 -34.5 72t-84 46.5t-99.5 38t-84.5 60.5t-34.5 101q0 77 67 126.5t166 49.5q111 0 193 -46l-31 -101q-68 58 -160 58q-123 0 -123 -79q0 -27 18.5 -47t48.5 -33.5t66 -26.5t71.5 -29.5t65.5 -38t48.5 -57t18.5 -82.5q0 -92 -71 -139.5t-179 -47.5 q-122 0 -213 58l36 100q80 -70 188 -70q57 0 92 21.5t35 65.5zM240 -161q0 25 17 42.5t42 17.5q24 0 41.5 -17.5t17.5 -42.5t-17.5 -42t-41.5 -17q-25 0 -42 17t-17 42z" />
<glyph unicode="&#x1e63;" d="M397 132q0 29 -29.5 47t-72 29t-85 24.5t-72 43.5t-29.5 77q0 66 58 102t144 36q119 0 184 -38l-30 -90q-21 19 -62.5 33.5t-83.5 14.5q-104 0 -104 -53q0 -23 30 -38t72.5 -26t85 -26.5t72.5 -48.5t30 -82q0 -41 -20 -71t-54 -46t-71 -23t-79 -7q-117 0 -181 40l27 91 q63 -50 155 -50q48 0 81.5 14.5t33.5 46.5zM239 -146q0 25 17 42.5t42 17.5q24 0 41.5 -17.5t17.5 -42.5t-17.5 -42t-41.5 -17q-25 0 -42 17t-17 42z" />
<glyph unicode="&#x1e80;" d="M351 689l-187 76l38 82l174 -107zM348 487l101 -368l38 531h102l-80 -650h-106l-99 353l-87 -353h-108l-97 650h109l51 -530l90 367h86z" />
<glyph unicode="&#x1e81;" d="M218 0h-106l-96 479h100l55 -391l91 320h82l91 -320l53 391h98l-100 -479h-106l-81 296zM322 546l-151 112l57 67l133 -137z" />
<glyph unicode="&#x1e82;" d="M446 765l-186 -76l-26 51l175 107zM348 487l101 -368l38 531h102l-80 -650h-106l-99 353l-87 -353h-108l-97 650h109l51 -530l90 367h86z" />
<glyph unicode="&#x1e83;" d="M432 658l-151 -112l-39 42l133 137zM218 0h-106l-96 479h100l55 -391l91 320h82l91 -320l53 391h98l-100 -479h-106l-81 296z" />
<glyph unicode="&#x1e84;" d="M155 776q0 23 16.5 39.5t39.5 16.5t39.5 -16.5t16.5 -39.5t-16.5 -39.5t-39.5 -16.5t-39.5 16.5t-16.5 39.5zM345 776q0 23 16.5 39.5t39.5 16.5t39.5 -16.5t16.5 -39.5t-16.5 -39.5t-39.5 -16.5t-39.5 16.5t-16.5 39.5zM348 487l101 -368l38 531h102l-80 -650h-106 l-99 353l-87 -353h-108l-97 650h109l51 -530l90 367h86z" />
<glyph unicode="&#x1e85;" d="M153 624q0 23 16.5 39.5t39.5 16.5t39.5 -16.5t16.5 -39.5t-16.5 -39t-39.5 -16t-39.5 16t-16.5 39zM333 624q0 23 16.5 39.5t39.5 16.5t39.5 -16.5t16.5 -39.5t-16.5 -39t-39.5 -16t-39.5 16t-16.5 39zM218 0h-106l-96 479h100l55 -391l91 320h82l91 -320l53 391h98 l-100 -479h-106l-81 296z" />
<glyph unicode="&#x1ebc;" d="M177 719l-34 35q48 69 103 69q26 0 67 -14.5t61 -14.5q38 0 64 31l33 -37q-43 -68 -103 -68q-20 0 -62 15t-63 15q-38 0 -66 -31zM79 650h451v-89h-345v-184h313v-88h-313v-198h344v-91h-450v650z" />
<glyph unicode="&#x1ebd;" d="M350 73q36 0 77 15.5t66 35.5l27 -83q-87 -51 -194 -51q-106 0 -174.5 63t-68.5 189q0 116 66.5 182.5t162.5 66.5q98 0 156 -58.5t58 -181.5q0 -25 -1 -31h-335q6 -75 49 -111t111 -36zM191 288h230q1 59 -28.5 93t-78.5 34q-55 0 -85.5 -30.5t-37.5 -96.5zM193 578 l-34 34q47 69 103 69q26 0 62 -14t56 -14q39 0 64 31l33 -38q-43 -68 -103 -68q-20 0 -57 15.5t-58 15.5q-37 0 -66 -31z" />
<glyph unicode="&#x1ef2;" d="M150 650l161 -309l148 309h105l-205 -396v-254h-106v253l-217 397h114zM373 689l-187 76l38 82l174 -107z" />
<glyph unicode="&#x1ef3;" d="M538 479l-261 -699h-102l73 198l-186 501h111l133 -375l128 375h104zM320 546l-151 112l57 67l133 -137z" />
<glyph unicode="&#x2012;" d="M0 222v90h600v-90h-600z" />
<glyph unicode="&#x2013;" d="M80 222v73h440v-73h-440z" />
<glyph unicode="&#x2014;" d="M0 222v73h600v-73h-600z" />
<glyph unicode="&#x2018;" d="M318 422h-95q2 63 27 147.5t58 132.5l69 -20q-55 -96 -59 -260z" />
<glyph unicode="&#x2019;" d="M281 698h96q-2 -64 -27.5 -148.5t-58.5 -131.5l-68 21q28 50 42.5 122.5t15.5 136.5z" />
<glyph unicode="&#x201a;" d="M282 96h94q-2 -63 -27 -145.5t-59 -129.5l-66 20q56 101 58 255z" />
<glyph unicode="&#x201c;" d="M405 422h-95q2 63 27 147.5t58 132.5l69 -20q-55 -96 -59 -260zM232 422h-96q2 64 27.5 148.5t58.5 131.5l68 -20q-28 -50 -42.5 -122.5t-15.5 -137.5z" />
<glyph unicode="&#x201d;" d="M195 698h95q-2 -63 -27 -147.5t-58 -132.5l-69 21q55 96 59 259zM368 698h96q-2 -64 -27.5 -148.5t-58.5 -131.5l-68 21q28 50 42.5 122.5t15.5 136.5z" />
<glyph unicode="&#x201e;" d="M195 96h93q-2 -62 -27 -144.5t-58 -130.5l-67 20q55 96 59 255zM370 96h94q-2 -63 -27 -145.5t-59 -129.5l-66 20q56 101 58 255z" />
<glyph unicode="&#x2020;" d="M76 371v69h177v222h82v-222h189v-69h-189v-542h-82v542h-177z" />
<glyph unicode="&#x2021;" d="M76 375v68h177v219h82v-219h189v-68h-189v-177h189v-69h-189v-300h-82v300h-177v69h177v177h-177z" />
<glyph unicode="&#x2022;" d="M240 197q-22 23 -22 54q0 35 26 58q25 20 53 20q37 0 63 -28q22 -23 22 -54q0 -35 -27 -58q-21 -20 -52 -20q-38 0 -63 28z" />
<glyph unicode="&#x2026;" d="M31 49q0 28 16 43.5t44 15.5q27 0 44 -15t17 -44q0 -60 -61 -60q-60 0 -60 60zM239 49q0 28 16.5 43.5t43.5 15.5q28 0 44.5 -15t16.5 -44q0 -60 -61 -60q-60 0 -60 60zM448 49q0 28 16 43.5t44 15.5q27 0 44 -15t17 -44t-16.5 -44.5t-44.5 -15.5q-60 0 -60 60z" />
<glyph unicode="&#x2030;" horiz-adv-x="1200" d="M259 659q80 0 121 -42.5t41 -120.5q0 -68 -43 -115t-121 -47q-79 0 -120.5 41.5t-41.5 120.5q0 71 43.5 117t120.5 46zM258 403q44 0 61.5 23.5t17.5 69.5q0 94 -79 94t-79 -94q0 -46 17 -69.5t62 -23.5zM596 315q79 0 120.5 -42.5t41.5 -120.5q0 -68 -43 -115.5 t-121 -47.5q-79 0 -120.5 42t-41.5 121q0 72 43 117.5t121 45.5zM595 59q44 0 61.5 24t17.5 69q0 94 -79 94q-80 0 -80 -94q0 -46 17.5 -69.5t62.5 -23.5zM944 315q79 0 120.5 -42.5t41.5 -120.5q0 -68 -43 -115.5t-121 -47.5q-79 0 -120.5 42t-41.5 121q0 72 43 117.5 t121 45.5zM943 59q44 0 61.5 24t17.5 69q0 94 -79 94q-80 0 -80 -94q0 -46 17.5 -69.5t62.5 -23.5zM655 561l-406 -508l-54 36l409 512z" />
<glyph unicode="&#x2039;" d="M192 234l129 231h87l-108 -227l108 -235h-87z" />
<glyph unicode="&#x203a;" d="M278 465l130 -231l-130 -231h-86l107 235l-107 227h86z" />
<glyph unicode="&#x2044;" d="M94 39l-47 36l459 555l47 -37z" />
<glyph unicode="&#x20a1;" d="M517 707h71l-230 -626q62 10 105 43l25 -91q-70 -40 -164 -43l-20 -54h-71l21 57q-34 4 -68 17l-27 -74h-70l39 105q-108 81 -108 281q0 159 81 248t214 89q20 0 38 -3l19 51h70l-24 -65q30 -10 64 -29zM322 570h-10q-93 0 -142 -62.5t-49 -182.5q0 -119 45 -181z M386 555l-168 -457q29 -14 68 -19l162 440q-30 24 -62 36z" />
<glyph unicode="&#x20a2;" d="M536 120l27 -89q-94 -41 -208 -41q-145 0 -230.5 78.5t-85.5 252.5q0 164 89.5 251t243.5 87q109 0 179 -43l-35 -98q-68 52 -148 52q-105 0 -161 -62.5t-56 -183.5q0 -194 126 -235v273h94l4 -89q54 95 134 95q17 0 36 -3l-8 -106q-19 8 -47 8q-57 0 -109 -82v-107 q92 4 155 42z" />
<glyph unicode="&#x20a3;" d="M401 202v-202h-104v280h-151v-280h-106v650h390v-89h-284v-193h246l3 -88q58 94 142 94q23 0 36 -2l-8 -106q-20 7 -47 7q-61 0 -117 -71z" />
<glyph unicode="&#x20a4;" d="M44 216v74h90v54h-90v74h90v13q0 109 63 168.5t157 59.5q97 0 163 -56l-47 -76q-52 49 -111 49q-123 0 -123 -144v-14h218v-74h-218v-54h219v-74h-219q-3 -88 -65 -132h205q55 0 85.5 17.5t51.5 49.5l51 -66q-17 -33 -58 -59t-105 -26h-363v64q43 5 69.5 43.5t26.5 81.5 v27h-90z" />
<glyph unicode="&#x20a5;" d="M134 347v-347h-90v479h83l1 -72q55 84 118 84q60 0 84 -52l57 174h67l-43 -133q22 11 47 11q57 0 79.5 -39t22.5 -122v-330h-91v315q0 57 -9 75t-33 18q-22 0 -46 -21l-34 -104v-283h-90v6l-31 -95h-67l98 301v103q0 53 -9 73t-32 20q-44 0 -82 -61z" />
<glyph unicode="&#x20a6;" d="M151 208v-208h-100v208h-36v71h36v91h-36v71h36v209h116l123 -209h160v209h100v-209h36v-71h-36v-91h36v-71h-36v-208h-109l-122 208h-168zM151 370v-91h126l-53 91h-73zM332 370l53 -91h65v91h-118zM151 495v-54h31zM427 208l23 -38v38h-23z" />
<glyph unicode="&#x20a7;" horiz-adv-x="1200" d="M626 394v-223q0 -54 21.5 -75.5t63.5 -21.5q54 0 104 47q63 -50 151 -50q47 0 80 14.5t33 46.5q0 29 -29 47t-70.5 29t-82.5 24.5t-70 43.5t-29 77q0 66 56.5 102t139.5 36q117 0 179 -38l-29 -90q-20 19 -60 33.5t-82 14.5q-102 0 -102 -53q0 -23 29 -38t71 -26 t83.5 -26.5t70.5 -48.5t29 -82q0 -41 -19.5 -71t-52.5 -46t-69 -23t-76 -7q-86 0 -151 38q-57 -38 -131 -38q-158 0 -158 164v240h-69q-11 -83 -70 -129t-152 -46h-104v-219h-102v650h204q207 0 225 -179l70 3l12 127h86v-128h165v-79h-165zM131 307h99q59 0 90.5 28.5 t31.5 95.5q0 64 -29 97t-97 33h-95v-254z" />
<glyph unicode="&#x20a8;" d="M435 -10q-89 0 -143.5 53t-130.5 195h-66v-238h-81v650h129q99 0 143.5 -52t44.5 -152q0 -135 -93 -186q56 -103 102 -151t97 -48q72 0 72 67q0 26 -17.5 45t-42.5 33t-49.5 31t-42 47t-17.5 71q0 64 39 100t91 36q66 0 115 -36l-20 -79q-29 45 -89 45q-27 0 -43.5 -15 t-16.5 -44q0 -24 17.5 -41.5t42.5 -31t50 -30.5t42.5 -48t17.5 -74q0 -79 -44 -113t-107 -34zM137 316q49 0 78.5 31.5t29.5 95.5q0 65 -26 96.5t-85 31.5h-39v-255h42z" />
<glyph unicode="&#x20a9;" d="M347 487l18 -66h104l17 229h102l-28 -229h30v-71h-39l-11 -90h50v-71h-59l-23 -189h-106l-53 189h-87l-46 -189h-108l-29 189h-70v71h60l-14 90h-46v71h36l-34 229h109l22 -229h103l16 66h86zM384 350l25 -90h49l6 90h-80zM149 350l8 -90h48l22 90h-78zM302 350l-22 -90 h49l-25 90h-2zM428 189l20 -70l5 70h-25zM164 189l7 -69l17 69h-24z" />
<glyph unicode="&#x20aa;" d="M27 0v650h165q135 0 183 -58t48 -216v-148h-73v98q0 77 -8 124t-29 71.5t-48 32t-74 7.5h-86v-561h-78zM573 650v-650h-165q-134 0 -182.5 58t-48.5 216v148h74v-97q0 -78 8 -124.5t29 -71t47.5 -32t73.5 -7.5h87v560h77z" />
<glyph unicode="&#x20ab;" d="M205 569v69h170v47h92v-47h45v-69h-45v-435h-85l-2 50q-60 -58 -126 -58q-77 0 -121.5 52.5t-44.5 141.5q0 95 58.5 152t151.5 57q36 0 77 -12v52h-170zM375 254v181q-29 18 -73 18q-117 0 -117 -125q0 -121 94 -121q49 0 96 47zM98 -5v71h376v-71h-376z" />
<glyph unicode="&#x20ac;" d="M115 208h-85l10 72h66q-1 13 -1 41t1 42h-66l10 72h66q25 108 96.5 166t180.5 58q93 0 165 -39l-33 -90q-61 41 -131 41q-133 0 -165 -136h244l-10 -72h-244q-1 -13 -1 -39q0 -30 1 -44h231l-10 -72h-210q34 -131 170 -131q78 0 143 39l27 -85q-76 -41 -185 -41 q-228 0 -270 218z" />
<glyph unicode="&#x20ad;" d="M554 650l-224 -290h200v-71h-180l228 -289h-126l-224 289h-40v-289h-106v289h-55v71h55v290h106v-290h41l212 290h113z" />
<glyph unicode="&#x20ae;" d="M567 650v-89h-214v-149l125 43v-76l-125 -43v-63l125 43v-76l-125 -43v-197h-106v161l-123 -41v76l123 41v63l-123 -41v76l123 41v185h-214v89h534z" />
<glyph unicode="&#x20b1;" d="M96 0v356h-59v51h59v64h-59v51h59v128h234q180 0 222 -128h40v-51h-30q2 -24 2 -36q0 -10 -2 -28h30v-51h-40q-22 -65 -79.5 -101t-141.5 -36h-129v-219h-106zM451 431q0 21 -3 40h-246v-64h247q2 14 2 24zM327 307q80 0 107 49h-232v-49h125zM202 561v-39h225 q-31 39 -104 39h-121z" />
<glyph unicode="&#x2113;" d="M99 222l83 52v214q0 30 4 57.5t15.5 55.5t29.5 48t48 33t68 13q74 0 114 -37.5t40 -98.5q0 -47 -22.5 -94.5t-60 -87t-68 -65.5t-64.5 -49v-53q0 -142 79 -142q38 0 87 31l17 -74q-48 -36 -121 -36q-166 0 -166 182v40l-57 -37zM286 484v-156q100 90 100 214q0 77 -45 77 q-31 0 -43 -29.5t-12 -105.5z" />
<glyph unicode="&#x2116;" d="M362 199v53h220v-53h-220zM471 291q-56 0 -86.5 46.5t-30.5 138.5q0 85 31.5 134t85.5 49q57 0 87 -46.5t30 -136.5q0 -84 -30.5 -134.5t-86.5 -50.5zM470 358q31 0 42 29t11 89q0 55 -11 85.5t-42 30.5q-52 0 -52 -116q0 -59 11.5 -88.5t40.5 -29.5zM93 475v-475h-69 v650h80l159 -461v461h68v-650h-74z" />
<glyph unicode="&#x2117;" d="M298 -7q-126 0 -209 93t-83 227q0 135 82.5 228t209.5 93q130 0 213.5 -92.5t83.5 -228.5q0 -135 -82.5 -227.5t-214.5 -92.5zM298 32q114 0 183 78.5t69 202.5q0 119 -69.5 200t-182.5 81q-111 0 -179 -79t-68 -202q0 -124 70 -202.5t177 -78.5zM179 101v421h140 q154 0 154 -138q0 -66 -40.5 -104.5t-112.5 -38.5h-64v-140h-77zM256 306h59q76 0 76 76q0 39 -18 58t-61 19h-56v-153z" />
<glyph unicode="&#x2120;" d="M255 302v350h61l69 -169l39 -114l39 115l66 168h58v-350h-46v236l-27 -83l-62 -153h-59l-62 147l-34 93v-240h-42zM111 297q-56 0 -102 33l20 61q40 -40 81 -40q23 0 40 10.5t17 30.5q0 16 -10 29t-21 19t-33 17q-24 12 -32 17t-25 18.5t-23.5 30t-6.5 38.5q0 43 30 70 t76 27q54 0 94 -27l-18 -63q-12 14 -33 24.5t-40 10.5q-47 0 -47 -38q0 -13 10 -23.5t17 -14t30 -15.5q53 -27 69 -45q25 -28 25 -70q0 -45 -33.5 -72.5t-84.5 -27.5z" />
<glyph unicode="&#x2122;" d="M232 302v350h71l68 -169l40 -114l38 115l67 168h68v-350h-57v236l-26 -83l-62 -153h-59l-62 147l-34 93v-240h-52zM83 302v294h-71v55h203v-55h-72v-294h-60z" />
<glyph unicode="&#x2126;" d="M17 0v67h186v43q-77 25 -128 89.5t-51 169.5q0 126 75.5 206.5t204.5 80.5t199.5 -81t70.5 -206q0 -106 -45 -164t-131 -95v-43h185v-67h-260v140q86 34 130 85.5t44 143.5q0 99 -47 161.5t-146 62.5q-98 0 -150.5 -62t-52.5 -162q0 -90 48 -142t130 -86v-141h-262z" />
<glyph unicode="&#x212e;" d="M587 231h-465q-4 0 -4 -3v-135q0 -7 7 -18q70 -73 174 -73q111 0 186 83h41q-38 -45 -99 -71.5t-129 -26.5q-118 0 -202 73.5t-84 176.5q0 105 83.5 177t202.5 72q120 0 204.5 -72t84.5 -177v-6zM481 249v136q0 11 -6 17q-72 69 -176 69q-105 0 -174 -71q-7 -7 -7 -18 v-133q0 -3 4 -3h357q2 0 2 3z" />
<glyph unicode="&#x2190;" d="M600 312v-90h-413l102 -85v-117l-265 248l265 248v-116l-106 -88h417z" />
<glyph unicode="&#x2191;" d="M345 40h-90v391l-86 -103h-117l248 265l248 -265h-116l-87 105v-393z" />
<glyph unicode="&#x2192;" d="M0 222v90h418l-106 88v116l265 -248l-265 -248v117l101 85h-413z" />
<glyph unicode="&#x2193;" d="M255 593h90v-393l87 105h116l-248 -265l-248 265h117l86 -103v391z" />
<glyph unicode="&#x2196;" d="M451 565l-82 -81l-138 13l280 -280l-64 -63l-276 275l12 -132l-82 -82l-12 362z" />
<glyph unicode="&#x2197;" d="M230 484l-82 81l363 12l-12 -362l-83 82l12 132l-275 -275l-64 63l279 280z" />
<glyph unicode="&#x2198;" d="M89 514l64 63l275 -275l-12 132l83 82l12 -362l-363 12l82 81l138 -13z" />
<glyph unicode="&#x2199;" d="M447 577l64 -63l-280 -280l138 13l82 -81l-362 -12l12 362l82 -82l-12 -133z" />
<glyph unicode="&#x2202;" d="M63 226q0 106 64 164.5t164 58.5q51 0 88 -21q-25 60 -81 114.5t-119 83.5l50 66q301 -143 308 -436q0 -2 0.5 -7.5t0.5 -7.5q0 -106 -63 -178.5t-174 -72.5q-106 0 -172 60.5t-66 175.5zM172 227q0 -154 126 -154q71 0 100 42t30 123q0 63 -12 104q-50 33 -112 33 q-132 0 -132 -148z" />
<glyph unicode="&#x2206;" d="M23 0l239 651h82l233 -651h-554zM131 67h334l-166 488z" />
<glyph unicode="&#x220f;" d="M67 650h466v-650h-106v557h-254v-557h-106v650z" />
<glyph unicode="&#x2211;" d="M60 0v73l215 261l-215 260v74h480v-71h-381l202 -242v-37l-206 -248h385v-70h-480z" />
<glyph unicode="&#x2212;" d="M497 253h-394v72h394v-72z" />
<glyph unicode="&#x221a;" d="M282 0l-141 421h-111v73h178l112 -370l165 583h85l-216 -707h-72z" />
<glyph unicode="&#x221e;" d="M156 89q-60 0 -101 56.5t-41 139.5q0 84 43.5 140.5t107.5 56.5q77 0 140 -138q23 60 60 99t80 39q64 0 102 -56t38 -139q0 -86 -40.5 -142t-104.5 -56q-80 0 -138 138q-23 -60 -61.5 -99t-84.5 -39zM82 285q0 -59 22 -94.5t57 -35.5q37 0 63 33.5t49 97.5 q-19 59 -47 94.5t-62 35.5q-39 0 -60.5 -35.5t-21.5 -95.5zM335 287q20 -63 48 -97.5t59 -34.5q36 0 54.5 35t18.5 95q0 61 -19 96.5t-55 35.5q-57 0 -106 -130z" />
<glyph unicode="&#x222b;" d="M99 -215v63h72q51 0 66 32t15 121v478q0 102 44.5 154.5t127.5 52.5h78v-64h-71q-53 0 -73.5 -33.5t-20.5 -118.5v-478q0 -105 -38.5 -156t-121.5 -51h-78z" />
<glyph unicode="&#x2248;" d="M414 305q-33 0 -67.5 17.5t-58 39t-53 39t-54.5 17.5q-41 0 -64.5 -26t-19.5 -83h-77q-5 83 43 130.5t121 47.5q46 0 89.5 -28.5t80.5 -57t66 -28.5q36 0 60 29t21 89h79q1 -88 -45.5 -137t-120.5 -49zM414 76q-33 0 -67.5 17.5t-58 39t-53 39t-53.5 17.5 q-41 0 -64.5 -26.5t-19.5 -83.5h-78q-4 83 44 130.5t121 47.5q36 0 71.5 -17.5t59 -39t52 -39t52.5 -17.5q36 0 60 29t21 89h80q1 -88 -45.5 -137t-121.5 -49z" />
<glyph unicode="&#x2260;" d="M115 60l61 100h-90v74h135l71 116h-206v74h251l65 106h83l-65 -106h93v-74h-138l-71 -116h209v-74h-254l-61 -100h-83z" />
<glyph unicode="&#x2264;" d="M442 101l-335 183v66l334 198l41 -67l-277 -160l274 -151zM92 -2v71h416v-71h-416z" />
<glyph unicode="&#x2265;" d="M508 69v-71h-416v71h416zM493 284l-335 -183l-37 69l274 151l-277 160l41 67l334 -198v-66z" />
<glyph unicode="&#x2460;" d="M298 -8q-107 0 -183.5 78.5t-76.5 188.5q0 111 76.5 189.5t183.5 78.5q110 0 187 -78.5t77 -189.5t-77 -189t-187 -78zM298 22q96 0 162 68t66 169q0 98 -66 167t-162 69q-94 0 -159 -66.5t-65 -169.5q0 -102 65 -169.5t159 -67.5zM287 114v251l-63 -3v31l98 5v-284h-35z " />
<glyph unicode="&#x2461;" d="M298 -8q-107 0 -183.5 78.5t-76.5 188.5q0 111 76.5 189.5t183.5 78.5q110 0 187 -78.5t77 -189.5t-77 -189t-187 -78zM298 22q96 0 162 68t66 169q0 98 -66 167t-162 69q-94 0 -159 -66.5t-65 -169.5q0 -102 65 -169.5t159 -67.5zM198 126v25q49 38 96.5 92.5t47.5 89.5 q0 22 -14 34t-34 12q-31 0 -60 -31l-20 22q33 40 84 40q32 0 55 -19.5t23 -55.5t-38.5 -86.5t-87.5 -91.5h140v-31h-192z" />
<glyph unicode="&#x2462;" d="M298 -8q-107 0 -183.5 78.5t-76.5 188.5q0 111 76.5 189.5t183.5 78.5q110 0 187 -78.5t77 -189.5t-77 -189t-187 -78zM298 22q96 0 162 68t66 169q0 98 -66 167t-162 69q-94 0 -159 -66.5t-65 -169.5q0 -102 65 -169.5t159 -67.5zM287 118q-24 0 -48.5 10t-32.5 18 l20 27q29 -26 65 -26q25 0 44 13.5t19 36.5q0 51 -102 58v27q36 3 62.5 17.5t26.5 38.5q0 17 -13 26.5t-34 9.5q-30 0 -59 -21l-15 27q35 26 78 26q33 0 55 -18.5t22 -45.5q0 -49 -51 -70q65 -17 65 -74q0 -34 -25 -57t-77 -23z" />
<glyph unicode="&#x2463;" d="M298 -8q-107 0 -183.5 78.5t-76.5 188.5q0 111 76.5 189.5t183.5 78.5q110 0 187 -78.5t77 -189.5t-77 -189t-187 -78zM298 22q96 0 162 68t66 169q0 98 -66 167t-162 69q-94 0 -159 -66.5t-65 -169.5q0 -102 65 -169.5t159 -67.5zM299 122v74h-134v24l136 182h33v-176 h42v-30h-42v-74h-35zM206 226h93v127z" />
<glyph unicode="&#x2464;" d="M298 -8q-107 0 -183.5 78.5t-76.5 188.5q0 111 76.5 189.5t183.5 78.5q110 0 187 -78.5t77 -189.5t-77 -189t-187 -78zM298 22q96 0 162 68t66 169q0 98 -66 167t-162 69q-94 0 -159 -66.5t-65 -169.5q0 -102 65 -169.5t159 -67.5zM283 110q-41 0 -76 29l19 27 q29 -26 64 -26q24 0 41.5 14.5t17.5 41.5q0 65 -125 65v133h152v-30h-118v-74q126 -4 126 -93q0 -37 -25 -62t-76 -25z" />
<glyph unicode="&#x2465;" d="M298 -8q-107 0 -183.5 78.5t-76.5 188.5q0 111 76.5 189.5t183.5 78.5q110 0 187 -78.5t77 -189.5t-77 -189t-187 -78zM298 22q96 0 162 68t66 169q0 98 -66 167t-162 69q-94 0 -159 -66.5t-65 -169.5q0 -102 65 -169.5t159 -67.5zM287 110q-98 0 -98 134q0 71 40 112.5 t111 41.5q17 0 29 -1v-32q-6 0 -16.5 1.5t-14.5 1.5q-46 0 -78 -27t-36 -76q33 20 74 20q36 0 60 -20.5t24 -58.5q0 -43 -25.5 -69.5t-69.5 -26.5zM290 140q28 0 42 17.5t14 42.5q0 28 -14 41t-45 13q-33 0 -64 -24q4 -90 67 -90z" />
<glyph unicode="&#x2466;" d="M298 -8q-107 0 -183.5 78.5t-76.5 188.5q0 111 76.5 189.5t183.5 78.5q110 0 187 -78.5t77 -189.5t-77 -189t-187 -78zM298 22q96 0 162 68t66 169q0 98 -66 167t-162 69q-94 0 -159 -66.5t-65 -169.5q0 -102 65 -169.5t159 -67.5zM233 115l117 249h-148v30h188v-20 l-122 -259h-35z" />
<glyph unicode="&#x2467;" d="M298 -8q-107 0 -183.5 78.5t-76.5 188.5q0 111 76.5 189.5t183.5 78.5q110 0 187 -78.5t77 -189.5t-77 -189t-187 -78zM298 22q96 0 162 68t66 169q0 98 -66 167t-162 69q-94 0 -159 -66.5t-65 -169.5q0 -102 65 -169.5t159 -67.5zM297 110q-37 0 -66.5 19.5t-29.5 51.5 q0 49 65 81q-20 12 -29.5 19.5t-18 20.5t-8.5 29q0 30 26 48.5t63 18.5q38 0 61 -17.5t23 -47.5q0 -36 -59 -69q48 -28 60 -44q10 -15 10 -33q0 -33 -29.5 -55t-67.5 -22zM300 140q26 0 42.5 12.5t16.5 32.5q0 12 -12 25t-22 19t-31 17q-58 -29 -58 -62q0 -21 18 -32.5 t46 -11.5zM244 333q0 -15 9 -23.5t45 -30.5q50 31 50 53q0 19 -15 28t-35 9q-24 0 -39 -10t-15 -26z" />
<glyph unicode="&#x2468;" d="M298 -8q-107 0 -183.5 78.5t-76.5 188.5q0 111 76.5 189.5t183.5 78.5q110 0 187 -78.5t77 -189.5t-77 -189t-187 -78zM298 22q96 0 162 68t66 169q0 98 -66 167t-162 69q-94 0 -159 -66.5t-65 -169.5q0 -102 65 -169.5t159 -67.5zM218 112v32q20 -3 31 -3 q46 0 77.5 26.5t35.5 75.5q-35 -19 -73 -19q-36 0 -60 20.5t-24 58.5q0 43 25 69t69 26q99 0 99 -133q0 -72 -40.5 -113.5t-111.5 -41.5q-4 0 -28 2zM300 254q32 0 63 24q-2 91 -67 91q-27 0 -41.5 -18t-14.5 -43q0 -54 60 -54z" />
<glyph unicode="&#x2469;" d="M298 -8q-107 0 -183.5 78.5t-76.5 188.5q0 111 76.5 189.5t183.5 78.5q110 0 187 -78.5t77 -189.5t-77 -189t-187 -78zM298 22q96 0 162 68t66 169q0 98 -66 167t-162 69q-94 0 -159 -66.5t-65 -169.5q0 -102 65 -169.5t159 -67.5zM193 114v251l-63 -3v31l97 5v-284h-34z M364 110q-53 0 -79.5 37t-26.5 103q0 148 108 148t108 -136q0 -27 -4.5 -51t-16 -48t-34.5 -38.5t-55 -14.5zM367 140q72 0 72 118q0 109 -75 109q-71 0 -71 -108q0 -119 74 -119z" />
<glyph unicode="&#x24ca;" d="M298 -7q-126 0 -209 93t-83 227q0 135 82.5 228t209.5 93q130 0 213.5 -92.5t83.5 -228.5q0 -135 -82.5 -227.5t-214.5 -92.5zM298 32q114 0 183 78.5t69 202.5q0 119 -69.5 200t-182.5 81q-111 0 -179 -79t-68 -202q0 -124 70 -202.5t177 -78.5zM296 111 q-155 0 -155 144v239h70v-231q0 -53 21.5 -74.5t65.5 -21.5q87 0 87 99v228h69v-236q0 -70 -43 -108.5t-115 -38.5z" />
<glyph unicode="&#x25ca;" d="M262 0l-231 317l233 334h75l230 -333l-228 -318h-79zM300 64l180 253l-181 268l-178 -268z" />
<glyph unicode="&#x25fc;" horiz-adv-x="480" d="M0 480h480v-480h-480v480z" />
<glyph unicode="&#x2610;" d="M0 0v650h599v-650h-599zM55 596v-542h489v542h-489z" />
<glyph unicode="&#x2611;" d="M0 0v650h599v-650h-599zM55 596v-542h489v542h-489zM230 179l253 386l52 -35l-289 -427h-41l-130 205l54 32z" />
<glyph unicode="&#x261a;" d="M559 274v-167l-66 -44q-64 -14 -134 -14l-69 4q15 16 15 33q0 6 -2 12t-4 9l-2 3q21 14 21 31q0 15 -16 31q2 1 5 4.5t7 10.5t4 15q0 15 -17 32l-226 2q-34 0 -34 29t34 29h259l25 -54l30 -18l9 7l-30 16l-31 63l-25 14l-93 -20h-5q-28 0 -28 24q0 6 2 12.5t4 9.5l1 4 l130 33l53 -10q25 -8 183 -101zM156 225h139q10 -10 10 -24q0 -11 -9 -23h-140q-15 10 -15 23q0 6 3.5 12t7.5 9zM165 166h130q11 -9 11 -24q0 -10 -10 -23h-131q-15 11 -15 23q0 6 4 12t8 9zM173 106h112q7 -8 7 -21q0 -15 -11 -27h-77q-47 0 -47 24q0 6 4 12t8 9z" />
<glyph unicode="&#x261b;" d="M41 107v167q158 93 183 101l53 10l130 -33q7 -13 7 -26q0 -24 -28 -24h-5l-93 20l-25 -14l-31 -63l-30 -16l9 -7l30 18l25 54h259q34 0 34 -29t-34 -29l-226 -2q-17 -17 -17 -32q0 -8 3.5 -15.5t7 -11t4.5 -3.5q-15 -15 -15 -31q0 -17 21 -31q-8 -10 -8 -24q0 -17 15 -33 q-28 -4 -69 -4q-70 0 -134 14zM305 225h139q15 -11 15 -24t-15 -23h-140q-9 12 -9 23q0 6 2.5 12t4.5 9zM305 166h130q15 -11 15 -24q0 -12 -15 -23h-131q-10 13 -10 23q0 7 3 13t5 9zM315 106h112q16 -10 16 -24q0 -24 -47 -24h-77q-11 12 -11 27q0 6 2 11t4 8z" />
<glyph unicode="&#x261c;" d="M502 78l60 44l20 -27l-72 -49q-62 -15 -132 -15q-18 0 -43 2.5t-41 4.5l-16 2q-11 -2 -49 -2q-60 0 -60 40q0 15 13 28q-20 15 -20 35q0 13 10 25q-18 15 -18 34q0 12 5 18l-93 1q-48 0 -48 45q0 46 48 46h133q-2 8 -2 16q0 7 3 17t6 17l3 6l133 36l53 -11 q14 -5 41 -21.5t70.5 -44.5t75.5 -47l-18 -23q-5 3 -15 9.5t-22 14.5t-17 11q-96 60 -119 69l-47 10q-16 -4 -56 -15t-62 -16v-12q0 -8 16 -8l92 20l32 -17l29 -65l27 -27l-14 -27l-42 26l-21 50h-279q-19 0 -19 -14q0 -13 19 -13l262 -1q23 -24 23 -49q0 -17 -9 -30 q9 -18 9 -31q0 -19 -14 -36q3 -13 3 -20q0 -10 -3 -19q1 -2 41 -2q58 0 124 15zM309 208h-122q-5 -2 -5 -8t5 -7l125 -3q0 13 -3 18zM310 149h-115q-5 -3 -5 -8t6 -7l116 -4v7q0 10 -2 12zM298 89h-96q-4 -6 -4 -8q0 -8 31 -8q18 0 27 1h41q2 8 2 9t-0.5 3t-0.5 3z" />
<glyph unicode="&#x261d;" d="M161 77l45 -60l-28 -19l-48 71q-16 67 -16 133q0 17 2 42t4 42l3 16q-1 10 -1 48q0 29 8 44.5t32 15.5q15 0 27 -12q14 19 35 19q15 0 25 -10q15 19 34 19q10 0 19 -6v94q0 47 45 47q46 0 46 -47v-134q5 2 17 2q7 0 17 -3t17 -6l6 -3l35 -133l-11 -53q-5 -14 -21 -40.5 t-44.5 -70.5t-47.5 -75l-23 17l35 54q59 94 69 119l10 47q-4 16 -15 56t-16 62q-7 1 -11 1q-8 0 -8 -16l19 -93l-17 -32l-65 -29l-27 -26l-27 13l26 42l50 21v280q0 18 -14 18q-13 0 -13 -18l-1 -263q-24 -23 -49 -23q-16 0 -30 9q-18 -9 -31 -9q-17 0 -36 14q-13 -3 -20 -3 q-10 0 -19 3q-2 0 -2 -40q0 -59 15 -125zM291 270v122q-2 6 -8 6q-5 0 -7 -6l-3 -125q13 0 18 3zM232 269v115q-3 6 -8 6q-4 0 -7 -7l-3 -116h6q10 0 12 2zM172 282v95q-6 5 -8 5q-8 0 -8 -32q0 -18 1 -27q0 -5 0.5 -15t0.5 -14v-12q6 -2 8 -2t6 2z" />
<glyph unicode="&#x261e;" d="M38 122l60 -44q66 -15 124 -15l41 2q-3 9 -3 19l3 20q-14 17 -14 36q0 6 2.5 13.5t4.5 12.5l2 5q-9 13 -9 30q0 25 23 49l262 1q19 0 19 13q0 14 -19 14h-279l-21 -50l-42 -26l-14 27l27 27l29 65l32 17l92 -20q16 0 16 8v12q-22 5 -62 16t-56 15l-47 -10 q-23 -9 -119 -69q-5 -3 -17 -11t-22 -14.5t-15 -9.5l-18 23q32 19 75.5 47t70.5 44.5t41 21.5l53 11l133 -36q12 -24 12 -40q0 -8 -2 -16h133q48 0 48 -46q0 -45 -48 -45l-93 -1q5 -6 5 -18q0 -19 -18 -34q10 -12 10 -25q0 -20 -20 -35q13 -13 13 -28q0 -40 -60 -40 q-38 0 -49 2q-60 -9 -100 -9q-70 0 -132 15l-72 49zM413 208h-122q-3 -5 -3 -18l125 3q5 1 5 7q0 3 -1 5t-3 3h-1zM405 149h-115q-2 -2 -2 -12v-7l116 4q6 2 6 7zM398 89h-96q0 -1 -0.5 -3t-0.5 -3t2 -9h41q9 -1 27 -1q31 0 31 8z" />
<glyph unicode="&#x261f;" d="M206 542l-45 -60q-15 -66 -15 -125l2 -41q9 3 19 3l20 -3q17 14 36 14l31 -8q16 8 30 8q25 0 49 -23l1 -262q0 -19 13 -19q14 0 14 19v279l-50 22l-26 41l27 14l27 -27l65 -28l17 -32l-19 -93q0 -16 8 -16l11 1q5 20 16 59.5t15 57.5l-10 47q-10 26 -69 120l-35 53l23 18 q18 -30 47 -74.5t45 -71.5t21 -41l11 -52l-35 -134q-24 -12 -40 -12q-7 0 -17 2v-133q0 -47 -46 -47q-45 0 -45 47v93q-8 -5 -19 -5q-19 0 -34 18q-11 -9 -25 -9q-21 0 -35 19q-13 -13 -27 -13q-24 0 -32 15.5t-8 44.5q0 38 1 49q-9 61 -9 100q0 65 16 133l48 71zM291 166 v122q-5 3 -18 3l3 -125q1 -5 7 -5zM232 174v116h-2q-2 0 -4.5 0.5t-5.5 0.5h-6l3 -116q2 -6 7 -6zM172 182v95q-2 1 -6 1q-5 0 -8 -2v-12q0 -4 -0.5 -13.5t-0.5 -15.5q-1 -9 -1 -27q0 -31 8 -31z" />
<glyph unicode="&#x267e;" d="M298 -7q-126 0 -209 93t-83 227q0 135 82.5 228t209.5 93q130 0 213.5 -92.5t83.5 -228.5q0 -135 -82.5 -227.5t-214.5 -92.5zM298 32q114 0 183 78.5t69 202.5q0 119 -69.5 200t-182.5 81q-111 0 -179 -79t-68 -202q0 -124 70 -202.5t177 -78.5zM186 167q-47 0 -79 41.5 t-32 104.5q0 62 34 104t85 42q65 0 114 -99q18 43 48 71t64 28q52 0 82.5 -41.5t30.5 -103.5q0 -64 -34.5 -105.5t-85.5 -41.5q-62 0 -107 98q-19 -43 -51 -70.5t-69 -27.5zM123 313q0 -43 17.5 -68.5t45.5 -25.5q62 0 98 94q-15 43 -39 68t-53 25q-31 0 -50 -25t-19 -68z M330 314q33 -95 85 -95q30 0 48.5 25.5t18.5 68.5q0 44 -16.5 68.5t-45.5 24.5q-26 0 -49.5 -24.5t-40.5 -67.5z" />
<glyph unicode="&#x2713;" d="M225 154l253 386l52 -35l-289 -427h-41l-130 205l54 32z" />
<glyph unicode="&#x2776;" d="M298 -8q-107 0 -183.5 78.5t-76.5 188.5q0 111 76.5 189.5t183.5 78.5q110 0 187 -78.5t77 -189.5t-77 -189t-187 -78zM287 365v-251h35v284l-98 -5v-31z" />
<glyph unicode="&#x2777;" d="M298 -8q-107 0 -183.5 78.5t-76.5 188.5q0 111 76.5 189.5t183.5 78.5q110 0 187 -78.5t77 -189.5t-77 -189t-187 -78zM198 151v-25h192v31h-140q49 41 87.5 91.5t38.5 86.5t-23 55.5t-55 19.5q-51 0 -84 -40l20 -22q29 31 60 31q20 0 34 -12t14 -34q0 -35 -47.5 -89.5 t-96.5 -92.5z" />
<glyph unicode="&#x2778;" d="M298 -8q-107 0 -183.5 78.5t-76.5 188.5q0 111 76.5 189.5t183.5 78.5q110 0 187 -78.5t77 -189.5t-77 -189t-187 -78zM287 118q52 0 77 23t25 57q0 57 -65 74q51 21 51 70q0 27 -22 45.5t-55 18.5q-19 0 -38.5 -6.5t-29.5 -13.5l-10 -6l15 -27q29 21 59 21q21 0 34 -9.5 t13 -26.5q0 -24 -26.5 -38.5t-62.5 -17.5v-27q102 -7 102 -58q0 -23 -19 -36.5t-44 -13.5q-36 0 -65 26l-20 -27q8 -8 32.5 -18t48.5 -10z" />
<glyph unicode="&#x2779;" d="M298 -8q-107 0 -183.5 78.5t-76.5 188.5q0 111 76.5 189.5t183.5 78.5q110 0 187 -78.5t77 -189.5t-77 -189t-187 -78zM305 204v-74h34v74h43v30h-43v176h-33l-136 -182v-24h135zM305 234h-94q44 58 94 127v-127z" />
<glyph unicode="&#x277a;" d="M298 -8q-107 0 -183.5 78.5t-76.5 188.5q0 111 76.5 189.5t183.5 78.5q110 0 187 -78.5t77 -189.5t-77 -189t-187 -78zM283 110q51 0 76 25t25 62q0 89 -126 93v74h118v30h-152v-133q125 0 125 -65q0 -27 -17.5 -41.5t-41.5 -14.5q-35 0 -64 26l-19 -27q35 -29 76 -29z " />
<glyph unicode="&#x277b;" d="M298 -8q-107 0 -183.5 78.5t-76.5 188.5q0 111 76.5 189.5t183.5 78.5q110 0 187 -78.5t77 -189.5t-77 -189t-187 -78zM289 118q44 0 69 26.5t25 69.5q0 38 -24 58.5t-60 20.5q-40 0 -73 -20q4 49 36 76t77 27q4 0 15.5 -1.5t15.5 -1.5v32q-12 1 -28 1 q-71 0 -111.5 -41.5t-40.5 -112.5q0 -134 99 -134zM292 148q-65 0 -67 90q29 24 64 24q31 0 45 -13t14 -41q0 -25 -14.5 -42.5t-41.5 -17.5z" />
<glyph unicode="&#x277c;" d="M298 -8q-107 0 -183.5 78.5t-76.5 188.5q0 111 76.5 189.5t183.5 78.5q110 0 187 -78.5t77 -189.5t-77 -189t-187 -78zM350 364l-117 -249h35l122 259v20h-188v-30h148z" />
<glyph unicode="&#x277d;" d="M298 -8q-107 0 -183.5 78.5t-76.5 188.5q0 111 76.5 189.5t183.5 78.5q110 0 187 -78.5t77 -189.5t-77 -189t-187 -78zM297 110q38 0 67.5 22t29.5 55q0 14 -4.5 24.5t-18.5 21.5t-19.5 14.5t-27.5 16.5q59 33 59 69q0 30 -23 47.5t-61 17.5q-37 0 -63 -18.5t-26 -48.5 q0 -16 8.5 -29t18 -20.5t29.5 -19.5q-65 -32 -65 -81q0 -32 29.5 -51.5t66.5 -19.5zM300 140q-28 0 -46 11.5t-18 32.5q0 33 58 62q21 -11 31 -17t22 -19t12 -25q0 -20 -16.5 -32.5t-42.5 -12.5zM244 333q0 16 15 26t39 10q20 0 35 -9t15 -28q0 -22 -50 -53q-36 22 -45 30.5 t-9 23.5z" />
<glyph unicode="&#x277e;" d="M298 -8q-107 0 -183.5 78.5t-76.5 188.5q0 111 76.5 189.5t183.5 78.5q110 0 187 -78.5t77 -189.5t-77 -189t-187 -78zM220 146v-32q24 -2 29 -2q71 0 111 41.5t40 112.5q0 134 -98 134q-44 0 -69.5 -26t-25.5 -69q0 -39 24 -59t60 -20q39 0 74 19q-5 -49 -36.5 -76 t-77.5 -27q-12 0 -31 4zM302 256q-60 0 -60 54q0 25 14 42.5t42 17.5q64 0 68 -91q-32 -23 -64 -23z" />
<glyph unicode="&#x277f;" d="M298 -8q-107 0 -183.5 78.5t-76.5 188.5q0 111 76.5 189.5t183.5 78.5q110 0 187 -78.5t77 -189.5t-77 -189t-187 -78zM185 365v-251h34v284l-97 -5v-31zM372 110q32 0 55 14.5t34.5 38.5t16 48t4.5 51q0 136 -108 136t-108 -148q0 -66 26.5 -103t79.5 -37zM375 140 q-74 0 -74 119q0 108 71 108q75 0 75 -109q0 -118 -72 -118z" />
<glyph unicode="&#x301a;" d="M139 -178v908h322v-71h-61v-769h61v-68h-322zM230 659v-769h83v769h-83z" />
<glyph unicode="&#x301b;" d="M461 730v-908h-322v68h62v769h-62v71h322zM370 659h-82v-769h82v769z" />
<glyph unicode="&#xf8ff;" d="M162 265v132h136v-132h-66v68h-4v-68h-66zM302 265v64h68v4h-68v64h136v-132h-136z" />
<glyph d="M304 659q247 0 247 -318q0 -351 -256 -351q-246 0 -246 322q0 347 255 347zM302 76q43 0 72.5 20t44 57.5t20 79t5.5 97.5q0 42 -2.5 73t-11 65t-24 55.5t-43.5 35.5t-67 14q-141 0 -141 -240q0 -47 2.5 -80.5t11.5 -69t24.5 -57.5t43 -36t65.5 -14z" />
<glyph horiz-adv-x="1200" d="M70 0v91h177v469h-177v90h464v-90h-181v-469h181v-91h-464zM699 560v90h389v-388q0 -70 -25.5 -124.5t-62.5 -86t-89 -53t-96 -30t-92 -11.5l-17 93q43 5 71 9.5t71 20t69 37.5t45.5 62.5t19.5 94.5v286h-283zM454 765l-186 -76l-26 51l175 107zM1051 765l-186 -76 l-26 51l175 107z" />
<glyph horiz-adv-x="1200" d="M691 395v84h355v-441q0 -262 -357 -262l-4 90q39 0 66.5 2t66.5 12.5t63.5 29t42.5 55t18 87.5v343h-251zM78 0v84h168v311h-168v84h272v-395h172v-84h-444zM1016 658l-151 -112l-39 42l133 137zM386 658l-151 -112l-39 42l133 137z" />
<glyph d="M106 131q0 37 20 67.5t48 51.5t56.5 39.5t48.5 41.5t20 48t-21 54l103 26q18 -41 18 -81q0 -37 -28.5 -71.5t-62 -56.5t-62 -52.5t-28.5 -60.5q0 -32 27 -49t70 -17q80 0 134 54l44 -70q-79 -66 -193 -66q-84 0 -138.5 37.5t-55.5 104.5zM384 597q0 -28 -17.5 -44 t-47.5 -16q-29 0 -47 15t-18 45t17 46t48 16q65 0 65 -62z" />
<glyph d="M349 -2h-98v223l10 211h77l11 -212v-222zM364 597q0 -28 -17 -44t-47 -16q-29 0 -47.5 15.5t-18.5 44.5q0 30 17.5 46t48.5 16q64 0 64 -62z" />
<glyph d="M433 281h-266v89h266v-89z" />
<glyph d="M80 292v73h440v-73h-440z" />
<glyph d="M0 292v73h600v-73h-600z" />
<glyph d="M375 705l53 -55q-80 -60 -122 -150t-42 -185q0 -214 172 -344l-52 -56q-220 160 -220 397q0 109 54.5 213t156.5 180z" />
<glyph d="M172 650l53 55q102 -76 156.5 -180t54.5 -213q0 -237 -220 -397l-52 56q172 130 172 344q0 95 -42 185t-122 150z" />
<glyph d="M193 -83v793h215v-71h-125v-654h125v-68h-215z" />
<glyph d="M408 710v-793h-215v69h126v653h-126v71h215z" />
<glyph d="M401 -86q-96 0 -127.5 39.5t-31.5 121.5v156q0 47 -62 50q-3 1 -25 1v67q21 0 24 1q63 3 63 50v153q0 35 6 61t22.5 50t50 36.5t83.5 12.5h42v-64h-37q-52 0 -68.5 -21t-16.5 -74v-99q0 -60 -16 -93.5t-63 -45.5q79 -15 79 -137v-106q0 -53 14.5 -73t66.5 -20h41v-66h-45 z" />
<glyph d="M199 -86h-44v66h40q53 0 67.5 20t14.5 73v106q0 59 17 94t62 43q-47 12 -63 45.5t-16 93.5v99q0 53 -16.5 74t-69.5 21h-36v64h41q50 0 83.5 -12.5t50 -36t23 -50t6.5 -61.5v-153q0 -48 64 -50q3 -1 23 -1v-67q-20 0 -23 -1q-33 -2 -48.5 -13t-15.5 -37v-156 q0 -82 -32 -121.5t-128 -39.5z" />
<glyph d="M139 -83v793h322v-71h-61v-654h61v-68h-322zM230 639v-654h83v654h-83z" />
<glyph d="M461 710v-793h-322v68h62v654h-62v71h322zM370 639h-82v-654h82v654z" />
<glyph d="M47 260q0 142 60.5 259.5t172.5 200.5l57 -58q-191 -161 -191 -397q0 -133 49.5 -228t142.5 -175l-52 -56q-116 82 -177.5 199t-61.5 255zM262 260q0 142 60.5 259.5t172.5 200.5l57 -58q-191 -161 -191 -397q0 -133 49.5 -228t142.5 -175l-52 -56q-116 82 -177.5 199 t-61.5 255z" />
<glyph d="M273 705l53 -55q-80 -60 -122 -150t-42 -185q0 -214 172 -344l-52 -56q-220 160 -220 397q0 109 54.5 213t156.5 180zM476 704l53 -55q-80 -60 -121.5 -150t-41.5 -185q0 -213 171 -344l-51 -56q-220 160 -220 397q0 109 54 213.5t156 179.5z" />
<glyph d="M338 260q0 -138 -61.5 -255t-177.5 -199l-52 56q93 80 142.5 175t49.5 228q0 236 -191 397l57 58q112 -83 172.5 -200.5t60.5 -259.5zM553 260q0 -138 -61.5 -255t-177.5 -199l-52 56q93 80 142.5 175t49.5 228q0 236 -191 397l57 58q112 -83 172.5 -200.5t60.5 -259.5z " />
<glyph d="M70 649l53 55q102 -76 156.5 -180t54.5 -213q0 -237 -220 -397l-52 56q172 130 172 344q0 95 -42 185t-122 150zM274 650l53 55q102 -75 156 -179.5t54 -213.5q0 -237 -220 -397l-51 56q171 131 171 344q0 95 -41.5 185t-121.5 150z" />
<glyph d="M278 550l130 -231l-130 -231h-86l107 235l-107 227h86z" />
<glyph d="M192 319l129 231h87l-108 -227l108 -235h-87z" />
<glyph d="M90 319l130 231h86l-107 -227l107 -235h-86zM294 319l129 231h86l-107 -227l107 -235h-86z" />
<glyph d="M176 550l130 -231l-130 -231h-86l108 235l-108 227h86zM380 550l129 -231l-129 -231h-86l107 235l-107 227h86z" />
<glyph d="M406 765l-186 -76l-26 51l175 107z" />
<glyph d="M364 835h67q0 -60 -34 -92.5t-96 -32.5q-63 0 -97 33t-34 92h67q2 -64 65 -64q62 0 62 64z" />
<glyph d="M273 701l-121 97l40 54l109 -78l109 78l38 -51l-124 -100h-51z" />
<glyph d="M326 850l122 -98l-40 -53l-110 78l-108 -78l-38 51l123 100h51z" />
<glyph d="M149 776q0 23 16.5 39.5t39.5 16.5t39.5 -16.5t16.5 -39.5t-16.5 -39.5t-39.5 -16.5t-39.5 16.5t-16.5 39.5zM339 776q0 23 16.5 39.5t39.5 16.5t39.5 -16.5t16.5 -39.5t-16.5 -39.5t-39.5 -16.5t-39.5 16.5t-16.5 39.5z" />
<glyph d="M241 779q0 25 17 42.5t42 17.5q24 0 41.5 -17.5t17.5 -42.5t-17.5 -42t-41.5 -17q-25 0 -42 17t-17 42z" />
<glyph d="M324 814l-173 -125l-36 42l154 154zM485 754l-190 -65l-24 51l180 97z" />
<glyph d="M381 689l-187 76l38 82l174 -107z" />
<glyph d="M162 734v69h276v-69h-276z" />
<glyph d="M170 719l-34 35q48 69 103 69q25 0 67 -14.5t61 -14.5q38 0 64 31l33 -37q-43 -68 -103 -68q-20 0 -62 15t-63 15q-38 0 -66 -31z" />
<glyph d="M281 -62h82q-3 -99 -66 -192l-59 18q43 80 43 174z" />
<glyph d="M300 686q-48 0 -77 27.5t-29 72.5q0 46 31.5 72.5t76.5 26.5q46 0 75 -25.5t29 -73.5q0 -42 -29 -71t-77 -29zM300 736q47 0 47 50t-47 50q-48 0 -48 -50t48 -50z" />
<glyph d="M246 504l23 181h85l-45 -181h-63z" />
<glyph d="M303 513q111 -2 179.5 -67.5t68.5 -193.5q0 -116 -72 -189.5t-183 -73.5q-108 0 -177.5 69t-69.5 194q0 119 73 190t181 71zM299 76q68 0 108 44.5t40 131.5q0 175 -148 175q-146 0 -146 -175q0 -88 40 -132t106 -44z" />
<glyph d="M303 513q111 -2 179.5 -67.5t68.5 -193.5q0 -116 -72 -189.5t-183 -73.5q-108 0 -177.5 69t-69.5 194q0 119 73 190t181 71zM153 252q0 -87 39 -131l167 297q-25 9 -60 9q-146 0 -146 -175zM299 76q68 0 108 44.5t40 131.5t-37 132l-168 -299q26 -9 57 -9z" />
<glyph d="M253 403l-138 -27v81l242 52v-420h172v-89h-449v89h173v314z" />
<glyph d="M91 69q278 172 278 273q0 43 -23.5 63.5t-63.5 20.5q-37 0 -69.5 -19t-50.5 -50l-53 69q23 30 71.5 58t117.5 28q80 0 129 -41t49 -116q0 -74 -70.5 -139t-183.5 -127h287v-89h-418v69z" />
<glyph d="M489 359q0 -58 -39 -98t-105 -57q81 -15 127 -61t46 -115q0 -74 -58.5 -129.5t-178.5 -55.5q-64 0 -119 21t-80 43l53 83q71 -60 153 -60q51 0 87.5 26t36.5 72q0 61 -60.5 92t-160.5 36v67q79 6 135.5 39t56.5 82q0 39 -28.5 60t-71.5 21q-70 0 -129 -51l-45 71 q3 3 8.5 7.5t25 16t41 20.5t55 16t67.5 7q80 0 131.5 -43.5t51.5 -109.5z" />
<glyph d="M454 21v-160h-103v160h-299v65l297 422h105v-402h94v-85h-94zM153 106h198v276z" />
<glyph d="M233 416v-154q140 -1 210.5 -58t70.5 -156q0 -84 -61.5 -143.5t-179.5 -59.5q-107 0 -186 66l49 83q65 -63 145 -63q52 0 89 29.5t37 81.5q0 75 -65.5 107.5t-206.5 32.5v323h362v-89h-264z" />
<glyph d="M420 202q0 59 -28.5 86t-88.5 27q-71 0 -123 -41q1 -95 29.5 -146.5t103.5 -51.5q55 0 81 36.5t26 89.5zM526 215q0 -103 -58 -164t-163 -61q-231 0 -231 311q0 169 91.5 263t248.5 94q40 0 83 -6v-91q-43 8 -79 8q-98 0 -162 -52t-73 -159q71 44 146 44 q88 0 142.5 -48.5t54.5 -138.5z" />
<glyph d="M521 505v-59l-272 -590h-103l259 560h-326v89h442z" />
<glyph d="M505 504q0 -80 -139 -156q73 -37 118 -79.5t45 -98.5q0 -78 -67 -129t-164 -51q-95 0 -160.5 44t-65.5 122q0 106 153 181q-29 18 -43 27t-35 26t-30 31t-16.5 34.5t-7.5 44.5q0 69 62.5 114t148.5 45q90 0 145.5 -43t55.5 -112zM423 164q0 20 -11 38.5t-35 37t-39.5 28 t-46.5 27.5q-114 -64 -114 -131q0 -47 35.5 -72t93.5 -25q52 0 84.5 26.5t32.5 70.5zM196 506q0 -33 21 -54.5t85 -62.5q49 34 73 59.5t24 52.5q0 39 -27.5 59t-70.5 20q-49 0 -77 -21t-28 -53z" />
<glyph d="M180 300q0 -59 28.5 -86t88.5 -27q72 0 123 42q-1 95 -29.5 146t-103.5 51q-55 0 -81 -36.5t-26 -89.5zM74 288q0 103 58 163.5t163 60.5q231 0 231 -310q0 -169 -91.5 -263.5t-248.5 -94.5q-40 0 -83 6v92q43 -8 80 -8q97 0 161.5 51.5t72.5 158.5q-72 -43 -146 -43 q-89 0 -143 48.5t-54 138.5z" />
<glyph d="M298 -7q-98 0 -168.5 72t-70.5 173q0 102 70.5 174t168.5 72q100 0 171 -72t71 -174q0 -104 -70.5 -174.5t-171.5 -70.5zM298 28q88 0 145 58.5t57 151.5q0 86 -58 148t-144 62t-142.5 -59t-56.5 -151q0 -93 58 -151.5t141 -58.5zM308 79q-76 0 -117 39t-41 118 q0 76 45 117.5t120 41.5q56 0 95 -21l-19 -53q-32 24 -78 24q-98 0 -98 -109q0 -107 98 -107q49 0 86 22l14 -50q-45 -22 -105 -22z" />
<glyph d="M298 -7q-98 0 -168.5 72t-70.5 173q0 102 70.5 174t168.5 72q100 0 171 -72t71 -174q0 -104 -70.5 -174.5t-171.5 -70.5zM298 28q88 0 145 58.5t57 151.5q0 86 -58 148t-144 62t-142.5 -59t-56.5 -151q0 -93 58 -151.5t141 -58.5zM206 74v320h110q122 0 122 -105 q0 -50 -32 -78.5t-88 -28.5h-51v-108h-61zM267 230h46q30 0 45 13t15 45q0 31 -13.5 45t-48.5 14h-44v-117z" />
<glyph d="M298 -7q-98 0 -168.5 72t-70.5 173q0 102 70.5 174t168.5 72q100 0 171 -72t71 -174q0 -104 -70.5 -174.5t-171.5 -70.5zM298 28q88 0 145 58.5t57 151.5q0 86 -58 148t-144 62t-142.5 -59t-56.5 -151q0 -93 58 -151.5t141 -58.5zM211 123q-36 0 -60.5 33t-24.5 82 t26.5 82t64.5 33q49 0 87 -78q14 34 37 56t49 22q40 0 63 -32.5t23 -81.5q0 -50 -26 -83t-65 -33q-47 0 -82 77q-14 -33 -39 -55t-53 -22zM170 238q0 -35 12 -54t33 -19q20 0 39 19.5t32 53.5q-10 33 -28 52t-38 19q-50 0 -50 -71zM321 238q12 -35 28.5 -54t33.5 -19 q46 0 46 74q0 71 -42 71q-39 0 -66 -72z" />
<glyph />
<glyph />
</font>
</defs>
</svg>
